<svg data-name="Layer 1" xmlns="http://www.w3.org/2000/svg" xmlns:xlink="http://www.w3.org/1999/xlink" width="1135.7" height="856.9"><defs><linearGradient id="a" x1="345.7" y1="824" x2="345.7" y2="606.2" gradientTransform="translate(636.4)" gradientUnits="userSpaceOnUse"><stop offset="0" stop-color="gray" stop-opacity=".3"/><stop offset=".5" stop-color="gray" stop-opacity=".1"/><stop offset="1" stop-color="gray" stop-opacity=".1"/></linearGradient><linearGradient id="b" x1="-254.3" y1="469.7" x2="-254.3" y2="232.1" gradientTransform="rotate(-2.2 1080.7 -27397.3)" xlink:href="#a"/></defs><path d="M584.5 172.8c-71.4 12-142.9 5.5-211.7-3.3s-137.5-20.3-209-18c-46 1.4-97.3 10.4-129 38.1C4 216.3-.3 252.8 0 285.8c.2 24.9 2.6 50.6 19.4 70.5 11.6 13.9 29.5 24 43 36.7 47 44.6 33.6 113.7 3.9 172.2-14 27.4-31.1 54.3-40.5 82.5s-10.3 58.4 7.4 81.7c17.5 23.1 51 36.4 86 43.5 70.8 14.5 149.5 7 225.6-3.3 168.4-23.2 335-60.6 501-97.9 61.5-13.8 123.3-27.7 182.4-48 32.8-11.2 66.2-25.4 87.3-47.8 26.7-28.5 27-67.7.5-91.6-44.2-39.9-143.2-32.4-177.5-77.9-19-25-11.3-58.6 3.2-88.1 31-63.4 91.8-125.7 83-189.4-6-43.8-48.4-80.4-104.7-90.5-59-10.6-134.4 7-167.7 50.6-34.5 44.8-104.7 73.3-167.8 83.8z" fill="#b594b6" opacity=".1"/><path d="M1044.7 223s-14.1-5.8-58.8 14.8-50.4 17.9-62 14.7-18-3.8-30.4-21c0 0-8.8-47.4-17.3-54.8s-44.5 4.2-44.5 4.2-43.1 9.9-51.4-47.8c0 0 5.9-43.5-2-56.9 0 0 16 7 42.5-4.2s47.6 12 47.6 12 6.7 17.3 6 27.6 3.6 14.2 16.2 9.2c0 0 6.2-8.8-2.6-23.4s-15-25.5-12.6-36.8 9.5-27 32.2-35 53.4-9.3 68.2-15.5S994.2 0 994.2 0s-9.1 9 12.3 47.7 7.8 55.4 7.8 55.4-11.4 27.1-61.7 25c0 0-48.5 1.7-22 22.3 0 0 16.8-3.5 42.1-11.5s43.6 25.1 48.1 48.2 23.9 35.9 23.9 35.9z" fill="#b594b6"/><path d="M979.5 29.3h.3c2 7.3-19.7 37-38.3 60.4l-.2-.1C967.5 56.4 981 35 979.5 29.3z" fill="#444053"/><path d="M941.7 89l.1.4a1285 1285 0 0 1-52.4 62.8l-.5-.3 4.2-5A1267 1267 0 0 0 941.7 89z" fill="#444053"/><path d="M889.3 151.4l.3.5c-27.1 33.9-29 86.4-29 86.8l-5.7-6.5c0-.5 7.1-46.7 34.4-80.8z" fill="#444053"/><path d="M1013.3 204.6s-32-16.6-57-10.7-81-21-81-21-23.7-9.7-28.5-20.7c0 0-16.3-17.3-17.3-26.2s-16.8-31.4-27.2-32.3" fill="none" stroke="#444053" stroke-miterlimit="10"/><path d="M1008.6 220.6s-16-10.8-14.2-23.5" fill="none" stroke="#444053" stroke-miterlimit="10"/><path d="M984 234.6s-23-8.4-25.4-41.1" fill="none" stroke="#444053" stroke-miterlimit="10"/><path d="M946.9 243s-22-18.2-14.7-50" fill="none" stroke="#444053" stroke-miterlimit="10"/><path d="M902.2 234.2s-14.7-30.8-1.6-50.8" fill="none" stroke="#444053" stroke-miterlimit="10"/><path d="M1013.6 184.3s-16.6 5.3-13 14" fill="none" stroke="#444053" stroke-miterlimit="10"/><path d="M993.5 154.1s-22.2 7.1-22.7 38.6" fill="none" stroke="#444053" stroke-miterlimit="10"/><path d="M962.5 146.9s-20.3 25-18.8 47.7" fill="none" stroke="#444053" stroke-miterlimit="10"/><path d="M927 156.7s-20.1 19.2-17.6 30" fill="none" stroke="#444053" stroke-miterlimit="10"/><path d="M914.9 149.9s-19 3.4-21.6-2.8" fill="none" stroke="#444053" stroke-miterlimit="10"/><path d="M890.3 127.1s9.6 12.6 12 9.8" fill="none" stroke="#444053" stroke-miterlimit="10"/><path d="M984.9 119.1s-47.6 3.5-58.4-10.9" fill="none" stroke="#444053" stroke-miterlimit="10"/><path d="M880.3 63.4s22.3 48 38.6 54" fill="none" stroke="#444053" stroke-miterlimit="10"/><path d="M903.7 40.6s13.7 44.1 30.7 57.9" fill="none" stroke="#444053" stroke-miterlimit="10"/><path d="M1004.9 82.7s-36.2 15.6-58-.2" fill="none" stroke="#444053" stroke-miterlimit="10" stroke-width=".8"/><path d="M936 31.2s8.2 32.4 19.4 40.2" fill="none" stroke="#444053" stroke-miterlimit="10" stroke-width=".8"/><path d="M999.4 46.4s-20.3 7.7-27.9 1.8" fill="none" stroke="#444053" stroke-miterlimit="10" stroke-width=".8"/><path d="M872.9 137.7s0 28.2-7.7 30.2" fill="none" stroke="#444053" stroke-miterlimit="10"/><path d="M810 174.3s30.6 2.6 44.6-13.2" fill="none" stroke="#444053" stroke-miterlimit="10"/><path d="M865 104.3s-7.4 28.7-27.8 36.4" fill="none" stroke="#444053" stroke-miterlimit="10"/><path d="M791.7 144.1s21.6 7.5 40.2-11.6" fill="none" stroke="#444053" stroke-miterlimit="10"/><path d="M841 79.7s-2 24.3-15.3 35.7" fill="none" stroke="#444053" stroke-miterlimit="10"/><path d="M792.5 107s18 .2 22.2-5.7" fill="none" stroke="#444053" stroke-miterlimit="10"/><ellipse cx="675.8" cy="808.6" rx="353.5" ry="16.8" fill="#b594b6" opacity=".1"/><path d="M184.6 820.7s-36.1-2.2-31.8 23.1c0 0-.9 4.5 3.2 6.5 0 0 0-1.8 3.7-1.2a16.3 16.3 0 0 0 3.9.2 8.2 8.2 0 0 0 4.8-2s10.1-4.2 14-20.8c0 0 3-3.6 2.9-4.5l-6.1 2.6s2 4.4.4 8c0 0-.2-7.9-1.3-7.7-.3 0-3.2 1.5-3.2 1.5s3.6 7.7.9 13.2c0 0 1-9.4-2-12.6l-4.3 2.5s4.2 8 1.3 14.4c0 0 .8-10-2.2-13.8l-3.9 3s4 7.8 1.5 13.1c0 0-.3-11.5-2.3-12.3 0 0-3.4 3-4 4.2 0 0 2.7 5.6 1 8.6 0 0-1-7.6-1.8-7.7 0 0-3.4 5.1-3.8 8.6a18.4 18.4 0 0 1 3-9 10.2 10.2 0 0 0-5.2 2.6s.5-3.6 6-3.9c0 0 2.8-3.8 3.5-4 0 0-5.4-.5-8.8 1 0 0 3-3.5 9.8-2l3.9-3s-7.2-1-10.3 0c0 0 3.5-3 11.3-.8l4.2-2.5s-6.2-1.3-9.8-.8c0 0 3.9-2.1 11 .2l3-1.4s-4.5-.9-5.8-1-1.4-.5-1.4-.5a15.6 15.6 0 0 1 8.4 1s6.4-2.4 6.3-2.8z" fill="#b594b6"/><ellipse cx="159.7" cy="852.5" rx="25.6" ry="4.3" fill="#b594b6" opacity=".1"/><path d="M121.3 822s-20.3-1.2-17.9 13a3.5 3.5 0 0 0 1.8 3.7s0-1 2.1-.7a9.4 9.4 0 0 0 2.2.1 4.6 4.6 0 0 0 2.7-1s5.7-2.4 8-11.8c0 0 1.6-2 1.5-2.6l-3.4 1.5a6.1 6.1 0 0 1 .3 4.5s-.2-4.4-.8-4.3l-1.8.9s2 4.3.5 7.4c0 0 .6-5.3-1.1-7.1l-2.5 1.4s2.4 4.4.8 8c0 0 .4-5.5-1.3-7.7l-2.2 1.7s2.3 4.4 1 7.4c0 0-.3-6.4-1.4-7a13.2 13.2 0 0 0-2.2 2.4s1.5 3.2.5 5c0 0-.5-4.4-1-4.4 0 0-1.9 2.8-2 4.8a10.5 10.5 0 0 1 1.6-5.1 5.8 5.8 0 0 0-3 1.5s.3-2 3.4-2.2a13.7 13.7 0 0 1 2-2.3 12.7 12.7 0 0 0-4.9.6s1.6-2 5.5-1l2.2-1.8s-4-.6-5.8 0c0 0 2-1.7 6.4-.5l2.3-1.4a21.2 21.2 0 0 0-5.5-.4s2.2-1.2 6.2 0l1.7-.7-3.3-.6c-.8 0-.8-.3-.8-.3a8.8 8.8 0 0 1 4.8.6s3.5-1.3 3.4-1.5z" fill="#b594b6"/><ellipse cx="107.3" cy="840" rx="14.4" ry="2.4" fill="#b594b6" opacity=".1"/><path d="M160.1 791.8s-24.6-1.5-21.7 15.8a4.2 4.2 0 0 0 2.2 4.4s0-1.3 2.5-.9a11.3 11.3 0 0 0 2.7.2 5.6 5.6 0 0 0 3.3-1.4s6.9-2.8 9.6-14.1c0 0 2-2.5 1.9-3.1l-4.2 1.7s1.4 3 .3 5.5c0 0-.1-5.4-1-5.2l-2 1s2.4 5.2.5 9c0 0 .7-6.5-1.3-8.7l-3 1.8s2.9 5.3 1 9.7c0 0 .5-6.7-1.6-9.3l-2.6 2s2.7 5.3 1 9c0 0-.2-7.9-1.6-8.4a16.4 16.4 0 0 0-2.7 2.8s1.8 3.9.7 6c0 0-.7-5.3-1.3-5.3 0 0-2.3 3.4-2.5 5.8a12.7 12.7 0 0 1 2-6.2 7 7 0 0 0-3.5 1.9s.3-2.5 4-2.7c0 0 2-2.6 2.5-2.8 0 0-3.7-.3-6 .7 0 0 2-2.3 6.6-1.3l2.7-2s-5-.8-7 0c0 0 2.3-2 7.6-.6l3-1.7a26.1 26.1 0 0 0-6.7-.5s2.6-1.5 7.5 0l2-.8-4-.7c-1-.1-1-.4-1-.4a10.6 10.6 0 0 1 5.8.7s4.4-1.6 4.3-1.9z" fill="#b594b6"/><ellipse cx="143.2" cy="813.5" rx="17.4" ry="2.9" fill="#b594b6" opacity=".1"/><path d="M668.6 784v7.9H437.3v-6.4a76 76 0 0 0 5.3-140.4H667a76.1 76.1 0 0 0-42 50.4 76 76 0 0 0 29.4 80.5 76.1 76.1 0 0 0 14.2 8z" fill="#d2d4de"/><path d="M667 645.1a76.1 76.1 0 0 0-42 50.4H484.6a76.1 76.1 0 0 0-42-50.4z" opacity=".1"/><path d="M172.5 605.3v44c0 24.2 17.8 43.8 39.7 43.8h680.3c22 0 39.7-19.6 39.7-43.9v-43.9z" fill="#d2d4de"/><path d="M668.6 784v7.9H437.3v-6.4a75.7 75.7 0 0 0 17.9-9.5h199.2a76.1 76.1 0 0 0 14.2 8z" opacity=".1"/><rect x="360.9" y="778.5" width="384.1" height="23.2" rx="9.5" ry="9.5" fill="#d2d4de"/><path d="M932.2 124.3a39.6 39.6 0 0 0-39.7-39.6H212.2a39.6 39.6 0 0 0-39.7 39.6v489.5h759.7z" fill="#30374e"/><path d="M911.5 142v420.6a19.5 19.5 0 0 1-19.6 19.6H212.8a19.5 19.5 0 0 1-19.5-19.6V142a19.5 19.5 0 0 1 19.5-19.6h679.1a19.5 19.5 0 0 1 19.6 19.6z" fill="#dfe3ef"/><circle cx="552.4" cy="103.6" r="9.2" fill="#fff"/><circle cx="552.4" cy="651" r="22.6" fill="#fff"/><path d="M911.4 142H193.3a19.5 19.5 0 0 1 19.5-19.6h679.1a19.5 19.5 0 0 1 19.5 19.6z" fill="#fff"/><circle cx="212.8" cy="132.2" r="4.9" fill="#dfe3ef"/><circle cx="227.4" cy="132.2" r="4.9" fill="#dfe3ef"/><circle cx="242" cy="132.2" r="4.9" fill="#dfe3ef"/><rect x="260.9" y="196" width="579.6" height="338.7" fill="#fff"/><path d="M1034.4 674.8c.2-.5-1.4-3.7-1.4-3.9s-1.6-2-1.6-3-2.2-3-2.2-3-2.9-1.3-3.2-3.9-3.5-2.7-3.5-2.7v-.6a8.5 8.5 0 0 0-.3-3 3.1 3.1 0 0 0-1.8-1.6 6.8 6.8 0 0 0-1-2.6 3 3 0 0 1-.8-2.9c.3-1-.4-3.5-2-3.8s-3.3-1-3.3-1H1012.7a10.3 10.3 0 0 1-1 .2 1.4 1.4 0 0 1-1-.3c-.5-.6-4.8-1.7-5.6-1.7a13.3 13.3 0 0 1-3-1l-2.3-1.7a14.8 14.8 0 0 1-2-2.8 11.2 11.2 0 0 1-.5-1.4 12.5 12.5 0 0 0 2-2.7l.2-.3a1.3 1.3 0 0 0 .3 0h.1a2.2 2.2 0 0 0 1.2-1.4 2.2 2.2 0 0 0 0-.3v-.1a2 2 0 0 0 0-.3.6.6 0 0 0 0-.1 2 2 0 0 0 0-.2v-.5l.2-1a21 21 0 0 1 1.8-4l.2-.6.3-.6a1.5 1.5 0 0 0 0-.2v-.5-.2l.1-.7a8 8 0 0 0-.5-3.7l-1.4-2.8c-.6-1.5-.7-3.2-1.5-4.6a5.5 5.5 0 0 0-6.6-2.7c-1.1.4-2 1.3-3.3 1.6-1.5.5-3.2.2-4.8 0s-3.4-.3-4.7.8c-1.5 1.2-1.9 3.4-3.3 4.8-.6.6-1.3.9-2 1.4a3.1 3.1 0 0 0-1 1.3v.2a1 1 0 0 0 0 .1.9.9 0 0 0 0 .2 2.6 2.6 0 0 0 0 .3 2.4 2.4 0 0 0 .1.3 1.4 1.4 0 0 0 0 .3l.2.2v.2a6.5 6.5 0 0 1 .5 1.3 1.4 1.4 0 0 1 0 .8 2.3 2.3 0 0 1-.6.8 11 11 0 0 0-2.4 3.8l-.1.4a2.5 2.5 0 0 0 .5.1h.3a4.3 4.3 0 0 0 1 0h.3a6.3 6.3 0 0 0 1-.5v.5a12.4 12.4 0 0 0 7 11.2v.3a2.7 2.7 0 0 1 0 .3l-.1-.1s-1-.5-1.9.8a6 6 0 0 1-2.6 2s-9.6 1.6-10 2.8l-4.5.3s-1.5.2-1.7 3.5-1 3.6-1 3.6-1.8 3.2-1.7 5a2.7 2.7 0 0 1-1.4 2.4l-.2 3a2 2 0 0 0-2.2 1.8 7.2 7.2 0 0 1-1.4 3s-2.9 2.4-3 4.5l-1.8 1s-4.2-.9-5.1-2.6l-.3-.2a14.2 14.2 0 0 0-1.8-1.6 1.3 1.3 0 0 1 .1.9l-.3-.4-.5-1s-6.2-7.1-10.2-7.6a2.5 2.5 0 0 0-1.7 1.7c-.5 1.7-1 4.5.3 6l6.2 6.6h.2l1.3 1.8-.6 1.6v.4l-.2.3v.2l-.3 1.2h-.3.3a.5.5 0 0 0 0 .2l.3.1c1.9.8 11 4.9 11.6 5.5a6.7 6.7 0 0 0 7.1 1 7.6 7.6 0 0 0 3.9-4.3 44.8 44.8 0 0 0 3.1-4.7c.1-.6 2.5-1.4 2.5-1.4s.2 7-1 9.6-3.5 14-3.5 14a1.7 1.7 0 0 1 .5 0l-.2.6a1.6 1.6 0 0 1 .6 0l-1.2 7.3a15.4 15.4 0 0 1-.8 3.7c-.5 1-.6 5.8-.6 5.8l-.8 3.6.3.6a9 9 0 0 0 2.4 3.1 6.2 6.2 0 0 1-.4 1.7 5.8 5.8 0 0 0-.4 2.5 31.6 31.6 0 0 0-.8 5.2 19.5 19.5 0 0 1-.6 4l-1 9.1s-.6 8-.3 10a19 19 0 0 1-.2 5s.6 6.3.4 7-1 3.6-.4 5.2.2 6.1.2 6.1.3 5.9.7 7.8a13.3 13.3 0 0 1-.1 4.3 34.8 34.8 0 0 1-.6 4c-.1 0-1.5 2.8 1.3 5.5s1 2.3 1 2.3-2.2-1.1-2 1.1.7 1.6.7 1.6l-.5 1.7h.3c0 .2-.2.3-.3.4a8.2 8.2 0 0 1-1 1.1 2.3 2.3 0 0 0-.7 1.5 41.3 41.3 0 0 1-7.6 6.4 22.4 22.4 0 0 0-4.2 2.9c-.7.7-.6 1.3.8 1.7a20.4 20.4 0 0 0 11.4.2 13.3 13.3 0 0 0 5.6-3.6 8 8 0 0 1 4.5-.7c2.2.4 6.6-2.5 6.6-2.5v-.7l-.3-2.2a1.7 1.7 0 0 1-.4-1.3 7 7 0 0 0-.1-1.8l-.2-.7h.5s-.6-2.7.4-3.2.7-7.4.7-7.4a8.4 8.4 0 0 0-1.9-1.8c-.6-.3 0-3.6 0-4l1-8.5a11 11 0 0 1 .1-3.7c.4-1-.5-5.3-.5-5.3a1 1 0 0 1 .3-1.2c.5-.6.3-6.2.3-6.2v-3.6a13 13 0 0 1 1.2-4.3c.6-.9.2-3.6.2-3.6v-.3-.5a40.9 40.9 0 0 1 1-4.6c.7-2.2 1.5-6 1.5-6l4.9-12.8v-.2a20 20 0 0 1 2.3 8 46 46 0 0 1 .4 6 69.7 69.7 0 0 0 .5 7.2l.6 8.8c0 .3.9 7 1.4 8s-.5 4-.8 4.3 0 8 0 8l-.9 7.3c-.2 1.3-.8 6.1-.2 8s.3 2.2.3 2.2 1.9 2 .8 2a2.9 2.9 0 0 0-2.1 3.9 49.8 49.8 0 0 0 2.3 5.6l.9-.2V813.4a18.5 18.5 0 0 1 .2 3.6c-.2.5-.4 2.9-.5 4.1v.8s0 2.7 5.8 1.9 7-3.1 7-3.1v-.3l.3-2.3c.3-.9-1.6-4.6-1.6-4.6s-.4-2.6-.9-3.2a2.7 2.7 0 0 1-.4-1l-.1-.7h.4s-.4-1.8.9-2.4a1.7 1.7 0 0 0 .7-2.3 17.6 17.6 0 0 1 .5-3.4 1.7 1.7 0 0 1 .4-1.7c.7-.7 1.3-5.9 1.3-5.9l.1-19.8a19 19 0 0 0 0-4.9c-.5-1.4-.9-4.1-.3-4.9s0-4.1 0-4.1 0-7.2.8-9 .6-13 .6-13l.2-7.4s1.7-1.7 1.3-10.2c1.8 0 4-.2 4.2 0 .6.6 4.3 3 6.6 1.5a31.7 31.7 0 0 0 2.6-2l-1-15.8 1 1.5c0-2.2 6.2-9.4 6.2-9.4s5.8-7.5 7.1-8.3 3.8-5.6 3.8-5.6a22.5 22.5 0 0 1 1.2-2.7c.9-.9-1-3.4-.8-4zm-13.6 5.5c-1.6.2-4.9 3.8-5 4.6a3.2 3.2 0 0 1-.7 1.4v-1a108 108 0 0 1-.7-10.8 31.4 31.4 0 0 0 .2-5.2h.1c1 3.2 4.4 7 4.4 7s.5 1.8 1.2 1.8.5 2.2.5 2.2z" transform="translate(-32.1 -21.6)" fill="url(#a)"/><path d="M904 657.6s2-10.1 8.2-10.2l4.5 9.3-3 2.1s-6.6.2-9.6-1.2z" fill="#65617d"/><path d="M916.7 656.7l-3 2.1a35.5 35.5 0 0 1-7.9-.7 9.9 9.9 0 0 1-1.7-.5v-.2a22 22 0 0 1 1.2-3.7c.1-.5.4-1 .6-1.4a9.3 9.3 0 0 1 4-4.3 5.2 5.2 0 0 1 2-.5h.2l.1.2 1.6 3.1z" opacity=".1"/><path d="M968 698.6s6.6-.6 7.1-.1 4.3 2.9 6.5 1.3.7-6.7.7-7l-.2-7.6-3.9-5.3-4.9-9.2-10-1 .3 14.6v7.5z" fill="#65617d"/><path d="M968 698.6s6.6-.6 7.1-.1 4.3 2.9 6.5 1.3.7-6.7.7-7l-.2-7.6-3.9-5.3-4.9-9.2-10-1 .3 14.6v7.5z" opacity=".1"/><path d="M910.9 647.2s-.6 6.3-4.5 6.4l-2.6-1.8c-3.5-2.6-9-7.6-7.5-12.2 2.2-6.7 12.8 5.6 12.8 5.6l.8.9z" fill="#fbbebe"/><path d="M910.9 647.2s-.6 6.3-4.5 6.4l-2.6-1.8-.4-.4a5.2 5.2 0 0 0 2.2.6 2.9 2.9 0 0 0 2.8-1.8 21.6 21.6 0 0 0 1.1-2.5 8 8 0 0 0 .4-1.6z" opacity=".1"/><path d="M909.2 658.7l-1-1.2-3-3.8-1.5-2a5.3 5.3 0 0 0 2.2.5 3 3 0 0 0 2.8-1.7 22.3 22.3 0 0 0 1.1-2.5c.5-1.5.5-2.2.3-2.4a14.8 14.8 0 0 1 1.8 1.5l.2.3.1.2 1.5 3v.1c.2 1 .7 7.1-4.5 8z" fill="#e7effd"/><path d="M940.3 792.5s-4.4 2.9-6.5 2.4a7.8 7.8 0 0 0-4.5.8 13.1 13.1 0 0 1-5.5 3.6c-3.5 1.2-8.4.7-11.3-.2-1.3-.5-1.4-1-.8-1.8a22.2 22.2 0 0 1 4.3-2.8 40.7 40.7 0 0 0 7.4-6.4 2.3 2.3 0 0 1 .7-1.5 8 8 0 0 0 1-1l1-1.4 13 .4.3 1.9a7 7 0 0 1 .2 1.8 1.7 1.7 0 0 0 .3 1.3l.3 2.2z" fill="#65617d"/><path d="M967.2 796l-.4 2.3v.3s-1 2.3-6.8 3.1-5.8-1.9-5.8-1.9v-.7a38.1 38.1 0 0 1 .5-4 19 19 0 0 0-.2-3.7v-5.2l9.5-1a19.6 19.6 0 0 0 .4 2.1 2.9 2.9 0 0 0 .4 1.1c.5.6.8 3.1.8 3.1s1.8 3.8 1.6 4.6z" fill="#65617d"/><path d="M939 784.6l.5 1.9c-1.4.2-7.5 1.3-9 .5a23.4 23.4 0 0 0-5.5-1.3l.1-.2c.6-.6 1-1.3 1-1.3z" opacity=".1"/><path d="M964.3 787.3c-2.4-.4-7.8.6-9.9 1v-2.2l9.6-1a19.6 19.6 0 0 0 .3 2.2z" opacity=".1"/><path d="M969.7 708.4l-.2 7.4s.2 11.1-.5 13-.8 8.9-.8 8.9.5 3.3 0 4-.2 3.5.2 4.9a18.8 18.8 0 0 1 0 4.9V771s-.6 5.1-1.4 5.9a1.7 1.7 0 0 0-.4 1.6 17.3 17.3 0 0 0-.4 3.5 1.7 1.7 0 0 1-.8 2.2c-1.2.6-.9 2.4-.9 2.4-2.8-.6-11 1.2-11 1.2a47.8 47.8 0 0 1-2.3-5.6 2.9 2.9 0 0 1 2.1-3.8c1.1-.1-.8-2-.8-2s.3-.3-.3-2.2.1-6.7.3-7.9l1-7.3s-.5-7.6-.2-8 1.4-3.3.9-4.3-1.4-7.5-1.4-7.8l-.7-8.8s-.6-5.9-.4-7.1a45.7 45.7 0 0 0-.5-6 20 20 0 0 0-2.2-8v.2L944 722s-.8 3.9-1.4 6a39.9 39.9 0 0 0-1 4.5v.8s.3 2.8-.2 3.7a12.7 12.7 0 0 0-1.2 4.2v3.6s.2 5.5-.3 6.1a1 1 0 0 0-.3 1.2s1 4.2.5 5.3a11 11 0 0 0-.1 3.6l-1 8.5c-.1.5-.6 3.6 0 4a8.3 8.3 0 0 1 1.8 1.7s.3 6.8-.6 7.4-.5 3.1-.5 3.1-7.5 1.5-9.2.6a24 24 0 0 0-5.4-1.3l.5-1.7c0 .1-.4.7-.6-1.5s1.9-1.1 1.9-1.1 1.7.4-1-2.3-1.4-5.5-1.2-5.5a34.2 34.2 0 0 0 .5-4 13.4 13.4 0 0 0 0-4.2c-.3-1.9-.6-7.7-.6-7.7s.3-4.4-.2-6 .3-4.6.5-5.2-.5-6.9-.5-6.9a19.3 19.3 0 0 0 .2-5c-.3-2.1.3-10 .3-10l1-9a19.4 19.4 0 0 0 .5-4 32.6 32.6 0 0 1 .8-5.1 5.8 5.8 0 0 1 .4-2.5 18.7 18.7 0 0 0 .7-4.5l5-11.4 2.5-10.1 33-.3a267 267 0 0 0 2 18.5c.9 11-1.2 13-1.2 13z" fill="#3f3d56"/><path d="M966.6 617.4l-7.7 8.2s-9.9-4-8.8-5.3c.4-.5.3-2.1 0-4-.3-2.8-1-6.1-1-6.1s17.2-2.9 15.7 0a4.8 4.8 0 0 0 0 3.5 12.7 12.7 0 0 0 1.8 3.7z" fill="#fbbebe"/><path d="M964.9 610.3c-.6 1-.8 1.1-.5 2.3-2.3 2.4-5.1 5-8.7 5a12.3 12.3 0 0 1-5.5-1.3c-.4-2.8-1.2-6.1-1.2-6.1s17.3-2.9 15.9 0z" opacity=".1"/><path d="M968 605a12.4 12.4 0 1 1-24.7 0v-.2a12.4 12.4 0 0 1 24.8.1z" fill="#fbbebe"/><path d="M969.9 686.6l-13.2.1h-2.1c-7.3.1-14.5-1.3-17.3-1-6 .6 2.2-5.6 2.2-5.6a50.8 50.8 0 0 0 13.8 1.4h1.8c5.5-.4 11-.9 14-1.8l.8 6.9z" opacity=".1"/><path d="M969.9 686.3l-13.2.1h-2.1c-7.3.1-14.5-1.3-17.3-1-6 .6 2.2-5.6 2.2-5.6a50.8 50.8 0 0 0 13.8 1.4h1.8c5.5-.4 11-1 14-1.8l.8 6.9z" fill="#e3a79f"/><path d="M952.4 620.9l-9.5 4.4-7.5 57.1s4.4-2 6.9-.7 10.2.1 10.2.1 5.6-.3 6.4.3 10.6-2.6 10.6-2.6 1.8-4 .4-4.6.5-6.7.5-6.7l-.9-41.2-1.6-5.3-4.5-2.7-4.5 3.6-2.2.3z" opacity=".1"/><path d="M952.4 620.2l-9.5 4.5-7.4 57.1s4.3-2 6.8-.7 10.2 0 10.2 0 5.6-.2 6.5.4 10.6-2.6 10.6-2.6 1.7-4 .4-4.6.4-6.8.4-6.8l-.8-41.1-1.7-5.3-4.5-2.7-4.5 3.6-2.2.3z" fill="#e7effd"/><path d="M952.2 622.9s2.8 3.3 2.7 4l-.1 2.3-2.1 4.2s-1.2 5.2-1.2 6.3-1.8 10.6-1.8 10.6l-2.2 14.5-2.7 19.1 2.8 4.8 3.3-2.8 4.4-34 1-6.7 1-13.3a41.7 41.7 0 0 0-.6-4.5s.7-3.1 3.5-3.8-.2-.2-.2-.2l-1.6-1.3-1.5.6s-3.9-1.3-4.7.2z" opacity=".1"/><path d="M951.9 622.6s2.8 3.2 2.7 4l-.1 2.3-2.1 4.2s-1.2 5.2-1.2 6.3-1.8 10.6-1.8 10.6l-2.2 14.5-2.7 19.1 2.8 4.8 3.3-2.8 4.4-34 1-6.7 1-13.3a42.7 42.7 0 0 0-.6-4.5s.7-3.1 3.5-3.8-.2-.2-.2-.2l-1.6-1.3-1.5.6s-3.9-1.3-4.7.2z" fill="#3f3d56"/><path d="M950 617.1s-.3.3-.4 2.4a41.4 41.4 0 0 1-1.6 6.8s5.4-3.8 8.1-3.4z" opacity=".1"/><path d="M950 616.5s-.3.3-.4 2.4a41.3 41.3 0 0 1-1.6 6.7s5.4-3.7 8.1-3.3z" fill="#e7effd"/><path d="M964.9 615.4l-8.6 7.5s7.2 4.3 8.1 5.3 1.9-10.2 1.9-10.2z" opacity=".1"/><path d="M965.2 614.8l-8.6 7.5s7.2 4.3 8.1 5.3 2-10.2 2-10.2z" fill="#e7effd"/><path d="M950.4 617.1s-1-.5-1.8.9a5.8 5.8 0 0 1-2.6 2s-9.4 1.5-9.8 2.8l-4.4.2s-1.6.2-1.7 3.5-1 3.6-1 3.6-1.9 3.2-1.7 4.9a2.7 2.7 0 0 1-1.4 2.5l6.5 16.9s.2 7-1 9.5-3.4 13.8-3.4 13.8.9-.2.9.4l-1.2 7.5a15.1 15.1 0 0 1-.8 3.6c-.5 1-.6 5.8-.6 5.8l-.8 3.6s2 4.4 5 3.8 8.4-12.5 8.4-12.5l3.5-12.7 2.7-12.6.8-8.5 1.3-18.9 1.8-12.5s2-6.7 1.3-7.6z" opacity=".1"/><path d="M950 616.5s-.9-.5-1.7.9a5.8 5.8 0 0 1-2.6 2s-9.5 1.5-9.8 2.7l-4.4.3s-1.6.2-1.7 3.5-1 3.6-1 3.6-1.9 3.2-1.7 4.8a2.7 2.7 0 0 1-1.4 2.5l6.5 17s.2 7-1 9.4-3.5 13.9-3.5 13.9 1-.2 1 .4l-1.2 7.4a15 15 0 0 1-.8 3.7c-.6 1-.6 5.8-.6 5.8l-.9 3.5s2 4.5 5 3.8 8.5-12.4 8.5-12.4l3.5-12.7L945 664l.8-8.6 1.2-18.8 1.9-12.5s2-6.7 1.3-7.6z" fill="#65617d"/><path d="M916.7 656.7l-3 2.1a35.5 35.5 0 0 1-7.9-.7l-1.7-.7-.3-.1h.3a6.9 6.9 0 0 0 4.2.2c4.3-1.4 3.8-8.5 3.6-10v-.4a2.2 2.2 0 0 0 .2.3l.2.2 1.5 3v.1z" opacity=".1"/><path d="M927.1 636.4l-1.4.4-.2 3a2 2 0 0 0-2.2 1.8 7.2 7.2 0 0 1-1.3 3s-2.9 2.4-3 4.4l-1.8 1.1s-4-1-5-2.6c0 0 1.9 13.4-8 10.2 0 0 11 4.8 11.6 5.5a6.5 6.5 0 0 0 7 1 7.5 7.5 0 0 0 3.9-4.2s3-4.2 3.1-4.8 2.4-1.4 2.4-1.4l4.5-10.8z" fill="#65617d"/><path d="M963.6 621.7l1.6-6.9a8.2 8.2 0 0 0 1.3 2.8l2.2 1.7a13 13 0 0 0 3 1c.8 0 5 1 5.6 1.7s2.6.1 2.6.1l3.2 1c1.5.3 2.2 2.8 2 3.8a3 3 0 0 0 .6 2.8 6.8 6.8 0 0 1 1 2.7 3 3 0 0 1 1.7 1.5 10.5 10.5 0 0 1 .4 3.6l-7.7 11a31.9 31.9 0 0 1-.2 5c-.3 1 1 17 1 17l1.7 27.3a30.5 30.5 0 0 1-2.6 2c-.5.2-1-9.7-1-10s-12-18-12-18a16.2 16.2 0 0 1-1.6-3.2c0-.6-1.5-5.8-1.5-5.8l-2.3-10.2z" opacity=".1"/><path d="M989.5 637v.5l-7.8 11a31.7 31.7 0 0 1-.2 5 612.6 612.6 0 0 0 1 16.9l.8 11.6.9 15.8a29 29 0 0 1-2.6 2c-.5.2-1-9.7-1-10s-12-18-12-18a16.2 16.2 0 0 1-1.6-3.2c0-.6-1.5-5.8-1.5-5.8l-2.2-10.2 1-31 .8-6.8a15 15 0 0 0 2 2.7l2.3 1.7a13 13 0 0 0 3 1c.7 0 5 1.1 5.5 1.7s2.6.2 2.6.2l3.2.9c1.5.4 2.2 2.9 2 3.8a3 3 0 0 0 .6 2.9 6.6 6.6 0 0 1 1 2.6 3 3 0 0 1 1.8 1.5 8.5 8.5 0 0 1 .4 3.1z" fill="#65617d"/><path d="M925.9 775.5c.3 0 11.2.4 11 2.2s-11-2.2-11-2.2z" opacity=".1"/><path d="M928.4 778.4s7.3 1.2 5.4 2.3-5.4-2.3-5.4-2.3z" opacity=".1"/><path d="M955.6 774.3s12.2 1 10.3 2.4-6.1 1.6-6.3 1.6a56 56 0 0 1-4-4z" opacity=".1"/><path d="M954.1 779.7s6.8 1.1 7 2.4-7-2.4-7-2.4z" opacity=".1"/><path d="M957.9 748.4s6.1 1.5 6.5 2.5z" opacity=".1"/><path d="M934 752.9s-3.2 1 0 2.8 0-2.8 0-2.8z" opacity=".1"/><path d="M948.3 703c.4 0 6-2 8-1a13.2 13.2 0 0 0 4.4.7z" opacity=".1"/><path d="M949 708.8v.5l-4.8 12.7s-.8 3.9-1.5 6a39.9 39.9 0 0 0-1 4.6l4.3-26.7z" opacity=".1"/><path d="M956.6 686.4h-2l-1.3-5.2 1.8-.1z" fill="#3f3d56"/><path d="M981.1 680l-1.3 1.1-4.3 3.6s-11.7 6.2-15 .3c-2.8-5.2 10.5-9 13.7-9.7l.7-.2z" fill="#fbbebe"/><path d="M931.1 629s2.3 1 2.9 2.5-2.9-2.5-2.9-2.5z" opacity=".1"/><path d="M924 644.6s-3.2 4-2 5.6 2-5.6 2-5.6z" opacity=".1"/><path d="M983.6 631.3s-3.1.3-3.3 3z" opacity=".1"/><path d="M954.7 673.9c.3-.3 7.4-11 9.1-10z" opacity=".1"/><path d="M968 605a12.4 12.4 0 0 1-1.4 5.8c-.9-.2-1.3-1-1.9-1.7a2.4 2.4 0 0 0-2.8-.4 2.8 2.8 0 0 0-1.4 2.7c-.4-1.7-.2-3.4-.6-5s-1.6-3.5-3.2-3.5c-.6 0-1.4.3-2-.2l-.6-1.2c-1-1.9-4.6-1-6 0a36.8 36.8 0 0 1-4.8 3.3 12.4 12.4 0 0 1 24.8.1z" opacity=".1"/><path d="M954.2 601.1c.2.4.2 1 .5 1.2.5.5 1.3.3 2 .3 1.6 0 2.8 1.7 3.2 3.4s.3 3.4.7 5a2.8 2.8 0 0 1 1.3-2.6 2.4 2.4 0 0 1 2.8.4c.6.6 1 1.5 1.8 1.7s1.6-.6 1.8-1.5a24.1 24.1 0 0 0 .5-2.6c.3-1.6 1.4-2.9 2-4.4a8.2 8.2 0 0 0 0-5.9l-1.4-2.8c-.6-1.5-.8-3.1-1.5-4.5a5.4 5.4 0 0 0-6.5-2.7c-1.1.4-2 1.2-3.2 1.6-1.6.5-3.2.1-4.8 0s-3.4-.3-4.6.7c-1.5 1.2-2 3.5-3.3 4.8-.6.6-1.3 1-2 1.4a2.6 2.6 0 0 0-1 2.1c.1 1.1 1.2 2.1.8 3a2.4 2.4 0 0 1-.6.8 10.9 10.9 0 0 0-2.5 4.3c2.8 1 5.8-2.2 8-3.6 1.4-1 4.8-1.9 6 0z" fill="#3f3d56"/><path d="M981.1 680l-1.3 1.1c-1.1-1.9-5.8-5.7-5.8-5.7l.2-.1.7-.2z" opacity=".1"/><path d="M982.4 678.2l-1 2.1c-.5 1-1 2-1 1.2 0-1.5-6-6.4-6-6.4l.7-.8 1-.9z" fill="#e7effd"/><path d="M982.6 670.4l.7 11.6c-1.6-2.5-6-9-9-8.7l7-8a10.4 10.4 0 0 0 .8-1l.5 6.1z" opacity=".1"/><path d="M982.4 678.2l-1 2.1c-1.8-2.5-4.3-5.4-6.3-6l1-.9z" opacity=".1"/><path d="M987.6 636l1.8 1.5s3.2 0 3.5 2.7 3.2 3.8 3.2 3.8 2 2.1 2 3.1 1.7 2.8 1.7 3 1.6 3.2 1.3 3.8 1.7 3 1.1 4a24 24 0 0 0-1.2 2.6s-2.5 4.7-3.7 5.6-7 8.3-7 8.3-6.1 7-6.1 9.3c0 0-6-10-9.6-9.8l7-8s1.1-1.3 1.2-2 3.3-4.4 4.9-4.6c0 0 .2-2-.4-2.1s-1.3-1.8-1.3-1.8-4.6-5.4-4.6-8.8 6.2-10.5 6.2-10.5z" fill="#65617d"/><path d="M990.3 641s-4.3 3.3-3.4 4.3 3.4-4.3 3.4-4.3z" opacity=".1"/><path d="M990.5 654.3s8.1-2.6 9 0z" opacity=".1"/><path d="M940.3 792.5s-4.4 2.9-6.5 2.4a7.8 7.8 0 0 0-4.5.8 13.1 13.1 0 0 1-5.5 3.6c-3.5 1.2-8.4.7-11.3-.2-1.3-.5-1.4-1-.8-1.8 3.1.6 10 1.9 11.8 1a49.3 49.3 0 0 0 5.8-3.7l5-.6a54.8 54.8 0 0 0 6-2.2z" opacity=".1"/><path d="M966.8 798.3v.3s-1 2.3-6.8 3.1-5.8-1.9-5.8-1.9v-.7c1.8.7 5.8 1.4 12.6-.8z" opacity=".1"/><path d="M933.3 640.4s0 11.9-1 13 1-13 1-13z" opacity=".1"/><path d="M980.2 644.2l1.5 4.3s.6-4.2-1.5-4.3z" opacity=".1"/><g opacity=".1"><path d="M943.4 598.8c.4-1-.6-2-.7-3a2 2 0 0 0-.2 1c0 .7.7 1.4.8 2.2a1.4 1.4 0 0 0 .1-.2z"/><path d="M960.7 610c-.4-1.7-.3-3.4-.7-5s-1.5-3.4-3.1-3.4c-.7 0-1.5.2-2-.3-.3-.3-.4-.8-.6-1.1-1.1-1.9-4.6-1-6 0-2.1 1.4-5 4.3-7.8 3.7a10 10 0 0 0-.3 1c2.8.8 5.8-2.2 8-3.7 1.4-1 4.9-1.9 6 0 .2.4.3.9.6 1.2.5.5 1.3.3 2 .3 1.6 0 2.7 1.7 3.1 3.3s.3 3.5.7 5.1a2.7 2.7 0 0 1 0-1.1z"/><path d="M968.5 608c-.3.8-1 1.6-1.8 1.4s-1.2-1-1.8-1.6a2.5 2.5 0 0 0-2.8-.4 2.9 2.9 0 0 0-1.4 2.5 2.8 2.8 0 0 1 1.2-1.5 2.4 2.4 0 0 1 2.8.4c.6.6 1 1.5 1.8 1.7s1.6-.6 1.8-1.5a7.4 7.4 0 0 0 .3-1.5l-.1.5z"/><path d="M971 601c-.6 1.5-1.7 2.8-2 4.4a8.3 8.3 0 0 0-.2 1c.3-1.6 1.4-2.9 2-4.4a8 8 0 0 0 .5-2.2 8.3 8.3 0 0 1-.4 1.1z"/></g><rect x="315.4" y="228" width="74" height="76.7" fill="#dfe3ef"/><rect x="410.4" y="228" width="74" height="76.7" fill="#dfe3ef"/><rect x="505.4" y="228" width="74" height="76.7" fill="#b594b6" opacity=".2"/><rect x="600.4" y="228" width="74" height="76.7" fill="#b594b6" opacity=".2"/><rect x="695.4" y="228" width="74" height="76.7" fill="#b594b6" opacity=".2"/><rect x="752" y="235.6" width="74" height="76.7" transform="rotate(-37.1 740.8 311)" fill="#b594b6" opacity=".1"/><path d="M352.4 236a12.4 12.4 0 1 0 12.3 12.3 12.3 12.3 0 0 0-12.3-12.3zm8.5 15.7c-.5-.2-1.4-.3-1.8-.7-.2-.2 0-1 0-1a3.7 3.7 0 0 0 1.8-.3c.2-.2.1-.2 0-.4-.7-1-.4-2.5-.4-3.7a3 3 0 0 0-1.2-2.6 3.8 3.8 0 0 0-1.9-.4 4.1 4.1 0 0 0-1.5.2c-2.5 1-1 4.4-1.9 6.3-.1.3-.3.4 0 .6a4.6 4.6 0 0 0 1.8.4v.8c-.1.3-.7.5-1 .6a7.3 7.3 0 0 0-1 .3.2.2 0 0 0 0 .5 4.3 4.3 0 0 1 .7.2 6.5 6.5 0 0 1 2.7 1.4 4 4 0 0 1 1.2 2.7.7.7 0 0 1-.3.7l-.3.2a.2.2 0 0 1-.3-.2 4 4 0 0 0-2.7-3.8c-.8-.3-1.7-.3-2.5-.6-.2 0-.7-.2-.8-.5a3 3 0 0 1-.1-.9v-.6c0-.2.4-.5.4-.6a4.5 4.5 0 0 0 .5-1.9c.5.1.5-.8.6-1.1s.3-1.2-.1-1.4a2.4 2.4 0 0 0 .2-.9 5.3 5.3 0 0 0 0-2.3 3.7 3.7 0 0 0-3.6-2.5 3.8 3.8 0 0 0-3.7 2.3 5 5 0 0 0-.2 2.3 2.9 2.9 0 0 0 .3 1.1c-.4.2-.3 1-.2 1.3s.2 1.4.7 1.2a8.8 8.8 0 0 0 .2 1.4 2 2 0 0 0 .5.9c.1.1.2.1.2.3a6.1 6.1 0 0 1-.1 1.4c-.2.4-1.2.6-1.6.7a8.6 8.6 0 0 0-2.4.7 10.7 10.7 0 0 1 9-16.2 10.8 10.8 0 0 1 7.7 3 10.6 10.6 0 0 1 3.2 7.7 10.8 10.8 0 0 1-.9 4.2 2.8 2.8 0 0 0-1.3-.9z" fill="#fff"/><path d="M353.5 292.7V279l6.3 6.3 1.6-1.6-9-9-9 9 1.5 1.5 6.3-6.2v13.7z" fill="#b594b6" opacity=".5"/><path d="M448.5 292.7V279l6.3 6.3 1.6-1.6-9-9-9 9 1.5 1.5 6.3-6.2v13.7z" fill="#b594b6" opacity=".5"/><path d="M447.7 246a.3.3 0 0 0-.4 0l-5.2 6.7a.3.3 0 0 0 .2.5l9 .8a.3.3 0 0 0 .3-.4l-3.9-7.6zm5.9 3.6a.3.3 0 0 0-.5 0l-1.4 1.4a.2.2 0 0 0 0 .3l1.5 2.7a.3.3 0 0 0 .2.1l2.5.3a.3.3 0 0 0 .2-.4l-2.5-4.4zm.6-2.3a1.3 1.3 0 0 0 1.2-1 1.3 1.3 0 1 0-1.2 1z" fill="#fff"/><path d="M458.5 242l-3.7-.3-.3-3.7a1.5 1.5 0 0 0-1.7-1.4l-16.6 1.5a1.5 1.5 0 0 0-1.3 1.7l1.5 16.5a1.5 1.5 0 0 0 1.6 1.4l.9-.1-.1 1a1.5 1.5 0 0 0 1.4 1.5l16.6 1.5a1.5 1.5 0 0 0 1.6-1.4l1.5-16.5a1.5 1.5 0 0 0-1.4-1.7zm-20.5 9.6a.4.4 0 0 1-.5-.3l-1-11.2a.4.4 0 0 1 .4-.4l15.6-1.4a.4.4 0 0 1 .4.3l.2 3-11.2-1a1.5 1.5 0 0 0-1.7 1.4l-.8 9.5H438zm20.2-7.6l-1 11.2a.4.4 0 0 1-.4.3h-1l-14.6-1.3a.4.4 0 0 1-.3-.4l.2-2.5.7-8.7a.4.4 0 0 1 .4-.3l11 1 1.7.1 3 .3a.4.4 0 0 1 .3.3z" fill="#fff"/><rect x="315.4" y="380.1" width="169" height="126" fill="#dfe3ef"/><path d="M419.2 418.8a59.4 59.4 0 0 0-78.7 56.1 4.2 4.2 0 0 1-8.4 0 67.8 67.8 0 0 1 89.6-64.1" fill="#b594b6"/><path d="M421.7 410.8a67.9 67.9 0 0 1 45.9 64.1 4.2 4.2 0 1 1-8.4 0 59.4 59.4 0 0 0-40-56" fill="#fff"/><path d="M406 445a7.4 7.4 0 0 0-6.1 3.3 7.4 7.4 0 0 0-6.2-3.3 7.3 7.3 0 0 0-7.4 7.3 15.8 15.8 0 0 0 3.1 8.6c4 5.4 10.5 10 10.5 10s6.5-4.7 10.4-10a15.8 15.8 0 0 0 3-8.6 7.3 7.3 0 0 0-7.2-7.3z" fill="#b594b6"/><rect x="531" y="327.5" width="256.4" height="190.7" fill="#dfe3ef"/><rect x="557.4" y="470.9" width="10.5" height="35.2" fill="#fff"/><rect x="577.4" y="427.4" width="10.5" height="78.8" fill="#fff"/><rect x="597.4" y="388.1" width="10.5" height="118" fill="#dfe3ef"/><rect x="617.4" y="360.1" width="10.5" height="146" fill="#fff"/><rect x="597.4" y="360.1" width="10.5" height="146" fill="#b594b6"/><rect x="637.4" y="425.9" width="10.5" height="80.3" fill="#b594b6"/><rect x="657.4" y="405.1" width="10.5" height="101" fill="#fff"/><rect x="677.4" y="373.6" width="10.5" height="132.5" fill="#fff"/><rect x="697.4" y="447.1" width="10.5" height="59" fill="#b594b6" opacity=".2"/><rect x="717.4" y="419.9" width="10.5" height="86.3" fill="#b594b6" opacity=".2"/><rect x="737.4" y="388.1" width="10.5" height="118" fill="#b594b6" opacity=".2"/><rect x="757.4" y="388.1" width="10.5" height="118" fill="#b594b6" opacity=".2"/><polygon points="816.01 309.05 826.29 303.27 831.11 306.16 927.45 769.88 921.68 770.98 909.64 760.53 816.01 309.05" fill="#65617d"/><polygon points="826.29 303.27 921.68 770.98 927.45 769.88 831.11 306.16 826.29 303.27" opacity=".1"/><polygon points="755.38 328.62 828.7 335.64 828.7 341.31 755.77 334.96 755.38 328.62" fill="#65617d"/><polygon points="763.15 397.7 840.9 397.7 840.9 406 762.15 406 763.15 397.7" fill="#65617d"/><polygon points="770.28 470.13 848.77 467.01 858.59 470.13 858.59 475.45 788.85 479.12 770.92 479.12 770.28 470.13" fill="#65617d"/><polygon points="789.85 474.45 858.59 470.13 858.59 475.45 788.85 479.12 789.85 474.45" opacity=".1"/><polygon points="770.28 470.13 789.85 474.45 788.85 479.12 770.92 479.12 770.28 470.13" opacity=".1"/><polygon points="777.39 548.74 864.05 540.7 873.6 543.19 873.6 548.74 796.19 556.87 777.39 558.54 777.39 548.74" fill="#65617d"/><polygon points="795.86 552.2 864.99 545.25 873.6 543.19 873.6 548.74 796.19 556.87 795.86 552.2" opacity=".1"/><polygon points="776.23 553.22 795.86 552.2 796.19 556.87 777.39 558.54 776.23 553.22" opacity=".1"/><polygon points="781.51 626.92 879.24 613.94 887.62 617.27 887.62 623.61 803.32 636.29 783.51 636.29 781.51 626.92" fill="#65617d"/><polygon points="803.32 632.28 887.62 617.27 887.62 623.61 803.32 636.29 803.32 632.28" opacity=".1"/><polygon points="782.68 632.39 803.32 632.28 803.32 636.29 783.51 636.29 782.68 632.39" opacity=".1"/><polygon points="787.28 707.42 894.48 687.43 903.97 693.01 903.97 697.42 809.91 720.24 790.52 721.71 787.28 707.42" fill="#65617d"/><polygon points="809.91 715.7 903.97 693.01 903.97 697.42 809.91 720.24 809.91 715.7" opacity=".1"/><polygon points="789.39 716.73 809.91 715.7 809.91 720.24 790.52 721.71 789.39 716.73" opacity=".1"/><polygon points="762.21 297.49 753.54 299.42 784.86 798.06 794.01 801.43 801.24 801.43 762.21 297.49" fill="#65617d"/><polygon points="757.98 298.43 794.01 801.43 801.24 801.43 762.21 297.49 757.98 298.43" opacity=".1"/><rect x="761.1" y="232.4" width="74" height="76.7" transform="rotate(-37.1 749.9 308)" fill="#fff"/><rect x="761.1" y="232.4" width="74" height="76.7" transform="rotate(-37.1 749.9 308)" fill="#dfe3ef"/><path d="M783.3 270.4l-8.2-11 8.8 1.3.3-2.3-12.6-1.7-1.8 12.6 2.3.3 1.2-8.8 8.3 11z" fill="#b594b6" opacity=".5"/><path d="M763.9 246.5a11.6 11.6 0 0 1-18.5-11 1 1 0 0 1 1-.8 1 1 0 0 1 .8 1.1 9.7 9.7 0 0 0 15.5 9.3 9.7 9.7 0 0 0-11-16l2.2 2.9a1 1 0 0 1-1.5 1.1l-2.8-3.7a1 1 0 0 1 .2-1.3 11.6 11.6 0 0 1 14 18.5z" fill="#fff"/><path d="M749.9 235.7l7.1-.1a1.8 1.8 0 1 1 0 3.4 1.7 1.7 0 0 1-.5 0l-6.8-2.1a.6.6 0 0 1-.3-.8.6.6 0 0 1 .5-.4z" fill="#fff"/><path d="M872.2 493.3c-.8-2.7-1.2-5-1.2-5a10.5 10.5 0 0 0-1.4-5v-.8l-.2-5.5a18.6 18.6 0 0 1 1.2-2.9c1-1.7-.3-8-.3-8s-4-8.7-3.3-14.3-8.4-24.6-8.4-24.6a24.3 24.3 0 0 1 .6-5.5 4.3 4.3 0 0 0 0-1.2.7.7 0 0 0 0-.2c-.2-3.6-3.4-10.5-3.4-10.5l-.1-13.2s1.5-7.8-1.9-18.2c-1.2-3.6-2-6.5-2.5-8.7l-.2-.7 11-2.2s-4.2-15-6.8-17.6-4.8-10.9-4.8-10.9-1.7-10.7.3-13.9 2-8.6 2-8.6 4.5-3.6 5-5.2a25.1 25.1 0 0 0 1.4-6.8c-.1-1.8-.8-3.4-.6-4.3s-1.5-4.6-.8-6.3a4.5 4.5 0 0 0 .2-1.7 23.3 23.3 0 0 0-.6-4.4 12.7 12.7 0 0 0-4.7-2.4l-.1-.4-.3-1a4.3 4.3 0 0 0-.5-.3v-.4l-.1-1.5.6-3.5c1.2-6-6.9-6.7-6.9-6.7a4.3 4.3 0 0 0-2.4-1.9c-1.6-.5 0 9 .9 9.7a36.5 36.5 0 0 1 3.3 4.8l.2.3a3.5 3.5 0 0 0-.4.4l.4 2v.4a8.4 8.4 0 0 0-1.1 2.2 4.7 4.7 0 0 1 1.3 3.4 10.8 10.8 0 0 0 .6 4.1s-1.2-1.1-2.2-.8l-3.9 1.3s-2.1.4-1.9.9-1.4 2.6-1.4 2.6l-6-5.3-.1-.5a13.8 13.8 0 0 1-.6-2.3 13.9 13.9 0 0 0 1.8-.7 4 4 0 0 0 1.6-1.1 6.3 6.3 0 0 0 .8-2.5 37.3 37.3 0 0 1 2-5 15.7 15.7 0 0 0 .8-8.6 5.8 5.8 0 0 0-1-2.5c-1-1.2-2.7-1.7-4-2.7s-2.1-2.5-3.6-3.3a7 7 0 0 0-4.4-.2 23.8 23.8 0 0 0-8.2 3.4 4.2 4.2 0 0 1-2.7 1 3.7 3.7 0 0 1-2-1.4v-.1a10.1 10.1 0 0 0-.8 4.3v.7a2 2 0 0 0 0 .3 1.5 1.5 0 0 1 0 .2 1.7 1.7 0 0 1 0 .3 2.3 2.3 0 0 1-.5.8 5 5 0 0 0-.4.7 2.2 2.2 0 0 1 0-.3 3.5 3.5 0 0 0-.5 1.9 1.9 1.9 0 0 0 .5 1.3 6.3 6.3 0 0 0 1 .7 10.4 10.4 0 0 0 0 2 11.2 11.2 0 0 0 5.7 9.3l.3.5a14 14 0 0 1 1.3 6.3l-.1.4-.2.3s-9.6.4-12-1.5-5.4 5.2-5.4 5.2-3.4.8-4.1.2-4.7 0-4.7 0a8.7 8.7 0 0 0-6.1-2 17.8 17.8 0 0 0-4.5-2.2h-.1a5 5 0 0 0-2.2-.2s-4.9-3.7-6.3-5.8-8.3-9.5-8.4-9.5v-1.5a3.4 3.4 0 0 1-.7 0l-.1-.3a20.7 20.7 0 0 0-1.5-3.2s0-1.4.3-1.8-.4-5.6-.4-5.6-4.6-9.7-8.1-2.2c0 0-7 5.1-.8 10.5 0 0 2.5 1 2.9 2l1.7 3.3.3.5h-.1l.1 1v.3c-1 .7-1.8 1.4-1.6 1.9a10.6 10.6 0 0 1 .8 2.5s8.7 10.1 10 14.6c0 0 22.8 12.4 30.2 13l-1 6.8s-.2 4 0 5.4-.6 7.9-.6 7.9-1 9.6-2 11-.6 7-.6 7a48 48 0 0 1-1.1 8.1 20.7 20.7 0 0 0 0 8.1s-3.4 8.7 5.3 2.6c0 0 4.4-.5 9.4-.8v2.5c.1 5 .3 11.7.8 16.8.7 9 4.1 26.8 4.1 26.8l.4 9a13 13 0 0 0-.2 2.6 16.7 16.7 0 0 0 2.8 8.8l1 6s1.7 4 1.8 6.3a3.5 3.5 0 0 1 0 .6 3.7 3.7 0 0 0 0 .9c0 2.7 1.8 9.1 1.8 9.1s.4 6.6 1.4 7-1 3.7-1.5 4.8v-.2l-.1.2a4.8 4.8 0 0 0-.3 1.6 2.4 2.4 0 0 0 1.2 2.3c1.9 1 3 2 1.4 2.4a17 17 0 0 0-1.7.5l-.1-.3a1 1 0 0 0-.6 1.2 5 5 0 0 0 .6 2.2 24 24 0 0 0 2.9 4.8l.7-.2a3.8 3.8 0 0 1-.4.9 3 3 0 0 1-1 1 3.6 3.6 0 0 1-1.4.5 3.8 3.8 0 0 0-2.7 1.5c-1 1.3-1.5 3 .5 4.4l7.1 2.2s12.1 1 11.4-1.7l-1.2-5a10.8 10.8 0 0 0-1.2-4.8 6.4 6.4 0 0 0-.5-.7h.5s.6-6 1.8-7.2c.2-.3.3-.5.2-.7.1-.3-.2-.5-.6-.6v.3a6 6 0 0 0-1.3-.1s-.5-3.1.8-4.3a1.2 1.2 0 0 0 .2-1 5 5 0 0 0-.2-1.2 46.5 46.5 0 0 0-3.1-7.2s-.2-2.9.5-4-.7-15.5-.7-15.5 0-7-1-10.1.8-7.1.8-7.1v-.2l-.1-1.1-1.1-6.6c-.5-2.2-.4-12.6-.4-12.6l1.6-4.6 3.4 7.6 3.7 10.1a8.8 8.8 0 0 1 2 4.3v.4a5.3 5.3 0 0 0 0 .6 6.2 6.2 0 0 0 1 3.7s1.1 4.8 2.6 6a5.5 5.5 0 0 1 1.5 3.5s2 7 2.7 8.2c.7 1 .9 3.9 1 4.7v.3l.3 4.6v.7a7.8 7.8 0 0 1-.2 1.6.4.4 0 0 0 0 .1v-.4a17.8 17.8 0 0 0-.3 4.4c0 2.6.5 5.5 2.1 7.2 2.8 3 4.4 2.5 4.4 2.5s-1 3.9-2.6 4.7a.6.6 0 0 0-.2.1 2.3 2.3 0 0 1 0-.2 1.8 1.8 0 0 0-.4 1.4 10.1 10.1 0 0 0 2.2 5.6 3.1 3.1 0 0 0 1.3.7l-.2.2a4 4 0 0 1-.5.3 2.9 2.9 0 0 1-.8.2 3.8 3.8 0 0 0-2.8 1.5c-.9 1.3-1.5 3 .5 4.4l7.1 2.2s12.1 1.1 11.4-1.6z" transform="translate(-32.1 -21.6)" fill="url(#b)"/><path d="M794 478l-6.8-2.2c-2-1.4-1.4-3.1-.5-4.4a3.6 3.6 0 0 1 2.6-1.5 3.2 3.2 0 0 0 1.3-.5 3 3 0 0 0 1-1 5 5 0 0 0 .7-2.7s7.4-2.4 9.5-.3a5.2 5.2 0 0 1 1 1.3 11 11 0 0 1 1.1 4.7l1.2 5c.7 2.6-11 1.6-11 1.6z" fill="#2d293d"/><path d="M827.2 473.4l-6.9-2.1c-1.9-1.5-1.4-3.2-.5-4.5a3.6 3.6 0 0 1 2.7-1.5 2.3 2.3 0 0 0 .7-.2 4.3 4.3 0 0 0 .5-.3c1.9-1.1 1.8-3.7 1.8-3.7s7.3-2.5 9.5-.3a5.3 5.3 0 0 1 .7.9 10.9 10.9 0 0 1 1.3 5.1l1.2 5c.7 2.6-11 1.6-11 1.6z" fill="#2d293d"/><path d="M801.9 465.4a5.2 5.2 0 0 1 1 1.2l-11.2 1.8a5 5 0 0 0 .7-2.7s7.3-2.5 9.5-.3z" opacity=".1"/><path d="M835.7 461.7v2c-1.5 3-10 2.7-12.5 1.3a4.3 4.3 0 0 0 .5-.2c1.9-1.1 1.8-3.7 1.8-3.7s7.3-2.5 9.5-.4a5.3 5.3 0 0 1 .7 1z" opacity=".1"/><path d="M836.7 452.6a19 19 0 0 0-1.2 2.9l.3 7.5c-1.8 3.2-11.7 2.5-13.1.9s-3-6-1.5-7 2.5-4.6 2.5-4.6-1.6.5-4.2-2.5-2.2-9.7-1.8-11.3-.3-7-.3-7 0-3.8-.8-5-2.7-8.2-2.7-8.2a5.6 5.6 0 0 0-1.5-3.6c-1.4-1.1-2.4-6-2.4-6a6.3 6.3 0 0 1-1.1-4c.2-2.4-1.8-4.8-1.8-4.8l-3.7-10.2-3.3-7.6-1.5 4.6s-.1 10.4.4 12.6 1.2 8 1.2 8-1.7 3.8-.8 7 1 10.2 1 10.2 1.5 14.3.7 15.4-.5 4-.5 4 4.2 8.3 3 9.4-.7 4.4-.7 4.4 2.7-.2 1.6 1-1.7 7.2-1.7 7.2l-11.5 1.8a24.3 24.3 0 0 1-2.7-4.7c-1.7-3.5.1-3.2 1.6-3.6s.6-1.4-1.3-2.4-.9-3.7-.9-3.7 2.6-4.8 1.6-5.1-1.3-7-1.3-7-2.2-7.6-1.8-9.7-1.8-7.1-1.8-7.1l-.9-6a16.5 16.5 0 0 1-2.5-11.2l-.4-9.3s-3.3-17.7-4-26.7c-.5-5.8-.7-13.7-.8-18.6l-.1-4.6 40.9-5.9a33.7 33.7 0 0 0 1 6c.5 2.3 1.2 5.2 2.4 8.8 3.3 10.4 1.8 18.2 1.8 18.2l.2 13.2s4 8.8 3.3 11.8a25.6 25.6 0 0 0-.6 5.5s8.8 19 8.2 24.7 3.2 14.3 3.2 14.3 1.2 6.2.3 8z" fill="#575988"/><path d="M811.3 404l12.5-2.1s-6.8 7.4-12.5 2z" opacity=".1"/><path d="M821.5 389.7s.6 4.4-2 6.2c0 0 4.7-1 2-6.2z" opacity=".1"/><path d="M820.2 375.7s-10.1 9-14 8.4 14-8.4 14-8.4z" opacity=".1"/><path d="M796 408.6s-7.9 2.1-8 5.3 8-5.3 8-5.3z" opacity=".1"/><path d="M799.3 448.2s-11.2 2.5-8 3.8a54.3 54.3 0 0 0 8.6 2.2s3.6 0-.6-6z" opacity=".1"/><g opacity=".1"><path d="M789.2 454.4a2.2 2.2 0 0 1-1.1-1.6l-.1.2s-1 2.6.9 3.6l.6.4 1-.2c1.5-.5.5-1.4-1.3-2.4z"/><path d="M803.6 453c.3-.3.3-1 0-2a5.4 5.4 0 0 0-.5 2.8 2.3 2.3 0 0 1 .5-.8z"/><path d="M800 405.8a13 13 0 0 0-.6 3.6 14 14 0 0 1 .8-2.5l-.1-1z"/><path d="M825.5 399.9a4.8 4.8 0 0 0 .1-1l-.2 2 .1-1z"/><path d="M801 439.6a6.3 6.3 0 0 0 .3-2.1 7.3 7.3 0 0 0-.5 2.7 2.6 2.6 0 0 1 .3-.6z"/><path d="M804.1 457.4a37 37 0 0 0-1 6l-11.5 1.7a24.3 24.3 0 0 1-2.8-4.8l-.3-.8c-.7.4-1 1 0 3.1a23.6 23.6 0 0 0 2.8 4.8l11.4-1.8s.7-6 1.8-7.2c.5-.6.1-.8-.4-1z"/><path d="M788.3 441s.3 6.5 1.3 6.9c.5-1.1.7-2.2.3-2.3-1-.4-1.3-7-1.3-7s-2.2-7.6-1.8-9.8-1.8-7-1.8-7l-1-6a16.4 16.4 0 0 1-2.4-11.3l-.4-9.2s-3.3-17.7-4-26.7c-.5-5.8-.8-13.7-.9-18.6v-2.4h-.3v4.6c.1 5 .4 12.8.8 18.6.8 9 4.1 26.8 4.1 26.8l.4 9.2a16.5 16.5 0 0 0 2.6 11.3l.8 6s2.2 5 1.8 7 1.8 9.9 1.8 9.9z"/><path d="M823 461.3a11.2 11.2 0 0 1-2-4.4c-1.2 1 .3 5.2 1.7 6.7s11.3 2.3 13-.9V461c-2.5 2.7-11.4 2-12.8.4z"/><path d="M837 450a17.8 17.8 0 0 0-1.2 3v1.3a20.9 20.9 0 0 1 .9-2 5.8 5.8 0 0 0 .3-2.3z"/><path d="M823.2 452a18.6 18.6 0 0 0 .8-2.2s-1.6.4-4.3-2.5c-2-2.2-2.2-6.3-2-9-.4 1.6-.9 8.4 1.8 11.3 1.7 1.9 3 2.4 3.7 2.5z"/><path d="M817.4 431.2a50.5 50.5 0 0 1 .4 5.6l.2-.9c.4-1.6-.3-7-.3-7s0-3.8-.9-5-2.7-8.1-2.7-8.1a5.6 5.6 0 0 0-1.4-3.6c-1.4-1.2-2.4-6-2.4-6a6.2 6.2 0 0 1-1.1-4c.1-2.4-1.9-4.9-1.9-4.9l-3.6-10.1-3.3-7.6-1.5 4.4v1.5l1.2-3.7 3.3 7.6 3.7 10.1s2 2.5 1.8 4.9a6.2 6.2 0 0 0 1 4s1 4.8 2.5 6a5.6 5.6 0 0 1 1.5 3.5s1.9 7 2.7 8.2.8 5 .8 5z"/></g><path d="M818.7 256l-.6 3.6v1.5l.2 1.2-4 .5-.5-.8a35.2 35.2 0 0 0-3.2-4.8c-.8-.6-2.5-10.2-.9-9.7a4.2 4.2 0 0 1 2.3 1.9s7.9.6 6.7 6.7z" fill="#ffcdd3"/><path d="M818.3 262.3l-4 .5-.5-.8a3.5 3.5 0 0 1 4.4-.9z" opacity=".1"/><path d="M819.3 264.1l-5.1 1.4-.2-.8-.4-2a3.6 3.6 0 0 1 5-1l.3 1.1z" fill="#dce6f2"/><path d="M734.4 259.7l-5.5 3.2-.6-1-1.6-3.3c-.4-1-2.8-2-2.8-2-6-5.4.8-10.4.8-10.4 3.4-7.6 7.9 2.2 7.9 2.2s.7 5.2.3 5.6-.3 1.8-.3 1.8a20.8 20.8 0 0 1 1.5 3.1l.3.8z" fill="#ffcdd3"/><path d="M734.4 259.7l-5.5 3.2-.6-1c.8-.7 3.5-3 4.4-3a7.5 7.5 0 0 0 1.4 0l.3.8z" opacity=".1"/><path d="M735 261.4l-6.1 3.3-.2-1.3-.1-1s3.5-3.2 4.5-3.1a5.5 5.5 0 0 0 1.7-.1l.1 1.1z" fill="#dce6f2"/><path d="M804.4 279.7s-27.3 4.1-22.2 2.3c3.5-1.3 4.8-3.6 5-6.1a14.4 14.4 0 0 0-1.3-6.3 26.9 26.9 0 0 0-2.6-4.9s20.4-12.3 16.7-1.7a16.9 16.9 0 0 0-1 5 14 14 0 0 0 .7 5 15 15 0 0 0 4.6 6.7z" fill="#ffcdd3"/><path d="M800 263a16.9 16.9 0 0 0-1 5c-1.9 1.8-4 1.7-6.8 1.9-2.2 0-4.5.6-6.3-.3a26.9 26.9 0 0 0-2.6-4.9s20.5-12.3 16.7-1.7z" opacity=".1"/><circle cx="791.4" cy="259.3" r="11.3" fill="#ffcdd3"/><path d="M804.4 279.7s-27.3 4.1-22.2 2.3c3.5-1.3 4.8-3.6 5-6.1 1.3-1.6 4-2.7 5.7-3.4a8.2 8.2 0 0 1 5-.2 7 7 0 0 1 1.8.7 15 15 0 0 0 4.6 6.7z" opacity=".1"/><path d="M819.3 264.1l-5.1 1.4-.2-.8a4.6 4.6 0 0 1 5-1.9z" opacity=".1"/><path d="M735 261.4l-6.1 3.3-.2-1.3a46.5 46.5 0 0 1 6.2-3z" opacity=".1"/><path d="M817.9 348.2c-10.6 2-25.6 4.8-28 4.2-2-.5-8.3-.2-13.8.2l-.1-4.6 40.9-5.9a33.7 33.7 0 0 0 1 6z" opacity=".1"/><path d="M828.3 345.3s-34.7 7.3-38.4 6.3-23 1-23 1c-8.5 6.2-5.2-2.5-5.2-2.5a21.1 21.1 0 0 1 0-8.1 49.3 49.3 0 0 0 1.1-8.2s-.4-5.7.6-7 1.9-11 1.9-11 .7-6.5.6-7.9 0-5.4 0-5.4l1-6.7c-7.1-.7-29.3-13.1-29.3-13.1-1.2-4.5-9.7-14.6-9.7-14.6a10.7 10.7 0 0 0-.8-2.5c-.6-1.5 7.8-5 7.8-5s6.7 7.6 8.1 9.7 6.1 5.7 6.1 5.7a4.6 4.6 0 0 1 2.1.2.5.5 0 0 1 .1 0 17 17 0 0 1 4.4 2.3 8.2 8.2 0 0 1 5.9 2s3.8-.7 4.5 0 4-.2 4-.2 3-7.2 5.4-5.2 11.5 1.5 11.5 1.5c1.2-1.7 4.1-3 6-3.7a8.2 8.2 0 0 1 5-.3 6.4 6.4 0 0 1 2 1l5.8 5.2s1.5-2.1 1.3-2.6 1.9-1 1.9-1l3.7-1.2c1-.2 2 .7 2.1.8a11 11 0 0 1-.6-4.1 4.8 4.8 0 0 0-1.3-3.4c3-8.3 10.8-1.7 10.8-1.7s1 4.4.3 6.1 1 5.3.9 6.3.4 2.5.5 4.3a26 26 0 0 1-1.3 6.8c-.5 1.6-4.9 5.2-4.9 5.2s0 5.4-2 8.6-.2 14-.2 14 2.2 8.2 4.7 10.8 6.6 17.6 6.6 17.6z" fill="#656691"/><path d="M775 284.7s-1.1-3-2-3.3a22.4 22.4 0 0 1-2.9-1.1l.6-1.2s3.6.8 4.2 1.8.2 3.8.2 3.8z" opacity=".1"/><path d="M755.7 278.5c-.2 1-8.6 2.2-8.6 2.2l4.1-4.5h.1a17 17 0 0 1 4.4 2.3z" opacity=".1"/><circle cx="730.7" cy="266.4" r=".8" fill="#575988"/><circle cx="731.8" cy="267.9" r=".8" fill="#575988"/><circle cx="732.8" cy="269.3" r=".8" fill="#575988"/><circle cx="733.8" cy="270.8" r=".8" fill="#575988"/><circle cx="823.4" cy="267.2" r=".6" fill="#575988"/><circle cx="823.5" cy="268.6" r=".6" fill="#575988"/><circle cx="823.6" cy="270" r=".6" fill="#575988"/><path d="M776 310.5c0-.1 22.5 26.1 38.5 9.8 0 0-26.2 4.6-38.4-9.8z" opacity=".1"/><path d="M764.3 325s12.9-.1 14.3 3.5l.2 3.8a2.4 2.4 0 0 1-2.4.1c-1.3-.6-9.2-4.3-11.9-2.3z" opacity=".1"/><path d="M764.6 325s12.2-.1 13.7 3.3v3.7a2.4 2.4 0 0 1-2.2 0c-1.2-.5-8.8-4-11.3-2.1z" fill="#656691"/><path d="M770.3 297a41.1 41.1 0 0 0 5.3 8.3 33.4 33.4 0 0 0 8 7.2s-13-13.8-13.4-15.6z" opacity=".1"/><path d="M765.5 282.2s2.5 9.1 8.1 12z" opacity=".1"/><path d="M762.2 283.3c0-.2-1.6 7.3 7.6 11.1 0 0-3.9-1.1-7.6-11.1z" opacity=".1"/><path d="M818 275c-.2 0 4.5 2.7 5.8 4 0 0-3.1-4.4-5.8-4z" opacity=".1"/><path d="M788.7 269.7a2.5 2.5 0 0 0 1 1.4 2.5 2.5 0 0 0 1 .2c3.5.1 7 .1 10.2-1.3a3.9 3.9 0 0 0 1.5-1.1 6.4 6.4 0 0 0 .9-2.5 35.5 35.5 0 0 1 1.9-5 16.2 16.2 0 0 0 .7-8.6 6 6 0 0 0-1-2.5c-1-1.2-2.6-1.7-3.9-2.7s-2-2.6-3.5-3.3a6.6 6.6 0 0 0-4.3-.2 22.6 22.6 0 0 0-7.8 3.3 4 4 0 0 1-2.6 1 3.7 3.7 0 0 1-2-1.4 10.4 10.4 0 0 0-.7 5 2.4 2.4 0 0 1 0 .7 2.3 2.3 0 0 1-.5.8c-.8 1-1.3 2.6-.4 3.5.4.5 1 .7 1.3 1.1.7.8.5 2 .6 3a1.5 1.5 0 0 0 .2 1 1.4 1.4 0 0 0 1.5.2 4 4 0 0 1 1.4-.2 2.5 2.5 0 0 1 1.4 1 17.6 17.6 0 0 1 3.1 6.6z" fill="#2d293d"/><g opacity=".1"><path d="M802.8 268a3.9 3.9 0 0 1-1.5 1.1 22.9 22.9 0 0 1-10.2 1.3 2.3 2.3 0 0 1-1-.1 2.4 2.4 0 0 1-1-1.5 17.7 17.7 0 0 0-3.2-6.6 2.5 2.5 0 0 0-1.3-1 3.8 3.8 0 0 0-1.5.2 1.5 1.5 0 0 1-1.4-.2 1.5 1.5 0 0 1-.3-1c0-1 .2-2.2-.5-3-.4-.4-1-.6-1.3-1a2.2 2.2 0 0 1-.3-2.3 2.6 2.6 0 0 0 0 3c.4.4 1 .6 1.3 1 .7.8.5 2 .5 3a1.5 1.5 0 0 0 .3 1 1.4 1.4 0 0 0 1.4.3 4 4 0 0 1 1.5-.2 2.5 2.5 0 0 1 1.3 1 17.6 17.6 0 0 1 3.2 6.5 2.4 2.4 0 0 0 1 1.5 2.4 2.4 0 0 0 1 .2c3.4 0 7 0 10.2-1.4a3.8 3.8 0 0 0 1.5-1 3 3 0 0 0 .4-1z"/><path d="M780.1 252.4a1.6 1.6 0 0 0 .4-.6 2 2 0 0 0 0-.7 10.6 10.6 0 0 1 .3-4.1 10.4 10.4 0 0 0-.7 4.9 2.6 2.6 0 0 1 0 .5z"/></g><path d="M787 276.6s14.2 1.3 15.4-.9" opacity=".1"/><path d="M814.2 269.7s7.8-.3 9.7 2.6" opacity=".1"/><rect x="860.9" y="640.5" width="74" height="76.7" transform="rotate(.1 14658.6 -19772.2)" fill="#fff"/><rect x="860.9" y="640.5" width="74" height="76.7" transform="rotate(.1 14658.6 -19772.2)" fill="#fff"/><path d="M866.8 684.6V671l6.3 6.3 1.6-1.6-9-9-9 9 1.5 1.5 6.3-6.2v13.7z" fill="#b594b6" opacity=".5"/><path d="M853.4 638.4h12.3V626h-.9a11.4 11.4 0 0 0-11.4 11.4v.9z" fill="#dfe3ef"/><path d="M857.6 646.4a11.4 11.4 0 1 0 9.8-18.5v12.2h-12.2a11.4 11.4 0 0 0 2.4 6.3z" fill="#dfe3ef"/><path d="M213.8 103.3c-6.5 13.3-17 28.5-29 22.7S164 95.6 170.6 82.3s21.3-19.4 33.3-13.6 16.4 21.3 10 34.6z" fill="#b594b6"/><path d="M188.3 134.4s-2.4-.3-1.5-2.3a3.2 3.2 0 0 1 .3-.5 5.5 5.5 0 0 0 .8-1.8 5.8 5.8 0 0 0 0-.6 9.1 9.1 0 0 0 0-3.1l6.3-.5s-2.4 2.2-2.2 3.2a.7.7 0 0 0 .3.4 1.4 1.4 0 0 0 .5.2 4 4 0 0 1 .4.1c1.7.6 1 1.5 1 1.5-.2 2.7-6 3.4-6 3.4z" fill="#b594b6"/><path d="M192.3 129.2l-4.4.6a5.8 5.8 0 0 0 0-.7l4.2-.3a.7.7 0 0 0 .2.4z" fill="#444053"/><path d="M188.3 134.4s-2.4-.3-1.5-2.3a7 7 0 0 0 2.8.1 6.1 6.1 0 0 0 3.6-2.6c1.7.5 1 1.4 1 1.4-.2 2.7-6 3.4-6 3.4z" fill="#b594b6"/><path d="M188.3 134.4s-2.4-.3-1.5-2.3a7 7 0 0 0 2.8.1 6.1 6.1 0 0 0 3.6-2.6c1.7.5 1 1.4 1 1.4-.2 2.7-6 3.4-6 3.4z" opacity=".1"/><path d="M191.7 70s-7.1-.8-9.2 3.9a5.9 5.9 0 0 1 2.6.1 3.6 3.6 0 0 0 1.7.4 9.5 9.5 0 0 1 4.9-4.4z" fill="#fff" opacity=".1"/><path d="M177.5 166.7a18.3 18.3 0 0 1-4 3.3l-1.2.8c-11.3 6.2-31.3 6.3-40.7-2a26.8 26.8 0 0 1-7.8-30 21.8 21.8 0 0 1 3.6-5.8c7.1-8 19-9.7 29.2-4.8a25.8 25.8 0 0 1 2.6 1.4l1.2.8a29.4 29.4 0 0 1 3 2.3l1.6 1.4.1.2a78.2 78.2 0 0 1 9 9.4l2.2 3.2 1.4 2.2a19.7 19.7 0 0 1 3 10l-.1 1v.2a11 11 0 0 1-1.1 3.6 13 13 0 0 1-2 2.8z" fill="#b594b6"/><path d="M177.5 166.7a18.3 18.3 0 0 1-4 3.3l-1.2.8c-11.3 6.2-31.3 6.3-40.7-2a26.8 26.8 0 0 1-7.8-30 21.8 21.8 0 0 1 3.6-5.8c7.1-8 19-9.7 29.2-4.8a25.8 25.8 0 0 1 2.6 1.4l1.2.8a29.4 29.4 0 0 1 3 2.3l1.6 1.4.1.2a78.2 78.2 0 0 1 9 9.4l2.2 3.2 1.4 2.2a19.7 19.7 0 0 1 3 10l-.1 1v.2a11 11 0 0 1-1.1 3.6 13 13 0 0 1-2 2.8z" opacity=".1"/><path d="M184 166.4a3 3 0 0 1-.4-.4 5.5 5.5 0 0 0-1.5-1.2 5.3 5.3 0 0 0-.7-.3 8.3 8.3 0 0 0-2-.6 7.2 7.2 0 0 0-1-.1l1-4.3.3-2a12 12 0 0 0 1 1.6c.4.7 1 1.4 1.5 1.4a.7.7 0 0 0 .5-.2 1.2 1.2 0 0 0 .2-.3l.3-.5c1-1.4 1.6-.5 1.6-.5 1.2.4 1.7 1.8 1.8 3.1v.6a15.8 15.8 0 0 1 0 3s-1 2.1-2.6.7z" fill="#b594b6"/><path d="M182 164.8a5.3 5.3 0 0 0-.6-.3l.7-3.4v-.3l.1-.3a.7.7 0 0 0 .5-.2l-.1.7v.3z" fill="#444053"/><path d="M184 166.4a7.3 7.3 0 0 0 .8-2.6 5.6 5.6 0 0 0-.2-1.6l-.1-.5a5 5 0 0 0-1.3-2.1c1-1.5 1.7-.6 1.7-.6 1 .4 1.6 1.8 1.7 3.2v.6a15.8 15.8 0 0 1 0 2.9s-1 2.1-2.6.7z" fill="#b594b6"/><path d="M184 166.4a7.3 7.3 0 0 0 .8-2.6 5.6 5.6 0 0 0-.2-1.6l-.1-.5a5 5 0 0 0-1.3-2.1c1-1.5 1.7-.6 1.7-.6 1 .4 1.6 1.8 1.7 3.2v.6a15.8 15.8 0 0 1 0 2.9s-1 2.1-2.6.7z" opacity=".1"/><path d="M125.5 145.1s-2.7 6.7 1.3 9.9a5.7 5.7 0 0 1 .8-2.5 3.6 3.6 0 0 0 .8-1.5 9.5 9.5 0 0 1-3-5.9z" fill="#fff" opacity=".1"/><path d="M227.3 125.3a73.3 73.3 0 0 1-17.6 8.6c-4.5 1.4-8.9 1.8-12.5.7a11.3 11.3 0 0 1-4.3-2.5 12.7 12.7 0 0 1-2.1-2.5c-4.3-6.6-4.2-18.3-.9-28.3a31 31 0 0 1 11.4-16.5c12.4-8 28.4-5.4 35.5 5.8s3 26.7-9.5 34.7z" fill="#b594b6"/><path d="M227.3 125.3a73.3 73.3 0 0 1-17.6 8.6c-4.5 1.4-8.9 1.8-12.5.7a11.3 11.3 0 0 1-4.3-2.5 12.7 12.7 0 0 1-2.1-2.5c-4.3-6.6-4.2-18.3-.9-28.3a31 31 0 0 1 11.4-16.5c12.4-8 28.4-5.4 35.5 5.8s3 26.7-9.5 34.7z" opacity=".1"/><path d="M196.1 138.7c-1.6 2.2-6.9-.2-6.9-.2s-1.7-1.5 0-2.7a3.9 3.9 0 0 1 .5-.3 6 6 0 0 0 1.6-1.1l.5-.5a9 9 0 0 0 1.1-1.8 7.1 7.1 0 0 0 .4-1l5.7 3a12.8 12.8 0 0 0-1.8.5c-.8.3-1.6.7-1.8 1.2a.6.6 0 0 0 0 .4 1.2 1.2 0 0 0 .3.4 5 5 0 0 1 .3.4c1.2 1.3.1 1.7.1 1.7z" fill="#b594b6"/><path d="M195.4 136.2l-4-1.8.4-.5 3.6 1.9a.6.6 0 0 0 0 .4z" fill="#444053"/><path d="M196.1 138.7c-1.6 2.2-6.9-.2-6.9-.2s-1.7-1.5 0-2.7a7.3 7.3 0 0 0 2.3 1.5 6 6 0 0 0 4.6-.3c1 1.3 0 1.7 0 1.7z" fill="#b594b6"/><path d="M196.1 138.7c-1.6 2.2-6.9-.2-6.9-.2s-1.7-1.5 0-2.7a7.3 7.3 0 0 0 2.3 1.5 6 6 0 0 0 4.6-.3c1 1.3 0 1.7 0 1.7z" opacity=".1"/><path d="M225.7 85.4S220.1 81 216 84a5.8 5.8 0 0 1 2.1 1.4 3.6 3.6 0 0 0 1.3 1.2 9.5 9.5 0 0 1 6.4-1.2z" fill="#fff" opacity=".1"/><g opacity=".1"><path d="M114.6 120.8a5.6 5.6 0 0 0-.8 2.4c-4-3.2-1.3-9.8-1.3-9.8a9.6 9.6 0 0 0 2.9 5.9 3.6 3.6 0 0 1-.8 1.5z"/><path d="M165.5 132l1.3-6.2a13 13 0 0 0 .9 1.6 11.2 11.2 0 0 1-1.2 4.7 9.4 9.4 0 0 0-1 0z"/><path d="M165.1 134.3l-.5.6a18.4 18.4 0 0 1-4 3.3l-1.3.8a43.6 43.6 0 0 1-36 1.1 22 22 0 0 1 4.1-7c7.1-8.1 19-9.8 29.2-4.9a29.4 29.4 0 0 1 6.8 4.5l1.7 1.6z"/><path d="M171 134.7a2.5 2.5 0 0 1-.4-.4 5.8 5.8 0 0 0-1.5-1.2l-.6-.3a8.7 8.7 0 0 0-2-.7 9.4 9.4 0 0 0-1 0l1.3-6.3a13 13 0 0 0 .9 1.6c.4.7 1 1.3 1.6 1.4a.7.7 0 0 0 .4-.2 1.1 1.1 0 0 0 .3-.4l.3-.4c1-1.4 1.6-.5 1.6-.5 2.6.9 1.7 6.6 1.7 6.6s-1 2.1-2.6.8z"/><path d="M169.1 133l-.6-.2.8-4a.7.7 0 0 0 .4-.2z"/><path d="M171 134.7a7.3 7.3 0 0 0 .9-2.6 6.1 6.1 0 0 0-1.7-4.3c1-1.4 1.7-.5 1.7-.5 2.6.9 1.7 6.6 1.7 6.6s-1 2.2-2.6.8z"/><path d="M171 134.7a7.3 7.3 0 0 0 .9-2.6 6.1 6.1 0 0 0-1.7-4.3c1-1.4 1.7-.5 1.7-.5 2.6.9 1.7 6.6 1.7 6.6s-1 2.2-2.6.8z" opacity=".1"/><path d="M113.8 123.2c-4-3.2-1.2-9.8-1.2-9.8a9.6 9.6 0 0 0 2.8 5.9 3.6 3.6 0 0 1-.7 1.5 5.6 5.6 0 0 0-.9 2.4z" opacity=".1"/></g><path d="M165.4 133.7l-.4.4a18.4 18.4 0 0 1-3.6 3l-.4.1-.9.6c-9.7 5.3-26 6.2-36.3 1a20.3 20.3 0 0 1-4.3-3c-11.1-9.7-13-25.7-4.2-35.7 7-8 19-9.7 29.2-4.8l1 .4a29.8 29.8 0 0 1 5.8 4 82.5 82.5 0 0 1 10.6 11l1.8 2.6.5.6.8 1.3.5 1a19.6 19.6 0 0 1 3 10 11.2 11.2 0 0 1-1.2 4.8 12.5 12.5 0 0 1-1.9 2.7z" fill="#b594b6"/><path d="M171.8 133.4a2.5 2.5 0 0 1-.4-.4 5.6 5.6 0 0 0-1.5-1.2 5.3 5.3 0 0 0-.6-.3 8.7 8.7 0 0 0-2-.6 9.4 9.4 0 0 0-1-.1l1.3-6.2a13 13 0 0 0 .9 1.5c.5.7 1 1.4 1.6 1.4a.7.7 0 0 0 .4-.2 1.2 1.2 0 0 0 .3-.3l.3-.4c1-1.5 1.6-.6 1.6-.6 2.6 1 1.8 6.7 1.8 6.7s-1 2.1-2.7.7z" fill="#b594b6"/><path d="M170 131.8a5.3 5.3 0 0 0-.7-.3l.8-4a.7.7 0 0 0 .4-.2z" fill="#444053"/><path d="M171.8 133.4a7.3 7.3 0 0 0 .9-2.6 6.1 6.1 0 0 0-1.6-4.2c1-1.5 1.6-.6 1.6-.6 2.6 1 1.8 6.7 1.8 6.7s-1 2.1-2.7.7z" fill="#b594b6"/><path d="M171.8 133.4a7.3 7.3 0 0 0 .9-2.6 6.1 6.1 0 0 0-1.6-4.2c1-1.5 1.6-.6 1.6-.6 2.6 1 1.8 6.7 1.8 6.7s-1 2.1-2.7.7z" opacity=".1"/><path d="M113.3 112.2s-2.7 6.6 1.3 9.8a5.8 5.8 0 0 1 .9-2.4 3.7 3.7 0 0 0 .7-1.6 9.5 9.5 0 0 1-2.9-5.8z" fill="#fff" opacity=".1"/><g opacity=".1"><path d="M154.3 67.6a3.5 3.5 0 0 1-1.7.2 5.8 5.8 0 0 0-2.5.7c.4-5.1 7.4-6.6 7.4-6.6a9.5 9.5 0 0 0-3.3 5.7z"/><path d="M164.2 113.9c.5.7 1 1.5 1.3 2.3a22.9 22.9 0 0 1-2.7-1.2 44.5 44.5 0 0 1-18.3-19.8 29.4 29.4 0 0 1 6.8 4.5 82.5 82.5 0 0 1 10.6 11l2.3 3.2z"/><path d="M177 115.3a11.4 11.4 0 0 1-4.6 1.7 7.3 7.3 0 0 0-.4-.9l5.8-2.5a12.7 12.7 0 0 0-.7 1.7z"/><path d="M175 123.9s-2.3.4-2-1.7a3 3 0 0 1 0-.6 5.8 5.8 0 0 0 .2-2 5.2 5.2 0 0 0-.1-.6 8.2 8.2 0 0 0-.7-2 7.3 7.3 0 0 0-.4-1l5.8-2.4a12.7 12.7 0 0 0-.7 1.7c-.4.8-.6 1.6-.3 2a.7.7 0 0 0 .4.3 1.2 1.2 0 0 0 .5 0h.5c1.7 0 1.3 1 1.3 1 .7 2.8-4.5 5.3-4.5 5.3z"/><path d="M177.2 117.7l-4 2a5.2 5.2 0 0 0 0-.7l3.7-1.6a.7.7 0 0 0 .3.3z"/><path d="M175 123.9s-2.3.4-2-1.7a7.4 7.4 0 0 0 2.6-.8 6 6 0 0 0 2.6-3.7c1.7 0 1.3 1 1.3 1 .7 2.7-4.5 5.2-4.5 5.2z"/><path d="M175 123.9s-2.3.4-2-1.7a7.4 7.4 0 0 0 2.6-.8 6 6 0 0 0 2.6-3.7c1.7 0 1.3 1 1.3 1 .7 2.7-4.5 5.2-4.5 5.2z" opacity=".1"/><path d="M154.3 67.6a3.5 3.5 0 0 1-1.7.2 5.8 5.8 0 0 0-2.5.7c.4-5.1 7.4-6.6 7.4-6.6a9.5 9.5 0 0 0-3.3 5.7z" opacity=".1"/></g><path d="M177.5 114.7a11.4 11.4 0 0 1-4.7 1.7 12.4 12.4 0 0 1-3.3 0 17.4 17.4 0 0 1-4.6-1.2l-1.7-.8h-.2a44.3 44.3 0 0 1-17.6-18.7c-2.7-5.3-4.2-11-3.6-16 1.8-14.6 14-25.2 27.2-23.6s22.4 14.9 20.6 29.5a82.4 82.4 0 0 1-3.1 15l-.4 1.2c-2 5.6-4.7 10.4-8.6 12.9z" fill="#b594b6"/><path d="M177.5 114.7a11.4 11.4 0 0 1-4.7 1.7 12.4 12.4 0 0 1-3.3 0 17.4 17.4 0 0 1-4.6-1.2l-1.7-.8h-.2a44.3 44.3 0 0 1-17.6-18.7c-2.7-5.3-4.2-11-3.6-16 1.8-14.6 14-25.2 27.2-23.6s22.4 14.9 20.6 29.5a82.4 82.4 0 0 1-3.1 15l-.4 1.2c-2 5.6-4.7 10.4-8.6 12.9z" opacity=".1"/><path d="M175.4 123.3s-2.3.4-2-1.7a3.2 3.2 0 0 1 0-.6 5.8 5.8 0 0 0 .2-2 5.4 5.4 0 0 0-.1-.6 8.3 8.3 0 0 0-.7-2 7.3 7.3 0 0 0-.4-1l5.9-2.4a13.2 13.2 0 0 0-.8 1.7c-.4.7-.6 1.6-.3 2a.7.7 0 0 0 .4.3 1.3 1.3 0 0 0 .5 0h.5c1.7 0 1.3 1 1.3 1 .7 2.7-4.5 5.3-4.5 5.3z" fill="#b594b6"/><path d="M177.6 117l-4 2a5.4 5.4 0 0 0 0-.7l3.7-1.6a.7.7 0 0 0 .3.3z" fill="#444053"/><path d="M175.4 123.3s-2.3.4-2-1.7a7 7 0 0 0 2.6-.8 6 6 0 0 0 2.6-3.8c1.7 0 1.3 1 1.3 1 .7 2.7-4.5 5.3-4.5 5.3z" fill="#b594b6"/><path d="M175.4 123.3s-2.3.4-2-1.7a7 7 0 0 0 2.6-.8 6 6 0 0 0 2.6-3.8c1.7 0 1.3 1 1.3 1 .7 2.7-4.5 5.3-4.5 5.3z" opacity=".1"/><path d="M157.9 61.2s-7 1.5-7.4 6.7a5.6 5.6 0 0 1 2.5-.7 3.6 3.6 0 0 0 1.7-.3 9.6 9.6 0 0 1 3.2-5.7z" fill="#fff" opacity=".1"/><path d="M251 174.6c-8.6 10.1-24.7 10.4-36 .7a68.2 68.2 0 0 1-14.3-16.2 19.6 19.6 0 0 1-3-10 11.4 11.4 0 0 1 1.1-4.8 13.1 13.1 0 0 1 1.9-2.8 23 23 0 0 1 8.9-5.9c11.5-4.5 28.5-4 37 3.3 11.1 9.7 13.2 25.7 4.5 35.7z" fill="#b594b6"/><path d="M198.5 150.7a12.1 12.1 0 0 0-.9-1.6c-.5-.7-1-1.4-1.6-1.4a.6.6 0 0 0-.4.2 1.6 1.6 0 0 0-.3.4 4 4 0 0 1-.3.4c-1 1.5-1.6.6-1.6.6-2.6-1-1.8-6.7-1.8-6.7s1-2.1 2.6-.8a3 3 0 0 1 .4.4 5.6 5.6 0 0 0 1.5 1.2 6 6 0 0 0 .7.3 9 9 0 0 0 2 .6 8.2 8.2 0 0 0 1 .1z" fill="#b594b6"/><path d="M196 147.7a.6.6 0 0 0-.4.2l.5-4.5a6 6 0 0 0 .7.3l-.8 4z" fill="#444053"/><path d="M195 148.7c-1 1.5-1.6.6-1.6.6-2.6-1-1.8-6.7-1.8-6.7s1-2.1 2.6-.8a7 7 0 0 0-.8 2.6 6 6 0 0 0 1.6 4.3z" fill="#b594b6"/><path d="M195 148.7c-1 1.5-1.6.6-1.6.6-2.6-1-1.8-6.7-1.8-6.7s1-2.1 2.6-.8a7 7 0 0 0-.8 2.6 6 6 0 0 0 1.6 4.3z" opacity=".1"/><path d="M252.8 162.5s2.7-6.6-1.3-9.8a5.8 5.8 0 0 1-.8 2.5 3.6 3.6 0 0 0-.8 1.5 9.5 9.5 0 0 1 3 5.8z" fill="#fff" opacity=".1"/><path d="M200.7 159a19.6 19.6 0 0 1-3-10c-.5-.6-1.1-1.3-1.6-1.3a.6.6 0 0 0-.5.2 1.6 1.6 0 0 0-.3.4 4 4 0 0 1-.3.4c-1 1.4-1.6.5-1.6.5-2.6-.9-1.8-6.6-1.8-6.6s1-2.1 2.6-.8a3 3 0 0 1 .4.4 5.6 5.6 0 0 0 1.6 1.2 6 6 0 0 0 .6.3 9 9 0 0 0 2 .6 13.1 13.1 0 0 1 1.8-2.8 23 23 0 0 1 9-5.9 47 47 0 0 1-9 23.5z" opacity=".1"/><path d="M186.6 162.1a15.7 15.7 0 0 1-2.1-.4l-2-.7-.3-.2-1.6-.7-1.3-.7a45.3 45.3 0 0 1-18.3-22.1 29.3 29.3 0 0 1-1.8-7.7 20.5 20.5 0 0 1 .1-4.1 29.3 29.3 0 0 1 3.7-11.2l.7-1a24 24 0 0 1 22.4-11.5c-2 5.6-4.7 10.4-8.6 12.9-.4.8-.6 1.6-.3 2a.7.7 0 0 0 .4.3 1.3 1.3 0 0 0 .5 0h.5c1.7 0 1.3 1 1.3 1 .7 2.7-4.5 5.2-4.5 5.2s-2.3.4-2-1.7a3.2 3.2 0 0 1 0-.6 5.8 5.8 0 0 0 .2-1.9 5.4 5.4 0 0 0-.1-.7 8.3 8.3 0 0 0-.7-2 12.4 12.4 0 0 1-3.3 0 17.4 17.4 0 0 1-4.6-1.2c.3.3.4.6.6 1a19.6 19.6 0 0 1 3 10c.4.7 1 1.4 1.6 1.4a.7.7 0 0 0 .4-.2 1.2 1.2 0 0 0 .3-.4l.3-.4c1-1.4 1.6-.5 1.6-.5 2.6.9 1.7 6.6 1.7 6.6s-1 2.1-2.6.8a2.5 2.5 0 0 1-.4-.4 5.6 5.6 0 0 0-1.5-1.2 5.3 5.3 0 0 0-.6-.4 8.7 8.7 0 0 0-2-.6 12.5 12.5 0 0 1-1.9 2.8l-.4.5h.1a78.2 78.2 0 0 1 9 9.5l2.2 3.2 1.4 2.2a19.7 19.7 0 0 1 3 10c.4.8 1 1.4 1.5 1.4a.7.7 0 0 0 .5-.1 1.2 1.2 0 0 0 .3-.4l.2-.4c1-1.5 1.7-.6 1.7-.6 1 .5 1.6 1.9 1.7 3.2z" opacity=".1"/><g opacity=".1"><path d="M175.2 112.1a3.6 3.6 0 0 1-1.6.3 5.8 5.8 0 0 0-2.5.6c.4-5 7.4-6.6 7.4-6.6a9.5 9.5 0 0 0-3.3 5.7z"/><path d="M210.2 130.8l-.5 3.1c-4.5 1.4-8.9 1.8-12.5.7-.8.2-1.6.6-1.8 1.1a.6.6 0 0 0 0 .5 1.2 1.2 0 0 0 .3.4 5 5 0 0 1 .3.4c1.1 1.3 0 1.7 0 1.7-1.5 2.2-6.8-.2-6.8-.2s-1.8-1.5 0-2.7a3.9 3.9 0 0 1 .5-.3 6 6 0 0 0 1.6-1.1l.5-.5a9 9 0 0 0 1-1.8 12.7 12.7 0 0 1-2-2.5c-4.3-6.6-4.2-18.3-.9-28.3 13 1.8 22 15 20.3 29.5z"/><path d="M198 159.8a11.4 11.4 0 0 1-4.6 1.8 7.3 7.3 0 0 0-.4-1l5.8-2.4a13 13 0 0 0-.8 1.6z"/><path d="M196 168.4s-2.3.4-2-1.7a3.2 3.2 0 0 1 0-.5 5.5 5.5 0 0 0 .2-2 5.4 5.4 0 0 0-.1-.7 9 9 0 0 0-.7-2 7.3 7.3 0 0 0-.4-.9l5.8-2.4a13 13 0 0 0-.8 1.6c-.3.8-.5 1.7-.2 2.1a.6.6 0 0 0 .4.3 1.1 1.1 0 0 0 .5 0h.5c1.7 0 1.3 1 1.3 1 .7 2.7-4.5 5.2-4.5 5.2z"/><path d="M198.2 162.2l-4 2v-.7l3.6-1.6a.6.6 0 0 0 .4.3z"/><path d="M196 168.4s-2.3.4-2-1.7a7 7 0 0 0 2.5-.8 6 6 0 0 0 2.7-3.7c1.7 0 1.3 1 1.3 1 .7 2.7-4.5 5.2-4.5 5.2z"/><path d="M196 168.4s-2.3.4-2-1.7a7 7 0 0 0 2.5-.8 6 6 0 0 0 2.7-3.7c1.7 0 1.3 1 1.3 1 .7 2.7-4.5 5.2-4.5 5.2z" opacity=".1"/><path d="M175.2 112.1a3.6 3.6 0 0 1-1.6.3 5.8 5.8 0 0 0-2.5.6c.4-5 7.4-6.6 7.4-6.6a9.5 9.5 0 0 0-3.3 5.7z" opacity=".1"/></g><path d="M208.7 131.6c-1.8 14.7-6.8 32.4-20 30.8s-29.6-22-27.8-36.7 14-25.3 27.2-23.6 22.4 14.8 20.6 29.5z" fill="#b594b6"/><path d="M194.6 169.3s-2.3.4-2.1-1.7a4.8 4.8 0 0 1 0-.6 5.5 5.5 0 0 0 .2-2v-.6a9 9 0 0 0-1.2-3l5.9-2.4s-1.7 2.8-1 3.8a.7.7 0 0 0 .4.2 1 1 0 0 0 .4 0h.5c1.8 0 1.4 1 1.4 1 .7 2.8-4.5 5.3-4.5 5.3z" fill="#b594b6"/><path d="M196.8 163l-4 2-.1-.6 3.7-1.7a.7.7 0 0 0 .4.3z" fill="#444053"/><path d="M194.6 169.3s-2.3.4-2.1-1.7a7.2 7.2 0 0 0 2.6-.8 6.1 6.1 0 0 0 2.6-3.8c1.8 0 1.4 1 1.4 1 .7 2.8-4.5 5.3-4.5 5.3z" fill="#b594b6"/><path d="M194.6 169.3s-2.3.4-2.1-1.7a7.2 7.2 0 0 0 2.6-.8 6.1 6.1 0 0 0 2.6-3.8c1.8 0 1.4 1 1.4 1 .7 2.8-4.5 5.3-4.5 5.3z" opacity=".1"/><path d="M177 107.3s-7 1.4-7.3 6.6a5.7 5.7 0 0 1 2.4-.7 3.5 3.5 0 0 0 1.7-.3 9.5 9.5 0 0 1 3.2-5.6z" fill="#fff" opacity=".1"/><path d="M194.2 164.4a4.3 4.3 0 0 0-3.8 5.2c1 3 4.5 3.9 6.9 5.9s3.5 5 3.8 8.2a20 20 0 0 1-5.8 15.8c-2.1 2.1-4.7 3.7-6.8 5.8a34.6 34.6 0 0 0-5.8 9 20.8 20.8 0 0 0-2.6 7.4c-.3 4.3 1.8 8.3 4.3 11.7s5.6 6.4 7.5 10.2a21.4 21.4 0 0 1 1.2 16.7 2 2 0 0 1-.7 1.1.8.8 0 0 1-1.1-.2" fill="none" stroke="#444053" stroke-miterlimit="10"/><path d="M182 163.6a2 2 0 0 0-.1 2.6 3.1 3.1 0 0 0 2.4 1.1c1.1 0 2.4-.3 3.3.3a3 3 0 0 1 1 2.2 11.1 11.1 0 0 0 .3 2.4 4.8 4.8 0 0 0 1 1.8 5.4 5.4 0 0 0 2 1.4c1.7.7 3.6.1 5.3.7 2.3.7 3.5 3 4.2 5.4a15.6 15.6 0 0 1 .5 8.3 29 29 0 0 1-2.3 5.2 11.6 11.6 0 0 0-1.5 5.3 5 5 0 0 0 2.9 4.5" fill="none" stroke="#444053" stroke-miterlimit="10"/><path d="M268.9 263.7l-2 1 2.6 9.3a41.2 41.2 0 0 0 9.7 8c2.8 4.1 15.6 15.8 14 11s-2.4-4-2.4-4 2.8-7.3-4.1-10.6a79.8 79.8 0 0 1-16.2-13l-1.6-1.7z" fill="#efb7b9"/><path d="M307 288.3a16.4 16.4 0 0 1 2.8 3.7 5.5 5.5 0 0 1 .4 4.5c-.3.8-1 1.5-1.3 2.3-1.6 3.8 2.7 8 1.9 12.2-.5 2.5-2.8 4.3-4.8 6s-4 4-3.4 6.6a14 14 0 0 0 1.6 3.3 3.6 3.6 0 0 1 .2 3.5c-1.2 1.8-4.6 1.5-5 3.6-.4 1.9 2.1 3.8 1 5.4a2.3 2.3 0 0 1-2.4.7 18.5 18.5 0 0 0-2.7-.8 3.3 3.3 0 0 0-3.1 5c.5 1 1.5 1.7 1.4 2.8a2.2 2.2 0 0 1-1.2 1.6 4.7 4.7 0 0 1-6.2-1.9c-.9-1.6-.6-3.6-.5-5.4s0-3.9-1.3-5.2a8.5 8.5 0 0 0-2.2-1.3 23.3 23.3 0 0 1-6.2-4.5c-1.6-1.5-3-3.6-2.8-5.8.1-2.5 2.2-4.7 2-7.2s-2.7-4.4-4.8-6-4.4-3.9-3.7-6.4c.8-2.8 4.3-3.6 6-5.8a7.7 7.7 0 0 0 1.4-3c.5-1.8.6-3.7 1-5.6a8 8 0 0 1 2.9-4.8c1.9-1.3 4.4-1.3 6.7-1s4.6 1 6.9.4c1.6-.4 3.1-1.4 4.8-1.7a6.3 6.3 0 0 1 5.7 2c.7 1 .7 1.2 1.9 1.3a4 4 0 0 1 3 1.5z" fill="#925978"/><g opacity=".1"><path d="M303.9 331a8.6 8.6 0 0 1-2.8 1.3 8.3 8.3 0 0 1 2.8-1.4z"/><path d="M295 339.4a3.2 3.2 0 0 0-1 .2 3.4 3.4 0 0 1 2.5-1 18.1 18.1 0 0 1 2.7.7 3.5 3.5 0 0 0 1.1 0 .5.5 0 0 1 0 .2 2.4 2.4 0 0 1-2.5.7 18.6 18.6 0 0 0-2.7-.8z"/><path d="M276.4 289.8l-1 5.6a7.7 7.7 0 0 1-1.3 3c-1.8 2.2-5.3 3-6.1 5.8-.7 2.5 1.5 4.9 3.7 6.4s4.7 3.3 4.9 6-2 4.7-2.1 7.2c-.2 2.2 1.3 4.2 2.8 5.8a23.4 23.4 0 0 0 6.2 4.5 8 8 0 0 1 2.2 1.3c1.3 1.3 1.4 3.4 1.3 5.2s-.3 3.8.5 5.4a4.7 4.7 0 0 0 5.4 2.2 3.2 3.2 0 0 1-.7.5 4.7 4.7 0 0 1-6.2-1.8c-.8-1.6-.6-3.6-.5-5.4s0-4-1.3-5.2a8 8 0 0 0-2.2-1.4 23.6 23.6 0 0 1-6.1-4.4c-1.6-1.6-3-3.6-2.9-5.8.2-2.6 2.3-4.7 2-7.3s-2.6-4.3-4.8-5.9-4.4-3.9-3.7-6.4c.8-2.8 4.4-3.6 6.1-5.8a7.7 7.7 0 0 0 1.3-3c.5-1.8.6-3.8 1-5.6a8 8 0 0 1 3-4.9 5.8 5.8 0 0 1 1-.5 8.3 8.3 0 0 0-2.5 4.5z"/></g><path d="M230.4 314.2l-2-2.8s-3.8 5.3 1.6 8.6.4-5.8.4-5.8z" fill="#4c4981"/><path d="M230.4 314.2l-2-2.8s-3.8 5.3 1.6 8.6.4-5.8.4-5.8z" opacity=".1"/><path d="M212.6 403.1s-.3 5.4-1.2 10.6c-.6 3.7-1.4 7.4-2.6 9-2.7 3.7-2 16-2 16l-3.5 13.8c.3 2.8-1.7 6.5-2.6 8l-.5.8 2.4 4 3.8 1s6.6-2.2 4.6-6.5a6.6 6.6 0 0 1-.4-2.8c0-5.5 3.7-14.9 3.7-14.9s9-17.2 8-20.7a6.5 6.5 0 0 1-.2-1.1c-.2-4 2-10.7 2-10.7z" fill="#efb7b9"/><path d="M153.8 377.5a108 108 0 0 0-18.7 17.4c-2.5 3.4-8.6 7.3-8.6 7.3l-4.3 2.6a5.7 5.7 0 0 0-1.5 1.5 10.6 10.6 0 0 0-.7 1l6.3 7.2 3.6-3c1.9-1.7 4.1-4 4.7-5.5 1.2-2.9 8.1-6.3 8.1-6.3s12.9-7.6 14.4-8.9a25.6 25.6 0 0 1 4.6-3.1l3-1.5a71 71 0 0 0 9.6-5.7l-6-9-11 4.4a8 8 0 0 0-3.6 1.6z" fill="#efb7b9"/><path d="M200.7 460.6l-.4.7 2.3 4 3.8 1s6.6-2.2 4.6-6.5a6.6 6.6 0 0 1-.4-2.7c-2 .4-2.7 3.2-2.7 3.2s-.3 1.2-3.3 2.3c-2 .7-3.3-1-3.9-2z" opacity=".1"/><path d="M200.1 460.3c-.9.7-1.2 4-1.3 6.2l-.1 2.2c0 .5 3.4 1.6 5.5 1s10.6 2 10.6 2a24 24 0 0 0 8.6-1.4c2.8-1 2.5-2.2 1.3-3.2a9.7 9.7 0 0 0-3-1.7 7.3 7.3 0 0 1-3.1-2.5 17.7 17.7 0 0 0-4-3.8c-1.4-1-3-1.7-4-1.6-2.1.4-2.8 3.3-2.8 3.3s-.3 1.2-3.3 2.3-4.3-2.9-4.4-2.8z" fill="#444053"/><path d="M198.8 466.5l-.1 2.2c0 .5 3.4 1.6 5.5 1s10.6 2 10.6 2a24 24 0 0 0 8.6-1.4c2.8-1 2.5-2.2 1.3-3.2-2.2.7-6.6 2-9.3 1.8-3.1-.1-13.8-1.9-16.6-2.4z" opacity=".1"/><path d="M120.9 406.3h-.2a10.6 10.6 0 0 0-.7 1l6.3 7.2 3.6-3c-.5-3.7-8.4-6-8.4-6z" opacity=".1"/><path d="M114.4 408.4s.6 8 2.4 11c1.3 2.3 2.4 2 4.7.8l2.4-1.3c4-2 4-4 4-4 6-5.6-6.8-9.2-6.8-9.2l-.6.7a9 9 0 0 0-4.1 1 12.1 12.1 0 0 0-2 1z" fill="#444053"/><path d="M114.4 408.4s.6 8 2.4 11c1.3 2.3 2.4 2 4.7.8a8 8 0 0 1-4.2-5 24.7 24.7 0 0 1-1-7.9 12.1 12.1 0 0 0-1.9 1.1z" opacity=".1"/><path d="M268.9 300l-10.8 8-2.3 1.6 1.6 5.3 1.6 5.5 4.5 4.8s6.1-.8 9.6-3.8a6.5 6.5 0 0 0 2.3-4.1 6.2 6.2 0 0 1 .4-1.5 5.3 5.3 0 0 1 .9-1.5 6.1 6.1 0 0 1 1.7-1.3c3-1.7 7.5-1.2 7.5-1.2s-1.1-13.8-3.4-11.7c-1.4 1.4-5.2 1-7.6.5l-2.3-.5z" fill="#efb7b9"/><circle cx="288.6" cy="304.4" r="11.4" opacity=".1"/><circle cx="288.9" cy="304.1" r="11.4" fill="#efb7b9"/><path d="M229.5 318c-2.1 1.6-4.7 5.4-4.7 5.4l2.7 16.1 15.4 5.7c1-.8 12-10.3 16.5-8.8 4.6 1.6 13.4-3.6 13.4-3.6s3.7-7.8 4.7-9.5-.8-9-.8-9l-1 1.5a14 14 0 0 1-2.7 3.2 5.8 5.8 0 0 1-4 1.6 4.3 4.3 0 0 0-1 0c-5.5 1-7-4.4-7.5-6.7l-.1-1-2.4-5-1.4-3s-24 12.1-26 12.6a3.3 3.3 0 0 0-1.1.6z" fill="#444053"/><path d="M275.8 315.8a15.3 15.3 0 0 1-1 1.4l3 5a16.6 16.6 0 0 0-.3-3.5z" fill="#925978"/><path d="M274 318a11.8 11.8 0 0 1-1 1l-.2.1 3.6 6 1-1.6z" fill="#fff"/><path d="M270.5 320.3l4.5 7.7.9-1.7-4-6.6a6 6 0 0 1-1.4.6z" fill="#fff"/><path d="M267.6 320.6l6 10.2.9-1.7-5.2-8.6h-.2a4.7 4.7 0 0 0-1.2.1z" fill="#fff"/><path d="M272.7 332.7l-.7.5-7.8-13a5 5 0 0 0 2.2.6L273 332z" fill="#fff"/><path d="M255.4 305.5l5.1 8.5v-.2l-.1-1-2.3-4.8-1.5-3.1z" fill="#925978"/><path d="M253 306.7l16.6 27.6 1.4-.7-16.5-27.6z" fill="#fff"/><path d="M250.7 307.9l16.4 27.5 1.5-.6-16.5-27.6z" fill="#fff"/><path d="M248.3 309l16.2 27.2 1.6-.5-16.4-27.3z" fill="#fff"/><path d="M246 310.3l15.7 26.3a11.8 11.8 0 0 0 1.8-.2l-16.2-26.9z" fill="#fff"/><path d="M243.5 311.4l14.9 24.8a3.3 3.3 0 0 1 1 .2 5 5 0 0 0 1.1.2L245 310.7z" fill="#fff"/><path d="M241.2 312.6l14.4 24.2a10 10 0 0 1 1.6-.5l-14.6-24.4z" fill="#fff"/><path d="M238.8 313.8l14.4 24 1.5-.6-14.5-24.1z" fill="#925978"/><path d="M236.4 315l14.5 24.2 1.4-.8-14.5-24.2z" fill="#925978"/><path d="M234 316l14.7 24.7c.5-.3 1-.6 1.3-1l-14.6-24.3z" fill="#925978"/><path d="M231.6 317.2l15 25 1.2-1-14.8-24.7z" fill="#925978"/><path d="M229.5 318l-.3.3 15.3 25.6 1.3-1-15.2-25.4a3.1 3.1 0 0 0-1.1.6z" fill="#fff"/><path d="M228.4 319l-1.2 1.2L242 345l.9.3.7-.7z" fill="#fff"/><path d="M226.5 321l-1 1.4 12.6 21 2.4.9z" fill="#fff"/><path d="M224.8 323.3v.1l.6 4.1 8.7 14.5 2.4.9z" fill="#fff"/><polygon points="225.93 330.38 226.68 334.71 230.16 340.52 232.54 341.4 225.93 330.38" fill="#925978"/><polygon points="227.17 337.58 227.51 339.54 228.58 339.94 227.17 337.58" fill="#925978"/><path d="M229.5 318a111 111 0 0 0 1.6 4.7l5.6 11.8 12.6-5.4a19.4 19.4 0 0 0 1-6.3c-.1-2.4 1-5.8 7-7.9l1.2-.3a13.1 13.1 0 0 0 2-.8 11.5 11.5 0 0 0 6.3-6.7v-.2l8.3-6a3 3 0 0 0-.2-.3c-1.4-.2-2.3-.5-2.3-.5h-3.8L258 308l-1.4-3.1s-24 12.1-26 12.6a3.3 3.3 0 0 0-1.1.6z" opacity=".1"/><path d="M249.5 293a11.2 11.2 0 0 1-4.3 6.2c-3.4 2.5-3 3.9-3 3.9l-10.3 6.3s-1.8 2.4-3.6 2 2.6 11 2.6 11l5.6 11.8 12.6-5.4a19.4 19.4 0 0 0 1-6.2c-.1-2.6 1.1-6.3 8.2-8.3a11.9 11.9 0 0 0 8.3-7.4v-.3l8.3-5.9a4.6 4.6 0 0 0-3.1-2.3 11 11 0 0 1-1.4-.3c-1.2-.3-1.7-1-1.7-2 0-1.6 0-8-2.9-8.3s-16.3 5.3-16.3 5.3z" fill="#4c4981"/><path d="M270.4 298l-5.2 4.7 1.4 4v-.2l8.3-5.9a4.6 4.6 0 0 0-3.1-2.3 11 11 0 0 1-1.4-.3z" fill="#4c4981"/><path d="M270.4 298l-5.2 4.7 1.4 4v-.2l8.3-5.9a4.6 4.6 0 0 0-3.1-2.3 11 11 0 0 1-1.4-.3z" opacity=".1"/><path d="M268.9 263.7l-2 1 2.6 9.3 2 1.3a119 119 0 0 1-1.3-10h.3l-1.6-1.6z" opacity=".1"/><path d="M251.5 259.1s-3.2 13-1.7 19.7c0 0 1.2 9.7-.3 14.3l15.8-2.5.5-2.9s-2.8-2-3.3-4.5l-1.2-5.2a41.8 41.8 0 0 0-1-7c-.6-1.7 1.9-2 3.7-.9a4.3 4.3 0 0 1 .7.6 2.3 2.3 0 0 0 .6 3 6.6 6.6 0 0 0 2.2 1 21.6 21.6 0 0 0 3.5.6s-1.1-5.6-1.4-8.5c-.1-.9-.1-1.5 0-1.6.5-.4 4.4 3.5 4.4 3.5s.2-4.8-1.9-5.8c0 0-.3 1.3-1.5.8s-13.4-7.3-13.4-7.3-4.6-4-5.7 2.7z" fill="#4c4981"/><path d="M262.4 264.4l1.6 5.8a4.3 4.3 0 0 1 .7.5 2.3 2.3 0 0 0 .6 3 6.6 6.6 0 0 0 2.2 1 22.7 22.7 0 0 0 3 .5s-1.2-5.5-1.5-8.4z" opacity=".1"/><path d="M263 264.5l1.7 6.2a2.3 2.3 0 0 0 .6 3c1.6 1.3 5.7 1.6 5.7 1.6s-1-5.6-1.4-8.5z" fill="#4c4981"/><path d="M263.1 264.4l1.7 6.2a2.3 2.3 0 0 0 .6 3c1.7 1.3 5.8 1.6 5.8 1.6s-1.1-5.6-1.5-8.5z" fill="#fff" opacity=".1"/><path d="M224.1 409.6l-11.5-6.5s-.3 5.4-1.2 10.6c4 2.5 7.7 4.9 10.7 6.5-.3-3.9 2-10.6 2-10.6z" opacity=".1"/><path d="M153.8 377.5a35.7 35.7 0 0 0 4.7 6.3s1.2 1.6 3.2 3.9l3-1.5a71 71 0 0 0 9.6-5.8l-6-9-11 4.5a8 8 0 0 0-3.6 1.6z" opacity=".1"/><path d="M190.5 340.8c-2 3.2-12 14-12 14a55 55 0 0 0-4.6 6.8c-1.8 3.3-7.2 7.4-11.3 11.2s-4.1 1.2-6.6 2.5 4.8 9.1 4.8 9.1 12.3 17 26.3 17.8 34.3 19 42.7 20.9 3.2-3 6.8-4.3 5.4-5.2 5.4-5.2-1.3-9.7-.2-11.8 2.3-10.9 2.3-10.9 0-7.7.6-9 .3-10.3-.1-12.9 1.9-6.4 1.9-6.4-.9-1.3.3-4.4-1-12.9-1-12.9c-18-10.5-21-21.9-21-21.9l-2.3.7c-14.2-3.6-30 13.5-32 16.7z" fill="#444053"/><path d="M222.5 324s1.4 15.3 23.3 21.3c-18-10.5-21-21.9-21-21.9z" opacity=".1"/><path d="M225 350.4s-18.2 29.1-18.6 30.7 19.3-30 18.5-30.8z" opacity=".1"/><path d="M223.3 341.2S209.4 362 206.7 363c0 0 13.3-20 16.6-21.7z" opacity=".1"/><path d="M214.8 336.3s-9.7 7-17.3 6.2z" opacity=".1"/><path d="M212.2 331.8s-9.4 3.9-11.8 3.7z" opacity=".1"/><polygon points="233.7 358.55 234.41 377.84 231 372.15 233.7 358.55" opacity=".1"/><path d="M291.7 294.7c-.2 1.1-.7 2.2-.4 3.2a4.3 4.3 0 0 0 1.3 1.8c1.5 1.3 2.8 3 3 4.9.3 2.8-2 5.3-1.7 8a4.7 4.7 0 0 0 .9 2.4 4.7 4.7 0 0 0 1 1.1 4.6 4.6 0 0 0 3.5.8 5.9 5.9 0 0 0 4.3-4.1 12.3 12.3 0 0 0 0-6.1c-1-5.4-3.5-10.2-6-15a2.3 2.3 0 0 0-.8-1c-1-.6-4.3-.6-5.1 0-1.2 1 1 3.4 0 4z" opacity=".1"/><path d="M292 294.5c-.1 1-.7 2.1-.4 3.2a4.3 4.3 0 0 0 1.4 1.8c1.4 1.3 2.8 3 3 4.9.3 2.8-2 5.3-1.7 8a4.8 4.8 0 0 0 .9 2.4 4.5 4.5 0 0 0 1 1.1 4.6 4.6 0 0 0 3.5.8 5.9 5.9 0 0 0 4.2-4.1 12.2 12.2 0 0 0 .1-6.2c-1-5.3-3.5-10.1-6-15a2.4 2.4 0 0 0-.9-1c-.9-.5-4.2-.5-5 .1-1.3 1 1 3.4 0 4z" fill="#925978"/><path d="M312.2 361.7l-5.7 4.3 2.1 1.5 11.6 8.2s4 8.3 11 6-4-9.4-4.8-9.7-2.2-1.1-2.2-1.1L314 363z" fill="#efb7b9"/><path d="M312.2 361.7l-5.7 4.3 2.1 1.5c2.7-1.7 5-3.5 5.4-4.5z" opacity=".1"/><path d="M246.6 325l-12.3 8L243 345c.9-.7 12-10.3 16.4-8.8 4.6 1.6 13.4-3.6 13.4-3.6s3.7-7.8 4.7-9.5-.8-9-.8-9a6.1 6.1 0 0 1 1.7-1.2 8.1 8.1 0 0 0-1.7 0c-2.4 1.1-3.6 2.8-3.7 6V321.5c.7 4.9-1.5 7-1.5 7a10.8 10.8 0 0 1-6.1 5c-4.3 1.3-18.8-8.7-18.8-8.7z" opacity=".1"/><path d="M247 325.7l-12.2 8 9.7 13.7s4.8-2.6 6.4-4.6 9.6-5.1 9.6-5.1c9.7 3.4 13.9-2.4 13.9-2.4s11.2 17.5 12 17.6 6.8 4.8 6.8 4.8 4.7 6.1 6.1 6.6a8.7 8.7 0 0 1 1.5.7 3 3 0 0 1 .4.3l-4.1 2.4a1 1 0 0 0 0 .1h.1a6.7 6.7 0 0 0 2.5 2.6c1.9 1 14.1-6.6 13.9-8.3a1.9 1.9 0 0 0-.4-1 10.3 10.3 0 0 0-3.2-2.4l-.3-.2s-7.2-7.1-9.4-8.2-10-13.4-10-13.4-4-5.3-3.5-6.5-2-10.8-3.7-11-2.3-2.4-2.3-2.4c1-2.2 0-3-1.3-3.2a7.7 7.7 0 0 0-2.3 0c-2.6 1.2-3.9 3-3.8 6.8l.2 1.7c.6 5-1.6 7-1.6 7a10.8 10.8 0 0 1-6.1 5c-4.4 1.3-18.8-8.6-18.8-8.6z" fill="#4c4981"/><path d="M313.2 361.2a1.4 1.4 0 0 1 .2.5c.2 1.7-12 9.4-14 8.3a6.8 6.8 0 0 1-2.2-2.1v-.1a1 1 0 0 1-.1-.1l4-2.4a3 3 0 0 0-.3-.3l.2-.1a12.3 12.3 0 0 0 8.7-6.4z" opacity=".1"/><path d="M301.2 365.3l-4.1 2.3a6.6 6.6 0 0 0 2.6 2.8c1.9 1 14-6.6 13.9-8.3-.2-1.4-2.6-2.8-3.6-3.4a12.3 12.3 0 0 1-8.8 6.6z" fill="#4c4981"/><path d="M301.2 365.3l-4.1 2.3a6.6 6.6 0 0 0 2.6 2.8c1.9 1 14-6.6 13.9-8.3-.2-1.4-2.6-2.8-3.6-3.4a12.3 12.3 0 0 1-8.8 6.6z" fill="#fff" opacity=".1"/><path d="M273.4 320.6l3 1.3 3-8.1a7.7 7.7 0 0 0-2.3 0c-2.6 1.2-3.8 3-3.7 6.8z" fill="#4c4981"/><path d="M273.5 320.5l3 1.3 3-8a7.7 7.7 0 0 0-2.2 0c-2.6 1.1-3.9 3-3.8 6.7z" opacity=".1"/><path d="M292.9 294c-.2 1.1-.8 2.2-.5 3.2a4.3 4.3 0 0 0 1.4 1.9c1.4 1.3 2.7 2.9 3 4.8.2 2.8-2 5.4-1.8 8.1a4.7 4.7 0 0 0 .9 2.4 4.6 4.6 0 0 0 1 1 4.6 4.6 0 0 0 3.5.8 4.2 4.2 0 0 0 1.2-.4 4.8 4.8 0 0 1-2 .8 4.6 4.6 0 0 1-4.5-1.8 4.8 4.8 0 0 1-.9-2.4c-.2-2.7 2-5.3 1.8-8-.2-2-1.6-3.6-3-5a4.2 4.2 0 0 1-1.4-1.7c-.3-1 .3-2.1.5-3.2 1-.6-1.3-3-.1-4a1.9 1.9 0 0 1 .5-.3c-.6 1.1 1.3 3.3.4 3.9z" opacity=".1"/><path d="M266.7 316s-4 .3-4.4 2.3c0 0 3.8-3.6 3.2-4.5" opacity=".1"/><path d="M332 376.4s-10-4.8-8.7 1.3 8.7-1.3 8.7-1.3z" fill="#efb7b9"/><rect x="366.9" y="355.4" width="10.5" height="118" transform="rotate(-24.6 306.5 477.5)" fill="#b594b6"/><path d="M192.4 164.8c-1.9 4.1-6.4 7.7-5 12 .6 2.2 2.7 3.7 4.7 4.9 4.6 2.9 9.3 5.9 12.6 10.2s5.1 10.1 3.2 15.2c-1.3 3.5-4.2 6.1-5.8 9.5a19.9 19.9 0 0 0-1.1 13.3 46.1 46.1 0 0 0 5.5 12.5c.8 1.5 1.8 3 3.4 3.6a11.9 11.9 0 0 0 3.6.3c4.3.2 8 3 10.3 6.6s3.2 7.8 3.7 12c.2 2.1.3 4.4 1.5 6.2 1.7 2.4 5 3.2 7.9 3.7A99 99 0 0 0 260 276" fill="none" stroke="#444053" stroke-miterlimit="10"/><rect x="248.3" y="269.8" width="13.8" height="9.1" rx="4.5" ry="4.5" fill="#444053"/></svg>