<?xml version="1.0"?>
<svg xmlns="http://www.w3.org/2000/svg" height="50px" viewBox="-31 0 512 512" width="50px" class=""><g><path d="m30 316c-16.570312 0-30 13.429688-30 30 0 16.566406 13.429688 30 30 30h59l-14 106c0 16.566406 13.429688 30 30 30s30-13.433594 30-30l14-106h120l-14 106c0 16.566406 13.429688 30 30 30s30-13.433594 30-30l14-106h61c16.570312 0 30-13.433594 30-30 0-16.570312-13.429688-30-30-30h-53l16-120h67c16.570312 0 30-13.433594 30-30 0-16.570312-13.429688-30-30-30h-59l14-106c0-16.570312-13.429688-30-30-30s-30 13.429688-30 30l-14 106h-120l14-106c0-16.570312-13.429688-30-30-30s-30 13.429688-30 30l-14 106h-61c-16.570312 0-30 13.429688-30 30 0 16.566406 13.429688 30 30 30h53l-16 120zm143-120h120l-16 120h-120zm0 0" data-original="#000000" class="active-path" data-old_color="#000000" fill="#FFFFFF"/></g> </svg>
