<svg width="512" height="512" viewBox="0 0 512 512" fill="none" xmlns="http://www.w3.org/2000/svg">
<path d="M236 126C230.48 126 226 130.48 226 136C226 141.52 230.48 146 236 146C241.52 146 246 141.52 246 136C246 130.48 241.52 126 236 126Z" fill="#31344B"/>
<path d="M406 246C422.542 246 436 232.542 436 216V196C436 179.458 422.542 166 406 166H396V156C396 118.953 367.066 88.554 330.612 86.169C322.013 37.033 319.627 23.269 319.49 22.719C316.138 9.342 304.167 0 290.38 0H181.62C167.833 0 155.862 9.342 152.51 22.719C152.372 23.269 149.987 37.033 141.388 86.169C104.934 88.554 76 118.953 76 156V356C76 393.047 104.934 423.446 141.388 425.831L152.36 488.572C152.402 488.81 152.452 489.046 152.51 489.28C155.862 502.658 167.833 512 181.62 512H290.38C304.167 512 316.138 502.658 319.49 489.281C319.549 489.047 319.598 488.81 319.64 488.573L330.612 425.832C367.066 423.446 396 393.047 396 356V346H406C422.542 346 436 332.542 436 316V296C436 279.458 422.542 266 406 266H396V246H406ZM396 186H406C411.514 186 416 190.486 416 196V216C416 221.514 411.514 226 406 226H396V186ZM171.987 27.29C173.204 22.982 177.122 20 181.62 20H290.38C294.878 20 298.796 22.982 300.013 27.29L310.279 86H161.721L171.987 27.29ZM300.013 484.71C298.796 489.018 294.878 492 290.38 492H181.62C177.122 492 173.204 489.018 171.987 484.71L161.721 426H310.279L300.013 484.71ZM376 356C376 383.57 353.57 406 326 406H146C118.43 406 96 383.57 96 356V156C96 128.43 118.43 106 146 106C155.682 106 315.804 106 326 106C353.57 106 376 128.43 376 156C376 186.186 376 323.933 376 356ZM406 286C411.514 286 416 290.486 416 296V316C416 321.514 411.514 326 406 326H396V286H406Z" fill="#31344B"/>
<path d="M326 126H276C270.478 126 266 130.477 266 136C266 141.523 270.478 146 276 146H326C331.514 146 336 150.486 336 156V246H286C281.695 246 277.874 248.754 276.513 252.838L266 284.377L255.487 252.837C254.126 248.754 250.305 246 246 246H233.808L215.702 173.575C214.589 169.123 210.589 166 206 166C201.411 166 197.411 169.123 196.299 173.575L178.192 246H136V156C136 150.486 140.486 146 146 146H176C181.522 146 186 141.523 186 136C186 130.477 181.522 126 176 126H146C129.458 126 116 139.458 116 156V356C116 372.542 129.458 386 146 386H326C342.542 386 356 372.542 356 356V156C356 139.458 342.542 126 326 126ZM336 356C336 361.514 331.514 366 326 366H146C140.486 366 136 361.514 136 356V266H186C190.589 266 194.589 262.877 195.701 258.425L206 217.231L216.299 258.425C217.411 262.877 221.411 266 226 266H238.792L256.513 319.162C257.874 323.245 261.696 326 266 326C270.304 326 274.126 323.246 275.487 319.162L293.208 266H336V356Z" fill="#31344B"/>
</svg>
