<svg width="512" height="512" viewBox="0 0 512 512" fill="none" xmlns="http://www.w3.org/2000/svg">
<g clip-path="url(#clip0)">
<path d="M306.754 194.688H213.41C205.637 194.688 199.148 200.633 198.469 208.379L190.301 301.727C189.934 305.918 191.344 310.066 194.184 313.168C197.027 316.27 201.039 318.031 205.246 318.031H298.59C306.367 318.031 312.855 312.09 313.535 304.34L321.699 210.996C322.066 206.805 320.656 202.656 317.816 199.555C314.973 196.453 310.961 194.688 306.754 194.688ZM284.844 288.035H221.613L227.156 224.688H290.387L284.844 288.035Z" fill="#31344B"/>
<path d="M454.551 224.688C468.711 224.688 482.438 219.235 493.203 209.336C503.953 199.453 510.555 186.227 511.789 172.102C513.07 157.446 508.484 143.598 498.875 133.11C489.297 122.656 475.973 116.903 461.324 116.903H407.719L412.414 63.2034C413.699 48.5432 409.113 34.6956 399.5 24.2073C389.926 13.7581 376.602 8.00024 361.984 8.00024C347.824 8.00024 334.098 13.4534 323.332 23.3518C312.582 33.2346 305.98 46.4573 304.746 60.5862L299.816 116.903H236.586L241.285 63.1995C242.566 48.5432 237.98 34.6956 228.371 24.2034C218.793 13.7542 205.469 8.00024 190.852 8.00024C176.691 8.00024 162.965 13.4495 152.199 23.3479C141.449 33.2346 134.852 46.4573 133.613 60.5862L128.688 116.899H72.4219C58.2617 116.899 44.5352 122.352 33.7695 132.25C23.0195 142.137 16.418 155.36 15.1836 169.489C13.9024 184.145 18.4922 197.996 28.1016 208.485C37.6797 218.934 51 224.688 65.6172 224.688H119.254L113.711 288.035H57.4492C43.2891 288.035 29.5625 293.485 18.7969 303.383C8.04689 313.27 1.44923 326.492 0.210951 340.617C-1.0703 355.278 3.51564 369.125 13.1289 379.614C22.7031 390.063 36.0274 395.817 50.6445 395.817H104.285L99.586 449.52C98.3047 464.176 102.891 478.024 112.504 488.516C122.078 498.965 135.402 504.719 150.02 504.719C164.18 504.719 177.906 499.27 188.668 489.371C199.422 479.485 206.023 466.262 207.258 452.137C207.266 452.063 207.273 451.989 207.277 451.914L212.184 395.817L275.414 395.821L270.719 449.516C269.434 464.176 274.023 478.024 283.633 488.512C293.207 498.965 306.531 504.719 321.148 504.719C335.309 504.719 349.035 499.27 359.801 489.371C370.551 479.485 377.152 466.262 378.391 452.133C378.395 452.09 378.398 452.043 378.402 451.996L383.316 395.821H439.582C439.699 395.821 439.816 395.821 439.934 395.817C453.969 395.727 467.559 390.285 478.234 380.469C488.984 370.582 495.586 357.36 496.82 343.235C498.102 328.578 493.516 314.731 483.902 304.239C474.328 293.789 461.004 288.035 446.355 288.035H392.746L398.289 224.688H454.551ZM365.312 313.168C368.156 316.27 372.168 318.035 376.375 318.035H446.383C452.488 318.035 457.957 320.332 461.785 324.508C465.645 328.723 467.473 334.442 466.934 340.617C465.738 354.278 453.211 365.817 439.578 365.817C439.48 365.817 439.383 365.821 439.281 365.821H369.57C361.793 365.821 355.305 371.766 354.629 379.512L348.504 449.489C348.504 449.531 348.5 449.571 348.496 449.61C347.25 463.231 334.75 474.719 321.148 474.719C315.043 474.719 309.574 472.422 305.75 468.246C301.891 464.031 300.059 458.309 300.602 452.133L306.727 382.129C307.094 377.938 305.684 373.789 302.844 370.688C300 367.586 295.988 365.821 291.781 365.821L198.438 365.817C190.66 365.817 184.172 371.762 183.496 379.512L177.375 449.489C177.367 449.551 177.363 449.61 177.359 449.668C176.086 463.262 163.598 474.723 150.02 474.723C143.914 474.723 138.445 472.422 134.617 468.246C130.758 464.035 128.93 458.313 129.473 452.133L135.598 382.125C135.965 377.938 134.555 373.785 131.715 370.684C128.871 367.586 124.859 365.821 120.652 365.821H50.6445C44.5391 365.821 39.0703 363.52 35.2461 359.348C31.3867 355.133 29.5547 349.41 30.0977 343.235C31.293 329.574 43.8164 318.035 57.4492 318.035H127.457C135.234 318.035 141.723 312.09 142.398 304.344L150.566 210.996C150.934 206.809 149.523 202.656 146.684 199.555C143.844 196.457 139.828 194.692 135.625 194.692H65.6172C59.5117 194.692 54.043 192.391 50.2188 188.219C46.3594 184.004 44.5274 178.281 45.0703 172.106C46.2656 158.442 58.793 146.903 72.4219 146.903H142.43C150.207 146.903 156.695 140.957 157.371 133.211L163.5 63.2034C164.695 49.5432 177.219 38.0042 190.852 38.0042C196.957 38.0042 202.426 40.301 206.25 44.4768C210.109 48.6877 211.941 54.4104 211.398 60.5862L205.273 130.594C204.906 134.785 206.316 138.938 209.156 142.035C211.996 145.137 216.012 146.903 220.215 146.903H313.559C321.336 146.903 327.824 140.957 328.504 133.211L334.629 63.2034C335.824 49.5432 348.352 38.0042 361.984 38.0042C368.086 38.0042 373.559 40.301 377.383 44.4768C381.242 48.6877 383.07 54.4104 382.531 60.5862L376.406 130.594C376.039 134.785 377.449 138.934 380.289 142.035C383.129 145.137 387.141 146.903 391.348 146.903H461.359C467.461 146.903 472.93 149.203 476.754 153.375C480.617 157.59 482.445 163.313 481.902 169.489C480.711 183.153 468.184 194.692 454.551 194.692H384.539C376.766 194.692 370.277 200.637 369.598 208.383L361.43 301.731C361.062 305.918 362.473 310.067 365.312 313.168Z" fill="#31344B"/>
</g>
<defs>
<clipPath id="clip0">
<rect width="512" height="512" fill="white"/>
</clipPath>
</defs>
</svg>
