<svg width="512" height="512" viewBox="0 0 512 512" fill="none" xmlns="http://www.w3.org/2000/svg">
<g clip-path="url(#clip0)">
<path d="M396.587 512C398.784 512 498.176 511.979 496 511.979C504.832 511.979 512 504.811 512 495.979C504.533 328.363 551.296 151.488 376.789 151.488C343.232 151.488 316.501 162.944 297.237 178.091C297.237 146.923 263.552 164.16 185.792 159.531C176.96 159.531 169.792 166.699 169.792 175.531C176.235 477.739 155.413 511.979 185.792 511.979H285.205C314.069 511.979 295.701 471.275 301.205 337.301C301.205 281.963 317.205 271.125 344.853 271.125C375.445 271.125 380.587 292.373 380.587 339.989C386.069 471.552 367.829 512 396.587 512ZM344.853 239.125C249.045 239.125 269.205 344.469 269.205 479.979H201.792V191.531H265.237V219.221C265.237 234.581 288.64 242.133 296.789 226.688C307.285 206.763 334.549 183.488 376.789 183.488C452.032 183.488 480 220.459 480 319.936V480H412.587C412.587 327.595 428.715 239.125 344.853 239.125Z" fill="#31344B"/>
<path d="M23.936 159.552C-6.35733 159.552 14.3787 193.365 7.936 496C7.936 504.832 15.104 512 23.936 512H123.456C153.749 512 133.013 478.187 139.456 175.552C139.456 147.925 99.328 164.224 23.936 159.552ZM107.456 480H39.936V191.552H107.456V480Z" fill="#31344B"/>
<path d="M73.6427 0C-23.9787 0 -23.3813 147.819 73.6427 147.819C170.603 147.819 171.371 0 73.6427 0ZM73.6427 115.819C18.8587 115.819 18.3467 32 73.6427 32C129.045 32 128.341 115.819 73.6427 115.819Z" fill="#31344B"/>
</g>
<defs>
<clipPath id="clip0">
<rect width="512" height="512" fill="white"/>
</clipPath>
</defs>
</svg>
