<svg width="512" height="512" viewBox="0 0 512 512" fill="none" xmlns="http://www.w3.org/2000/svg">
<path d="M315.077 339.026C309.635 339.026 305.231 343.43 305.231 348.872V462.19C305.231 478.43 292.981 492.308 276.664 492.308H50.298C33.981 492.308 19.692 478.373 19.692 462.056V235.69C19.692 219.373 33.932 206.769 50.173 206.769H163.481C168.923 206.769 173.327 202.365 173.327 196.923C173.327 191.481 168.923 187.077 163.481 187.077H50.173C23.067 187.077 0 208.517 0 235.69V462.055C0 489.228 23.125 512 50.298 512H276.663C303.836 512 324.923 489.286 324.923 462.19V348.873C324.923 343.43 320.519 339.026 315.077 339.026Z" fill="#B594B6"/>
<path d="M463.875 0H237.25C210.144 0 187.077 21.44 187.077 48.613V274.979C187.077 302.152 210.202 324.924 237.375 324.924H463.74C490.913 324.924 512 302.21 512 275.114V48.488C512 21.382 490.971 0 463.875 0ZM492.308 275.113C492.308 291.353 480.058 305.231 463.741 305.231H237.375C221.058 305.231 206.769 291.296 206.769 274.979V48.613C206.769 32.296 221.01 19.692 237.25 19.692H463.875C480.116 19.692 492.308 32.247 492.308 48.488V275.113Z" fill="#B594B6"/>
</svg>
