<svg width="512" height="512" viewBox="0 0 512 512" fill="none" xmlns="http://www.w3.org/2000/svg">
<g clip-path="url(#clip0)">
<path d="M224 512C218.112 512 213.333 507.221 213.333 501.333V416C213.333 410.112 218.112 405.333 224 405.333C229.888 405.333 234.666 410.112 234.666 416V501.333C234.666 507.221 229.888 512 224 512Z" fill="#B594B6"/>
<path d="M288 512C282.112 512 277.333 507.221 277.333 501.333V416C277.333 410.112 282.112 405.333 288 405.333C293.888 405.333 298.666 410.112 298.666 416V501.333C298.666 507.221 293.888 512 288 512Z" fill="#B594B6"/>
<path d="M352 512H160C154.112 512 149.333 507.221 149.333 501.333C149.333 495.445 154.112 490.667 160 490.667H352C357.888 490.667 362.666 495.445 362.666 501.333C362.666 507.221 357.888 512 352 512Z" fill="#B594B6"/>
<path d="M480 426.667H32C14.3573 426.667 0 412.309 0 394.667V117.333C0 99.6906 14.3573 85.3333 32 85.3333H117.333C123.221 85.3333 128 90.112 128 96C128 101.888 123.221 106.667 117.333 106.667H32C26.1333 106.667 21.3333 111.445 21.3333 117.333V394.667C21.3333 400.555 26.1333 405.333 32 405.333H480C485.867 405.333 490.667 400.555 490.667 394.667V117.333C490.667 111.445 485.867 106.667 480 106.667H458.667C452.779 106.667 448 101.888 448 96C448 90.112 452.779 85.3333 458.667 85.3333H480C497.643 85.3333 512 99.6906 512 117.333V394.667C512 412.309 497.643 426.667 480 426.667Z" fill="#B594B6"/>
<path d="M272.192 252.544C269.462 252.544 266.731 251.499 264.64 249.429L187.904 172.693C183.872 168.683 183.702 162.219 187.52 158.016L250.39 88.2347C295.019 36.672 365.824 1.13067 426.454 0C430.016 0.0426667 432.171 1.088 434.198 3.11467C436.246 5.16267 437.376 7.95733 437.312 10.8587C436.16 71.488 400.64 142.315 348.907 187.093L279.296 249.813C277.291 251.648 274.731 252.544 272.192 252.544ZM210.155 164.779L272.576 227.2L334.827 171.115C379.115 132.779 410.411 74.24 415.339 21.9947C363.115 26.944 304.598 58.2187 266.39 102.357L210.155 164.779Z" fill="#B594B6"/>
<path d="M300.885 303.147C299.925 303.147 298.944 303.019 297.984 302.741C294.25 301.696 291.392 298.731 290.496 294.955L275.434 232.021C274.069 226.283 277.61 220.544 283.328 219.157C289.088 217.749 294.826 221.333 296.192 227.051L306.197 268.821C324.714 239.851 328.426 202.752 328.81 181.035C328.917 175.168 334.101 170.859 339.669 170.56C345.536 170.667 350.229 175.552 350.122 181.419C349.226 231.893 334.421 274.005 308.416 300.011C306.389 302.059 303.658 303.147 300.885 303.147Z" fill="#B594B6"/>
<path d="M207.787 162.197C206.976 162.197 206.144 162.112 205.312 161.899L142.379 146.816C138.603 145.92 135.637 143.083 134.592 139.349C133.547 135.637 134.592 131.648 137.323 128.917C163.328 102.912 205.419 88.1066 255.915 87.2106C261.483 87.5093 266.667 91.7973 266.773 97.6853C266.88 103.573 262.187 108.437 256.299 108.544C234.581 108.928 197.504 112.619 168.533 131.157L210.304 141.163C216.043 142.528 219.584 148.288 218.197 154.027C217.003 158.912 212.629 162.197 207.787 162.197Z" fill="#B594B6"/>
<path d="M128 320C125.206 320 122.475 318.912 120.448 316.885C117.675 314.112 116.651 310.037 117.782 306.283C121.302 294.507 139.584 235.072 153.92 220.736C171.222 203.456 199.296 203.456 216.598 220.736C233.878 238.016 233.856 266.133 216.598 283.413C202.262 297.728 142.827 316.053 131.051 319.573C130.07 319.851 129.024 320 128 320ZM185.28 229.099C179.414 229.099 173.504 231.317 169.024 235.797C162.987 241.856 152.534 268.587 144.406 292.928C168.768 284.779 195.499 274.368 201.536 268.309C210.475 259.349 210.475 244.757 201.536 235.819C197.035 231.339 191.168 229.099 185.28 229.099ZM209.067 275.861H209.28H209.067Z" fill="#B594B6"/>
</g>
<defs>
<clipPath id="clip0">
<rect width="512" height="512" fill="white"/>
</clipPath>
</defs>
</svg>
