<svg width="512" height="512" viewBox="0 0 512 512" fill="none" xmlns="http://www.w3.org/2000/svg">
<path d="M369.164 174.77C376.977 182.582 376.977 195.246 369.164 203.055L234.992 337.23C227.18 345.039 214.52 345.039 206.707 337.23L142.836 273.355C135.023 265.547 135.023 252.883 142.836 245.074C150.645 237.262 163.309 237.262 171.117 245.074L220.848 294.805L340.879 174.77C348.691 166.961 361.355 166.961 369.164 174.77ZM512 256C512 397.504 397.484 512 256 512C114.496 512 0 397.484 0 256C0 114.496 114.516 0 256 0C397.504 0 512 114.516 512 256ZM472 256C472 136.605 375.379 40 256 40C136.605 40 40 136.621 40 256C40 375.395 136.621 472 256 472C375.395 472 472 375.379 472 256Z" fill="#31344B"/>
</svg>
