<?xml version="1.0" standalone="no"?><svg xmlns="http://www.w3.org/2000/svg" viewBox="0 0 1440 320"><path fill="#3f88c5" fill-opacity="1" d="M0,224L6.5,192C13,160,26,96,39,64C51.9,32,65,32,78,32C90.8,32,104,32,117,64C129.7,96,143,160,156,176C168.6,192,182,160,195,170.7C207.6,181,221,235,234,261.3C246.5,288,259,288,272,240C285.4,192,298,96,311,101.3C324.3,107,337,213,350,213.3C363.2,213,376,107,389,96C402.2,85,415,171,428,192C441.1,213,454,171,467,160C480,149,493,171,506,192C518.9,213,532,235,545,218.7C557.8,203,571,149,584,128C596.8,107,610,117,623,112C635.7,107,649,85,662,117.3C674.6,149,688,235,701,240C713.5,245,726,171,739,165.3C752.4,160,765,224,778,245.3C791.4,267,804,245,817,208C830.3,171,843,117,856,101.3C869.2,85,882,107,895,144C908.1,181,921,235,934,234.7C947,235,960,181,973,160C985.9,139,999,149,1012,138.7C1024.9,128,1038,96,1051,101.3C1063.8,107,1077,149,1090,160C1102.7,171,1116,149,1129,165.3C1141.6,181,1155,235,1168,229.3C1180.5,224,1194,160,1206,133.3C1219.5,107,1232,117,1245,117.3C1258.4,117,1271,107,1284,106.7C1297.3,107,1310,117,1323,122.7C1336.2,128,1349,128,1362,117.3C1375.1,107,1388,85,1401,117.3C1414.1,149,1427,235,1434,277.3L1440,320L1440,0L1433.5,0C1427,0,1414,0,1401,0C1388.1,0,1375,0,1362,0C1349.2,0,1336,0,1323,0C1310.3,0,1297,0,1284,0C1271.4,0,1258,0,1245,0C1232.4,0,1219,0,1206,0C1193.5,0,1181,0,1168,0C1154.6,0,1142,0,1129,0C1115.7,0,1103,0,1090,0C1076.8,0,1064,0,1051,0C1037.8,0,1025,0,1012,0C998.9,0,986,0,973,0C960,0,947,0,934,0C921.1,0,908,0,895,0C882.2,0,869,0,856,0C843.2,0,830,0,817,0C804.3,0,791,0,778,0C765.4,0,752,0,739,0C726.5,0,714,0,701,0C687.6,0,675,0,662,0C648.6,0,636,0,623,0C609.7,0,597,0,584,0C570.8,0,558,0,545,0C531.9,0,519,0,506,0C493,0,480,0,467,0C454.1,0,441,0,428,0C415.1,0,402,0,389,0C376.2,0,363,0,350,0C337.3,0,324,0,311,0C298.4,0,285,0,272,0C259.5,0,246,0,234,0C220.5,0,208,0,195,0C181.6,0,169,0,156,0C142.7,0,130,0,117,0C103.8,0,91,0,78,0C64.9,0,52,0,39,0C25.9,0,13,0,6,0L0,0Z"></path></svg>