<svg width="79" height="76" viewBox="0 0 79 76" fill="none" xmlns="http://www.w3.org/2000/svg">
<circle cx="40" cy="38" r="37" fill="#DA2C38"/>
<circle cx="40" cy="38" r="37" fill="url(#paint0_linear)"/>
<circle cx="36.5" cy="38.5" r="33.5" fill="url(#paint1_linear)"/>
<circle cx="33" cy="38" r="30" fill="url(#paint2_linear)"/>
<g filter="url(#filter0_di)">
<path d="M26.6904 24.584L26.8369 27.9043C28.8551 25.3652 31.4919 24.0957 34.7471 24.0957C40.3298 24.0957 43.1455 27.2451 43.1943 33.5439V51H38.6777V33.5195C38.6615 31.6152 38.222 30.2074 37.3594 29.2959C36.513 28.3844 35.1865 27.9287 33.3799 27.9287C31.915 27.9287 30.6292 28.3193 29.5225 29.1006C28.4157 29.8818 27.5531 30.9072 26.9346 32.1768V51H22.418V24.584H26.6904Z" fill="white"/>
</g>
<defs>
<filter id="filter0_di" x="22.418" y="24.0957" width="24.7764" height="30.9043" filterUnits="userSpaceOnUse" color-interpolation-filters="sRGB">
<feFlood flood-opacity="0" result="BackgroundImageFix"/>
<feColorMatrix in="SourceAlpha" type="matrix" values="0 0 0 0 0 0 0 0 0 0 0 0 0 0 0 0 0 0 127 0"/>
<feOffset dx="2" dy="2"/>
<feGaussianBlur stdDeviation="1"/>
<feColorMatrix type="matrix" values="0 0 0 0 0 0 0 0 0 0 0 0 0 0 0 0 0 0 0.58 0"/>
<feBlend mode="normal" in2="BackgroundImageFix" result="effect1_dropShadow"/>
<feBlend mode="normal" in="SourceGraphic" in2="effect1_dropShadow" result="shape"/>
<feColorMatrix in="SourceAlpha" type="matrix" values="0 0 0 0 0 0 0 0 0 0 0 0 0 0 0 0 0 0 127 0" result="hardAlpha"/>
<feOffset dx="2" dy="2"/>
<feGaussianBlur stdDeviation="1"/>
<feComposite in2="hardAlpha" operator="arithmetic" k2="-1" k3="1"/>
<feColorMatrix type="matrix" values="0 0 0 0 0 0 0 0 0 0 0 0 0 0 0 0 0 0 0.1 0"/>
<feBlend mode="normal" in2="shape" result="effect2_innerShadow"/>
</filter>
<linearGradient id="paint0_linear" x1="6" y1="38" x2="84.5" y2="31.5" gradientUnits="userSpaceOnUse">
<stop stop-color="white" stop-opacity="0"/>
<stop offset="1" stop-color="white" stop-opacity="0.82"/>
</linearGradient>
<linearGradient id="paint1_linear" x1="7" y1="39" x2="77.5" y2="35.5" gradientUnits="userSpaceOnUse">
<stop stop-color="white" stop-opacity="0"/>
<stop offset="1" stop-color="white" stop-opacity="0.37"/>
</linearGradient>
<linearGradient id="paint2_linear" x1="3" y1="42.5" x2="79" y2="38" gradientUnits="userSpaceOnUse">
<stop stop-color="white" stop-opacity="0.1"/>
<stop offset="1" stop-color="white" stop-opacity="0.89"/>
</linearGradient>
</defs>
</svg>
