<svg width="1437" height="954" viewBox="0 0 1437 954" fill="none" xmlns="http://www.w3.org/2000/svg">
<path d="M1373.48 423.938H1217.37C1229.23 392.47 1236.04 359.007 1237.29 324.652C1240.16 245.787 1213.59 169.45 1162.5 109.705C1154.94 100.872 1141.66 99.8335 1132.83 107.39C1123.99 114.943 1122.96 128.226 1130.51 137.059C1174.73 188.76 1197.71 254.839 1195.23 323.126C1192.74 391.76 1164.64 456.321 1116.1 504.91C1116 505.014 1115.9 505.118 1115.8 505.225C1114.38 506.703 972.721 654.52 856.701 771.893C848.53 780.159 848.609 793.484 856.875 801.652C860.977 805.707 866.322 807.729 871.667 807.729C877.094 807.729 882.52 805.642 886.634 801.478C980.541 706.474 1091.15 591.632 1130.96 550.203H1373.48C1408.29 550.203 1436.61 521.883 1436.61 487.07C1436.61 452.258 1408.29 423.938 1373.48 423.938ZM1373.48 508.115H1169.55C1180.13 494.809 1189.57 480.732 1197.79 466.026H1373.48C1385.08 466.026 1394.52 475.465 1394.52 487.07C1394.52 498.676 1385.08 508.115 1373.48 508.115Z" fill="#31344B"/>
<path d="M793.484 835.292C749.474 878.926 728.323 898.463 718.222 907.206C669.677 865.483 469.48 660.126 335.819 520.87L482.951 373.741L763.085 653.872C775.01 665.797 790.86 672.365 807.727 672.365C824.593 672.365 840.446 665.797 852.368 653.874L976.871 529.372C1001.49 504.759 1001.49 464.705 976.871 440.091C964.946 428.166 949.092 421.598 932.229 421.598C915.366 421.598 899.51 428.166 887.588 440.091L807.727 519.953L527.593 239.822C515.668 227.897 499.815 221.328 482.951 221.328C466.088 221.328 450.232 227.897 438.31 239.822L366.65 311.481C358.432 319.699 358.432 333.025 366.65 341.24C374.869 349.459 388.194 349.459 396.409 341.24L468.069 269.581C472.045 265.605 477.325 263.416 482.948 263.416C488.569 263.416 493.852 265.605 497.828 269.581L792.844 564.594C801.063 572.812 814.388 572.812 822.603 564.594L917.347 469.851C921.323 465.875 926.603 463.686 932.226 463.686C937.849 463.686 943.13 465.875 947.106 469.851C955.31 478.055 955.31 491.405 947.106 499.61L822.601 624.115C818.627 628.091 813.344 630.277 807.721 630.277C802.098 630.277 796.814 628.088 792.841 624.112L497.828 329.099C489.61 320.881 476.284 320.881 468.069 329.099L305.288 491.877C301.312 495.853 296.029 498.041 290.409 498.041H63.1324C51.5272 498.041 42.0882 488.6 42.0882 476.997C42.0882 465.392 51.5272 455.953 63.1324 455.953H272.976C278.557 455.953 283.91 453.736 287.855 449.789L333.044 404.6C341.263 396.381 341.263 383.056 333.044 374.841C324.826 366.622 311.501 366.622 303.285 374.841L264.258 413.865H260.526C220.719 314.018 244.014 198.062 320.505 121.478C371.653 70.2818 439.648 42.0882 511.973 42.0882H511.989C584.303 42.091 652.286 70.2874 703.418 121.475C707.366 125.426 712.722 127.648 718.309 127.648C723.895 127.648 729.249 125.426 733.2 121.475C777.372 77.2487 833.482 50.3375 895.464 43.6567C955.675 37.1695 1016.95 51.1737 1067.98 83.1074C1077.83 89.272 1090.82 86.2809 1096.98 76.4322C1103.15 66.578 1100.16 53.5952 1090.31 47.4306C1031.31 10.5136 960.515 -5.68471 890.952 1.81541C827.101 8.70105 766.539 35.4663 718.328 77.765C661.237 27.4724 588.727 0.00280588 511.992 0C511.984 0 511.984 0 511.973 0C428.405 0 349.826 32.5791 290.726 91.7327C206.328 176.232 178.008 302.227 215.711 413.865H63.1324C28.3198 413.865 0 442.185 0 476.997C0 511.81 28.3198 540.13 63.1324 540.13H290.409C292.196 540.13 293.964 540.017 295.726 539.871C317.539 562.602 403.752 652.32 490.606 741.087C549.386 801.161 596.951 849.049 631.983 883.421C703.92 954 708.132 954 718.306 954C729.072 954 733.531 954 823.117 865.18C831.372 856.995 831.428 843.673 823.246 835.421C815.058 827.163 801.733 827.11 793.484 835.292Z" fill="#31344B"/>
</svg>
