<svg width="496" height="496" viewBox="0 0 496 496" fill="none" xmlns="http://www.w3.org/2000/svg">
<path d="M248 296C265.648 296 280 281.648 280 264V248H216V264C216 281.648 230.352 296 248 296ZM264 264C264 272.824 256.824 280 248 280C239.176 280 232 272.824 232 264H264Z" fill="#B594B6"/>
<path d="M168 98.416L211.344 62.296C219.384 55.592 224 45.736 224 35.264C224 25.872 220.344 17.04 213.656 10.344C206.984 3.672 198.12 0 188.688 0H187.312C180.352 0 173.696 2 168 5.736C162.304 2 155.648 0 148.688 0H147.312C137.88 0 129.016 3.672 122.296 10.384C115.656 17.032 112 25.872 112 35.264C112 45.744 116.616 55.592 124.656 62.296L168 98.416ZM133.656 21.664C137.304 18.008 142.16 16 147.312 16H148.688C153.848 16 158.696 18.008 162.344 21.664L168 27.312L173.656 21.664C177.304 18.008 182.16 16 187.312 16H188.688C193.848 16 198.696 18.008 202.376 21.688C206 25.32 208 30.144 208 35.264C208 40.976 205.488 46.352 201.096 50.008L168 77.584L134.904 50.008C130.512 46.352 128 40.976 128 35.264C128 30.144 130 25.32 133.656 21.664Z" fill="#B594B6"/>
<path d="M56 178.416L99.344 142.296C107.384 135.592 112 125.736 112 115.264C112 105.872 108.344 97.04 101.656 90.344C94.984 83.672 86.12 80 76.688 80H75.312C68.352 80 61.696 82 56 85.736C50.304 82 43.648 80 36.688 80H35.312C25.88 80 17.016 83.672 10.296 90.384C3.656 97.032 0 105.872 0 115.264C0 125.744 4.616 135.592 12.656 142.296L56 178.416ZM21.656 101.664C25.304 98.008 30.16 96 35.312 96H36.688C41.848 96 46.696 98.008 50.344 101.664L56 107.312L61.656 101.664C65.304 98.008 70.16 96 75.312 96H76.688C81.848 96 86.696 98.008 90.376 101.688C94 105.32 96 110.144 96 115.264C96 120.976 93.488 126.352 89.096 130.008L56 157.584L22.904 130.008C18.512 126.352 16 120.976 16 115.264C16 110.144 18 105.32 21.656 101.664Z" fill="#B594B6"/>
<path d="M328 98.416L371.344 62.296C379.384 55.592 384 45.736 384 35.264C384 25.872 380.344 17.04 373.656 10.344C366.984 3.672 358.12 0 348.688 0H347.312C340.352 0 333.696 2 328 5.736C322.304 2 315.648 0 308.688 0H307.312C297.88 0 289.016 3.672 282.296 10.384C275.656 17.032 272 25.872 272 35.264C272 45.744 276.616 55.592 284.656 62.296L328 98.416ZM293.656 21.664C297.304 18.008 302.16 16 307.312 16H308.688C313.848 16 318.696 18.008 322.344 21.664L328 27.312L333.656 21.664C337.304 18.008 342.16 16 347.312 16H348.688C353.848 16 358.696 18.008 362.376 21.688C366 25.32 368 30.144 368 35.264C368 40.976 365.488 46.352 361.096 50.008L328 77.584L294.904 50.008C290.512 46.352 288 40.976 288 35.264C288 30.144 290 25.32 293.656 21.664Z" fill="#B594B6"/>
<path d="M396.656 142.296L440 178.416L483.344 142.296C491.384 135.592 496 125.736 496 115.264C496 105.872 492.344 97.04 485.656 90.344C478.984 83.672 470.12 80 460.688 80H459.312C452.352 80 445.696 82 440 85.736C434.304 82 427.648 80 420.688 80H419.312C409.88 80 401.016 83.672 394.296 90.384C387.656 97.032 384 105.872 384 115.264C384 125.736 388.616 135.592 396.656 142.296ZM405.656 101.664C409.304 98.008 414.16 96 419.312 96H420.688C425.848 96 430.696 98.008 434.344 101.664L440 107.312L445.656 101.664C449.304 98.008 454.16 96 459.312 96H460.688C465.848 96 470.696 98.008 474.376 101.688C478 105.32 480 110.144 480 115.264C480 120.976 477.488 126.352 473.096 130.008L440 157.584L406.904 130.008C402.512 126.352 400 120.976 400 115.264C400 110.144 402 105.32 405.656 101.664Z" fill="#B594B6"/>
<path d="M470.416 216H459.312L451.848 208.536C446.344 203.032 439.024 200 431.24 200C418.68 200 407.568 208.008 403.592 219.928L401.056 227.536L290.368 330.848L283.808 317.72C297.56 309.16 308.08 295.832 313.016 280.008H320C337.648 280.008 352 265.656 352 248.008C352 240.608 349.368 233.872 345.136 228.44L349.432 211.296C351.136 204.432 352 197.392 352 190.352C352 142.736 313.264 104 265.648 104H230.352C182.736 104 144 142.736 144 190.352C144 197.384 144.864 204.432 146.576 211.296L150.864 228.424C146.632 233.864 144 240.6 144 248C144 265.648 158.352 280 176 280H182.992C187.928 295.824 198.44 309.16 212.2 317.712L205.64 330.84L94.944 227.536L92.408 219.92C88.432 208.008 77.32 200 64.76 200C56.976 200 49.656 203.032 44.152 208.536L36.688 216H25.584C11.48 216 0 227.48 0 241.584C0 253.736 8.648 264.288 20.56 266.672L43.904 271.336L152 387.152V496H344V387.152L452.096 271.336L475.44 266.672C487.352 264.288 496 253.736 496 241.584C496 227.48 484.52 216 470.416 216ZM216 360.648L228.6 370.728C224.224 372.04 219.984 373.728 216 375.968V360.648ZM320 264H316.016L318.304 232H320C328.824 232 336 239.176 336 248C336 256.824 328.824 264 320 264ZM160 248C160 239.176 167.176 232 176 232H177.696L179.976 264H176C167.176 264 160 256.824 160 248ZM176 204.84V206.728C176 207.776 176.04 208.816 176.12 209.832L176.56 216H176C172.04 216 168.288 216.816 164.776 218.136L162.096 207.424C160.704 201.832 160 196.088 160 190.352C160 151.56 191.56 120 230.352 120H265.648C304.44 120 336 151.56 336 190.352C336 196.08 335.296 201.832 333.904 207.416L331.224 218.136C327.72 216.816 323.96 216 320 216H319.448L319.768 211.512C324.904 205.424 328 197.56 328 188.984V184H312V188.984C312 199.472 303.472 208 292.984 208C287.176 208 281.768 205.4 278.144 200.856L268.664 189.016C257.976 175.664 242.04 168 224.928 168H224C211.952 168 200.28 171.536 190.248 178.216C181.328 184.168 176 194.12 176 204.84ZM195.984 263.568L192.072 208.672C192.024 208.024 192 207.376 192 206.728V204.84C192 199.48 194.664 194.504 199.128 191.528C206.512 186.608 215.12 184 224 184H224.928C237.144 184 248.528 189.472 256.16 199.016L265.64 210.856C272.32 219.208 282.288 224 292.984 224C296.44 224 299.784 223.496 302.936 222.56L300.016 263.568C298.072 290.728 275.224 312 248 312C220.776 312 197.928 290.728 195.984 263.568ZM248 328C255.424 328 262.576 326.728 269.304 324.488L277.952 341.792L248 365.752L218.048 341.792L226.696 324.488C233.424 326.728 240.576 328 248 328ZM280 360.648V375.968C276.016 373.728 271.776 372.04 267.4 370.728L280 360.648ZM16 241.584C16 236.304 20.296 232 25.584 232H43.312L55.464 219.848C57.944 217.368 61.248 216 64.76 216C70.424 216 75.44 219.616 77.24 224.984L78.656 229.232L45.92 255.424L23.712 250.984C19.24 250.088 16 246.136 16 241.584ZM328 380.848V480H168V380.848L59.744 264.856L87.6 242.568L200 347.48V411.32L213.656 397.656C222.464 388.848 234.168 384 246.624 384H249.376C261.832 384 273.544 388.848 282.344 397.656L296 411.32V347.48L408.4 242.568L436.256 264.856L328 380.848ZM472.296 250.984L450.088 255.424L417.352 229.232L418.768 224.992C420.56 219.616 425.576 216 431.24 216C434.744 216 438.056 217.368 440.536 219.848L452.688 232H470.416C475.704 232 480 236.304 480 241.584C480 246.136 476.76 250.088 472.296 250.984Z" fill="#B594B6"/>
</svg>
