<svg width="512" height="512" viewBox="0 0 512 512" fill="none" xmlns="http://www.w3.org/2000/svg">
<path d="M256 0C114.853 0 0 114.833 0 256C0 397.167 114.853 512 256 512C397.167 512 512 397.167 512 256C512 114.833 397.147 0 256 0ZM256 472.341C136.705 472.341 39.659 375.295 39.659 256C39.659 136.705 136.705 39.659 256 39.659C375.295 39.659 472.341 136.705 472.341 256C472.341 375.295 375.295 472.341 256 472.341Z" fill="#31344B"/>
<path d="M355.148 234.386H156.852C145.906 234.386 137.022 243.27 137.022 254.216C137.022 265.162 145.906 274.046 156.852 274.046H355.148C366.094 274.046 374.978 265.162 374.978 254.216C374.978 243.27 366.094 234.386 355.148 234.386Z" fill="#31344B"/>
</svg>
