<svg width="512" height="512" viewBox="0 0 512 512" fill="none" xmlns="http://www.w3.org/2000/svg">
<g clip-path="url(#clip0)">
<path d="M512 102.965C479.793 104.449 480.496 104.328 476.855 104.633L495.93 50.1602C495.93 50.1602 436.391 72.0625 421.297 75.9805C381.656 40.3516 322.734 38.7773 280.609 64.668C246.113 85.875 227.598 122.293 233.773 164.859C166.637 155.543 110.07 123.719 65.4102 70.0703L51.2852 53.1055L40.7305 72.4883C27.3906 96.9805 22.9609 124.984 28.2539 151.34C30.4258 162.152 34.1172 172.465 39.2305 182.121L27.1133 177.426L25.6758 197.672C24.2188 218.238 31.0664 242.246 43.9961 261.887C47.6367 267.418 52.3242 273.492 58.2656 279.484L52.0039 278.523L59.6445 301.723C69.6875 332.203 90.5469 355.785 117.617 368.895C90.582 380.367 68.7422 387.688 32.8438 399.496L0 410.293L30.3359 426.879C41.9023 433.203 82.7734 454.324 123.156 460.66C212.922 474.738 313.988 463.273 382.027 401.996C439.336 350.383 458.141 276.965 454.234 200.562C453.645 188.996 456.812 177.957 463.156 169.484C475.863 152.52 511.922 103.078 512 102.965V102.965ZM439.168 151.516C428.633 165.582 423.355 183.547 424.301 202.094C428.242 279.16 407.273 338.926 361.973 379.723C309.055 427.383 223.699 446.09 127.801 431.047C110.434 428.324 92.4844 422.227 77.6289 416.137C107.727 405.781 130.969 396.551 168.504 378.785L220.902 353.984L163.051 350.281C135.34 348.508 112.266 335.078 98.082 313.273C105.613 312.836 112.875 311.617 120.105 309.602L175.281 294.234L119.645 280.609C92.6094 273.988 77.1992 257.812 69.0312 245.406C63.668 237.254 60.1641 228.902 58.0625 221.203C63.6406 222.699 70.1445 223.766 80.6328 224.805L132.129 229.898L91.3281 198.07C61.9297 175.141 50.1484 140.691 58.7852 107.574C150.535 202.738 258.262 195.586 269.105 198.102C266.719 174.918 266.656 174.863 266.031 172.656C252.145 123.566 282.578 98.6406 296.305 90.2031C324.977 72.582 370.488 69.9258 402.012 98.957C408.82 105.223 418.027 107.687 426.645 105.547C434.379 103.625 440.727 101.59 446.941 99.375L434.004 136.32L450.52 136.332C447.402 140.512 443.664 145.516 439.168 151.516Z" fill="#31344B"/>
</g>
<defs>
<clipPath id="clip0">
<rect width="512" height="512" fill="white"/>
</clipPath>
</defs>
</svg>
