<svg width="291" height="512" viewBox="0 0 291 512" fill="none" xmlns="http://www.w3.org/2000/svg">
<path d="M179.5 512H97.5078C83.8125 512 72.6719 500.859 72.6719 487.164V302.227H24.8359C11.1406 302.227 0 291.082 0 277.391V198.145C0 184.449 11.1406 173.309 24.8359 173.309H72.6719V133.625C72.6719 94.2773 85.0273 60.8008 108.398 36.8203C131.875 12.7305 164.684 0 203.277 0L265.809 0.101562C279.48 0.125 290.602 11.2656 290.602 24.9375V98.5156C290.602 112.211 279.465 123.352 265.773 123.352L223.672 123.367C210.832 123.367 207.562 125.941 206.863 126.73C205.711 128.039 204.34 131.738 204.34 141.953V173.305H262.609C266.996 173.305 271.246 174.387 274.898 176.426C282.777 180.828 287.676 189.152 287.676 198.148L287.645 277.395C287.645 291.082 276.504 302.223 262.809 302.223H204.34V487.164C204.34 500.859 193.195 512 179.5 512ZM102.688 481.984H174.32V288.789C174.32 279.645 181.762 272.207 190.902 272.207H257.629L257.656 203.324H190.898C181.758 203.324 174.32 195.887 174.32 186.742V141.953C174.32 130.227 175.512 116.891 184.363 106.867C195.059 94.75 211.914 93.3516 223.664 93.3516L260.586 93.3359V30.1094L203.254 30.0156C141.23 30.0156 102.688 69.7188 102.688 133.625V186.742C102.688 195.883 95.25 203.324 86.1094 203.324H30.0156V272.207H86.1094C95.25 272.207 102.688 279.645 102.688 288.789V481.984ZM265.75 30.1172H265.754H265.75Z" fill="#31344B"/>
</svg>
