<svg width="512" height="512" viewBox="0 0 512 512" fill="none" xmlns="http://www.w3.org/2000/svg">
<path d="M256 0C115.04 0 0 115.05 0 256C0 396.96 115.05 512 256 512C396.96 512 512 396.95 512 256C512 115.04 396.95 0 256 0ZM429.64 111.51C461.6 149.85 481.11 198.9 481.95 252.4C441.89 243.03 397.4 242.4 352.09 250.66C340.3 252.81 328.51 255.54 316.79 258.82C312.89 248.21 308.75 237.69 304.35 227.27C299.86 216.64 295.12 206.19 290.16 195.89C344.15 175.27 402.65 144.57 429.64 111.51ZM256 30C314.82 30 368.45 52.59 408.7 89.54C393 110.95 348.26 142.12 276.48 169C251.42 122.34 221.37 79.46 186.65 40.9C208.51 33.83 231.82 30 256 30ZM156.95 52.9C192.36 90.83 222.82 133.19 247.91 178.95C173.23 203.12 97.62 212.98 35.45 206.61C50.59 138.96 96.14 82.67 156.95 52.9ZM30 256C30 249.36 30.31 242.79 30.87 236.3C44.59 237.75 58.9 238.48 73.69 238.48C132.02 238.48 197.55 227.26 261.9 205.95C271.72 226.05 280.55 246.73 288.34 267.92C263.25 276.94 238.83 288.41 215.9 302.06C159.68 335.53 118.55 378.59 101.49 420.77C57.52 379.51 30 320.91 30 256ZM256 482C207.71 482 162.91 466.77 126.14 440.86C137.54 402.34 176.1 360.67 231.25 327.84C250.68 316.26 273.4 305.35 298.13 296.48C315.66 351.58 326.4 409.74 329.81 469.61C306.67 477.63 281.84 482 256 482ZM359.07 457.1C354.91 398.78 344.05 342 326.62 287.46C375.22 274.1 429.2 269.62 480.39 282.9C471.33 358.91 424.41 423.47 359.07 457.1Z" fill="#31344B"/>
</svg>
