<svg width="480" height="480" viewBox="0 0 480 480" fill="none" xmlns="http://www.w3.org/2000/svg">
<path d="M424 184H296V56C296 25.072 270.928 0 240 0C209.072 0 184 25.072 184 56V184H56C25.072 184 0 209.072 0 240C0 270.928 25.072 296 56 296H184V424C184 454.928 209.072 480 240 480C270.928 480 296 454.928 296 424V296H424C454.928 296 480 270.928 480 240C480 209.072 454.928 184 424 184ZM424 280H288C283.582 280 280 283.582 280 288V424C280 446.091 262.091 464 240 464C217.909 464 200 446.091 200 424V288C200 283.582 196.418 280 192 280H56C33.909 280 16 262.091 16 240C16 217.909 33.909 200 56 200H192C196.418 200 200 196.418 200 192V56C200 33.909 217.909 16 240 16C262.091 16 280 33.909 280 56V192C280 196.418 283.582 200 288 200H424C446.091 200 464 217.909 464 240C464 262.091 446.091 280 424 280Z" fill="#E6E7EE"/>
</svg>
