<svg data-name="Layer 1" xmlns="http://www.w3.org/2000/svg" width="1096.5" height="806"><defs><linearGradient id="a" x1="699.5" y1="848.8" x2="699.5" y2="548.1" gradientUnits="userSpaceOnUse"><stop offset="0" stop-color="gray" stop-opacity=".3"/><stop offset=".5" stop-color="gray" stop-opacity=".1"/><stop offset="1" stop-color="gray" stop-opacity=".1"/></linearGradient></defs><path d="M641.8 111.4c-64.7-2.3-126.3-23.1-185.2-46S339.4 17.2 276.2 5.1c-40.6-7.8-87-8.9-119.8 12.9-31.5 21-41.6 57.1-47.1 90.7-4.1 25.3-6.6 51.8 4.7 75.5 7.9 16.4 21.8 30.2 31.4 46 33.4 54.7 9.8 122.2-26.5 175.6-17 25-36.7 49-49.9 75.7s-19.2 57.2-7.7 84.5c11.4 27 38.5 47.2 68 61.5 59.6 28.9 130 37.2 198.5 41.9 151.9 10.4 304.5 5.9 456.7 1.4 56.4-1.7 113-3.4 168.4-12.1 30.8-4.9 62.5-12.5 84.9-31a71 71 0 0 0 16.4-92.9c-32-49.5-120-61.8-142.3-114.9-12.3-29.2.3-61.8 18.1-88.9 38.3-58.2 102.3-109.2 105.7-175.7 2.3-45.6-28.5-91.4-76.1-113-50-22.6-119.2-19.8-156 17.7-38 38.5-104.6 53.4-161.8 51.4z" fill="#b594b6" opacity=".1"/><g opacity=".9"><rect x="708.3" y="248.8" width="8.9" height="73" rx="2.3" fill="#3a3768"/><rect x="413.9" y="191.6" width="5" height="24" rx="2.3" fill="#3a3768"/><rect x="413.7" y="235.6" width="5.6" height="41.8" rx="2.3" fill="#3a3768"/><rect x="413.8" y="292.1" width="5.3" height="42.2" rx="2.3" fill="#3a3768"/><rect x="416.7" y="112.1" width="296.4" height="602.4" rx="39" fill="#3a3768"/><rect x="536.3" y="130.1" width="41.4" height="8.4" rx="3.9" fill="#e6e8ec"/><circle cx="588.7" cy="134.3" r="4.8" fill="#e6e8ec"/></g><ellipse cx="238" cy="728.4" rx="200" ry="20.4" fill="#b594b6" opacity=".1"/><ellipse cx="682.7" cy="796.4" rx="93.7" ry="9.6" fill="#b594b6" opacity=".1"/><ellipse cx="1002.8" cy="748.3" rx="93.7" ry="9.6" fill="#b594b6" opacity=".1"/><path d="M671.2 127.8h-33.9v4.1a19.4 19.4 0 0 1-19.3 19.4H509.8a19.4 19.4 0 0 1-19.4-19.4v-4h-31.8a23.5 23.5 0 0 0-23.6 23.5v523.9a23.5 23.5 0 0 0 23.5 23.5h212.7a23.5 23.5 0 0 0 23.6-23.5v-524a23.5 23.5 0 0 0-23.6-23.5z" fill="#b594b6"/><path d="M815.7 85.7s-84.2-5-74.3 54c0 0-2 10.4 7.5 15 0 0 .2-4.3 8.7-2.8a38.4 38.4 0 0 0 9.1.4 19 19 0 0 0 11.2-4.6s23.7-9.7 32.9-48.4c0 0 6.8-8.5 6.5-10.6l-14.2 6s4.8 10.3 1 18.8c0 0-.5-18.4-3.2-18-.6 0-7.4 3.5-7.4 3.5s8.4 17.9 2 30.9c0 0 2.4-22-4.6-29.6l-10 5.9s9.7 18.4 3.1 33.5c0 0 1.7-23.1-5.2-32.1l-9.1 7s9.2 18.2 3.6 30.7c0 0-.8-26.8-5.6-28.9 0 0-7.9 7-9.1 9.9 0 0 6.3 13.2 2.4 20.2 0 0-2.4-18-4.4-18 0 0-7.9 11.8-8.7 20 0 0 .4-12.1 6.8-21.2 0 0-7.6 1.3-12 6.3 0 0 1.1-8.4 14-9.1 0 0 6.4-9 8.2-9.6 0 0-12.8-1-20.5 2.4 0 0 6.8-8 22.8-4.3l9-7.3s-16.8-2.3-24 .2c0 0 8.3-7 26.4-1.9l9.7-5.8s-14.3-3.1-22.8-2c0 0 9-4.9 25.7.4l7-3.1s-10.5-2-13.6-2.4-3.2-1.2-3.2-1.2a36.4 36.4 0 0 1 19.8 2.3s14.8-5.6 14.5-6.5z" fill="#b594b6"/><path d="M729.4 59.5s-38-2.3-33.6 24.3c0 0-.9 4.7 3.4 6.9 0 0 0-2 3.9-1.3a17.5 17.5 0 0 0 4.1.2 8.6 8.6 0 0 0 5-2.1s10.8-4.4 15-21.9c0 0 3-3.8 3-4.8l-6.5 2.7s2.2 4.7.5 8.5c0 0-.2-8.3-1.5-8l-3.3 1.5s3.8 8 1 14c0 0 1-10-2.2-13.4l-4.5 2.6S718 77.1 715 84c0 0 .8-10.5-2.4-14.5l-4 3.2s4 8.2 1.6 13.8c0 0-.4-12.1-2.5-13 0 0-3.6 3.1-4.2 4.4 0 0 2.9 6 1.1 9.1 0 0-1-8-2-8 0 0-3.6 5.3-4 9a19.5 19.5 0 0 1 3.1-9.6 10.7 10.7 0 0 0-5.4 2.8s.5-3.8 6.3-4.1c0 0 3-4 3.7-4.3 0 0-5.7-.5-9.2 1 0 0 3-3.5 10.3-2l4-3.3s-7.6-1-10.8.1c0 0 3.7-3.1 11.9-.8L717 65s-6.5-1.3-10.3-.8c0 0 4-2.2 11.6.1l3.1-1.4-6-1c-1.4-.1-1.5-.6-1.5-.6a16.4 16.4 0 0 1 8.8 1s6.8-2.4 6.7-2.8z" fill="#b594b6"/><ellipse cx="40.2" cy="678.6" rx="40.2" ry="6.8" fill="#b594b6"/><path d="M56.8 667.4a11.6 11.6 0 0 0 3.9-5.7c.5-2.3-.5-5-2.7-6-2.5-.9-5.1.8-7 2.6s-4.4 3.6-7 3.3a10.5 10.5 0 0 0 3.2-9.8 4 4 0 0 0-.9-2c-1.3-1.5-3.8-.9-5.4.3-5.3 3.6-6.7 10.7-6.7 17-.6-2.2-.1-4.6-.1-7s-.7-5-2.7-6.2a8 8 0 0 0-4-1c-2.3 0-4.9.2-6.5 2-2 2-1.5 5.6.3 8s4.3 3.8 6.7 5.4a15 15 0 0 1 4.9 4.6 4.4 4.4 0 0 1 .3.8h14.7a40.8 40.8 0 0 0 9-6.3z" fill="#b594b6"/><path d="M830.6 583.5s8.6 11.3-4 28.4-23.1 31.5-18.9 42.2c0 0 19.1-31.8 34.6-32.2s5.4-19.3-11.7-38.4z" fill="#b594b6"/><path d="M830.6 583.5a14.3 14.3 0 0 1 1.7 3.6c15.2 17.8 23.3 34.4 8.7 34.8-13.6.4-29.8 24.6-33.7 30.8a11.5 11.5 0 0 0 .4 1.4s19.1-31.8 34.6-32.2 5.4-19.3-11.7-38.4z" opacity=".1"/><path d="M846.6 598c0 4-.4 7.2-1 7.2s-1-3.2-1-7.2.6-2.1 1.2-2.1.9-2 .9 2z" fill="#ffd037"/><path d="M852.2 602.7c-3.5 1.9-6.6 3-6.8 2.6s2.3-2.4 5.8-4.4 2.1-.5 2.4 0 2-.1-1.4 1.8z" fill="#ffd037"/><path d="M784.9 583.5s-8.7 11.3 4 28.4 23 31.5 18.8 42.2c0 0-19-31.8-34.6-32.2s-5.3-19.3 11.8-38.4z" fill="#b594b6"/><path d="M784.9 583.5a13.8 13.8 0 0 0-1.8 3.6c-15.2 17.8-23.2 34.4-8.7 34.8 13.6.4 29.9 24.6 33.8 30.8a13.5 13.5 0 0 1-.5 1.4s-19-31.8-34.6-32.2-5.3-19.3 11.8-38.4z" opacity=".1"/><path d="M768.8 598c0 4 .4 7.2 1 7.2s1-3.2 1-7.2-.6-2.1-1.1-2.1-1-2-1 2z" fill="#ffd037"/><path d="M763.2 602.7c3.5 1.9 6.6 3 6.8 2.6s-2.3-2.4-5.8-4.4-2.1-.5-2.4 0-2-.1 1.4 1.8z" fill="#ffd037"/><path d="M771.5 652.6s24.2-.8 31.5-6 37.2-11.3 39-3 36.4 41.4 9 41.6-63.4-4.2-70.7-8.7-8.8-24-8.8-24z" fill="#a8a8a8"/><path d="M851.6 682.3c-27.3.2-63.5-4.2-70.8-8.7-5.5-3.3-7.7-15.5-8.4-21h-.9s1.6 19.5 8.9 23.9 43.4 9 70.7 8.7c7.9 0 10.6-2.9 10.4-7-1 2.5-4 4-10 4.1z" opacity=".2"/><rect x="584.5" y="487.9" width="78" height="78" fill="#3a3768" opacity=".3"/><rect x="469.5" y="384.9" width="78" height="78" fill="#3a3768" opacity=".3"/><rect x="477" y="589.1" width="78" height="78" fill="#3a3768" opacity=".3"/><rect x="459.6" y="193.3" width="78" height="78" fill="#fff"/><rect x="656.9" y="524.8" width="78" height="78" transform="rotate(-42.1 606.5 606.5)" fill="#fff"/><rect x="583.2" y="287.3" width="78" height="78" fill="#fff"/><rect x="484.6" y="374.3" width="78" height="78" fill="#fff"/><path d="M971.8 732.6c4.6.6 9.3 1 13.6-.5.7-.2 1.5-.6 1.4-1.3a1.6 1.6 0 0 0-.3-.7 42.4 42.4 0 0 1-4.1-7.8.6.6 0 0 0-.3-.4.6.6 0 0 0-.4 0c-2 .5-3.8 1.8-5.8 2.4a8.2 8.2 0 0 1-3.1.2c-.9 0-2.1-.8-3-.7.6 3 1.7 5.8 2 8.8z" fill="#b594b6"/><path d="M1057.8 725c3-2 6-4.2 7.8-7.4a1.2 1.2 0 0 0 .2-.6 1.3 1.3 0 0 0-.2-.7 25.6 25.6 0 0 0-6.4-6.9 18.9 18.9 0 0 0-3.6 3.3c-.7.8-2.8 2.1-2.8 3.3 0 .7.8 1.5 1.2 2l1.4 2.3c.2.4 2.6 4.6 2.4 4.7z" fill="#b594b6"/><path d="M989.6 741.8a3 3 0 0 1-.5 2 2.7 2.7 0 0 1-1.1.6c-6.4 2.3-13.7-.5-20 1.7l-3.9 1.6a20.9 20.9 0 0 1-4.8.8c-2.2.2-4.5.4-6.7.4a16.3 16.3 0 0 1-5.1-.4 6.2 6.2 0 0 1-3.9-3 3 3 0 0 1-.2-2.3 2.5 2.5 0 0 1 .4-.7 6 6 0 0 1 1.5-1.2l2.4-1.5a15.6 15.6 0 0 1 3.5-1.9l2.8-.7c3.3-1 5.8-3.6 8.2-6l3.1-3.5a3.1 3.1 0 0 1 1.1-.8 3 3 0 0 1 1.4-.2 18.4 18.4 0 0 1 8.7 3 12.5 12.5 0 0 0 2.1 1.2 7.6 7.6 0 0 0 6-.8c.8-.4.6-.7 1-1.4s1.2-1.3 2-.6a2 2 0 0 1 .4.9c.7 2.2.4 4.7.4 7a3.1 3.1 0 0 0 .1 1.1 6.7 6.7 0 0 0 .6 1 1.6 1.6 0 0 1 .2.3 7 7 0 0 1 .3 3.4z" fill="#514e7f"/><path d="M989.6 741.8a3 3 0 0 1-.5 2 2.7 2.7 0 0 1-1.1.6c-6.4 2.3-13.7-.5-20 1.7l-3.9 1.6a20.9 20.9 0 0 1-4.8.8c-2.2.2-4.5.4-6.7.4a16.3 16.3 0 0 1-5.1-.4 6.2 6.2 0 0 1-3.9-3 3 3 0 0 1-.2-2.3 2.5 2.5 0 0 1 .4-.7l.9 2.2a4.4 4.4 0 0 0 3 2.1 7.6 7.6 0 0 0 2.7-.3c5.8-1.5 11.9-1.5 17.4-3.6a41.6 41.6 0 0 1 5.7-2.2 45.3 45.3 0 0 1 6.2-.5c3.2-.3 6.4-1.3 9.6-1.8a7 7 0 0 1 .3 3.4z" fill="#464353"/><path d="M1072.3 724.6c-.3 2.4-1.8 4.5-3.5 6.2a40 40 0 0 0-5 5.4c-1.6 2.5-2.3 5.6-4.5 7.8a12.3 12.3 0 0 1-2.7 2 18.8 18.8 0 0 1-3.5 1.6 27 27 0 0 1-10 .5 8.9 8.9 0 0 1-3.2-.6 9.2 9.2 0 0 1-1.3-.8 6.4 6.4 0 0 1-2-2 2 2 0 0 1-.2-1.6 3.4 3.4 0 0 1 1-1.4 22.6 22.6 0 0 1 2.4-2.2 14.3 14.3 0 0 0 3.2-2.7 9 9 0 0 0 1.2-2.8 24.7 24.7 0 0 0 .9-5.3 16.5 16.5 0 0 1 .3-3.5c.5-1.8 1.9-3.4 1.7-5.3a1.4 1.4 0 0 1 0-.8 1.3 1.3 0 0 1 .7-.3 11.4 11.4 0 0 1 3.3-.8 3.8 3.8 0 0 1 3 1.2c.5.6.8 1.3 1.5 1.6a2.4 2.4 0 0 0 1 0c1.6-.2 3.4-.4 4.7-1.5a6 6 0 0 0 2-4.4c0-.6-.3-1.2.7-1.4.7 0 1.3.7 1.7 1.2a16.3 16.3 0 0 1 3.2 5.9 1.6 1.6 0 0 1 .6-.2 2.6 2.6 0 0 1 2.2 1.2 4.3 4.3 0 0 1 .6 3z" fill="#514e7f"/><path d="M1072.3 724.6c-.3 2.4-1.8 4.5-3.5 6.2a40 40 0 0 0-5 5.4c-1.6 2.5-2.3 5.6-4.5 7.8a12.3 12.3 0 0 1-2.7 2 18.8 18.8 0 0 1-3.5 1.6 27 27 0 0 1-10 .5 8.9 8.9 0 0 1-3.2-.6 9.2 9.2 0 0 1-1.3-.8 6.4 6.4 0 0 1-2-2 4.9 4.9 0 0 1 2-.6c1.5.1 2.6 1.5 4 2 2 .6 4-.9 6.1-1.4 1.4-.3 2.8-.2 4.1-.6a10 10 0 0 0 3-1.8 15.2 15.2 0 0 0 3.2-3.1 19.8 19.8 0 0 0 2-3.8 53.7 53.7 0 0 1 3.7-7.3 4.8 4.8 0 0 1 .8-1l1-.7c1.4-1 2-2.8 2.4-4.4a7.4 7.4 0 0 1 .6-1.5 2.6 2.6 0 0 1 2.1 1.1 4.3 4.3 0 0 1 .7 3z" fill="#464353"/><path d="M928.6 511a14.5 14.5 0 0 1 4.1 4.8 97 97 0 0 1 6.2 18.5c1.8-1.8 9-2.1 10.7-4 .8-.7 4.9-4.5 5.5-5.3s5.2-2.8 5.7-3.7c1.9-3.4-13.3-16-11.3-19.4a.8.8 0 0 0 .1-.5.8.8 0 0 0-.2-.4 24 24 0 0 0-4.4-3 7 7 0 0 1-3.4-4 14.4 14.4 0 0 0-3.8 2.6q-4.2 3.6-8.2 7.3c-1 1-3 2.3-3.6 3.7s1.6 2.6 2.6 3.4z" fill="#a1616a"/><path d="M953.1 505.6a43.8 43.8 0 0 0-6.5 5.3 13 13 0 0 0-4 6.6c-.3 1-.3 2-.4 3-.7 4.6-4.6 7.9-6.3 12a20.5 20.5 0 0 0-1 4 47.1 47.1 0 0 0-.9 8c0 2.5 2.5 4.3 3.4 6.7a40.7 40.7 0 0 1 1.6 7.2 88.6 88.6 0 0 0 4.1 13.5c3.4 9.4 14.4 35.2 17.7 44.5 10.4-2.6 38-8.6 47.1-14 3-1.8-21.2-22.4-18-23.8a1.6 1.6 0 0 0 1-.7 1.6 1.6 0 0 0 0-1c-3.3-14.3-13.5-26-18.1-40-1.6-4.8-4.5-9-6.7-13.5-2-4.2-3-8.8-5.4-12.7a8.5 8.5 0 0 0-1.8-2.2 10.6 10.6 0 0 0-1.9-1.2c-1.3-.7-2.6-1-3.9-1.7z" fill="#514e7f"/><circle cx="929.2" cy="493.1" r="16.2" fill="#a1616a"/><path d="M945.7 500.8a5.4 5.4 0 0 1 6-1 3 3 0 0 1 1.9 3l8 .1a16.7 16.7 0 0 1 3.8.4 5.5 5.5 0 0 1 3.1 2l.4.3a.6.6 0 0 0 .4-.1 7 7 0 0 1 4-.8c4.3.3 8.3 2.5 11.7 5.2a3.8 3.8 0 0 1 1.4 1.7c.3 1 0 2.1.7 2.7 0 7.6 2.6 14.6 4.3 22 .3 1.3 1.6 2.4 2.5 3.4a14 14 0 0 1 2.6 4c1.4 3.7-.6 8.2.8 12a19.5 19.5 0 0 0 2.8 4.4 11.2 11.2 0 0 1 2.3 5.6v2.8a16.9 16.9 0 0 0 .7 3.6l1.8 6.6c1 3.6 2.4 7.4 5.6 9.3a45.7 45.7 0 0 1-23.2 0 12 12 0 0 1-2.8-1.5c-2.7-1.9-4-5.1-5.1-8.2-1.3-3.4-2.6-6.9-2.9-10.5a12 12 0 0 0-.4-3.5c-.8-2-2.8-3.2-4.6-4.3a21.9 21.9 0 0 1-5.5-4.2 8.5 8.5 0 0 1-2.2-6.4c.2-1.2.6-2.3.7-3.4a2.7 2.7 0 0 0-1.6-2.8c-5.6-1.7-8.3-8.3-9.5-14a44.9 44.9 0 0 1-.8-9v-5.8a7.7 7.7 0 0 1-2.6-5.6 6.2 6.2 0 0 0 0-1.8 5.1 5.1 0 0 0-1.2-2 16.9 16.9 0 0 1-3.1-4.2z" fill="#464353"/><path d="M928.4 519.3c-.2 1.8.2 3.7-.2 5.4-.1.7-.4 1.4-.6 2a11.8 11.8 0 0 0 .7 7.6 42.4 42.4 0 0 0 4 6.8 10.3 10.3 0 0 1 1.2 2.3 12 12 0 0 1 .5 2.7 81.3 81.3 0 0 0 1.9 10.7c.7 3.1 1.7 6.2 3.8 8.7a2.6 2.6 0 0 0 1.5 1 2.8 2.8 0 0 0 1.3-.3l4.2-1.5a2.9 2.9 0 0 0 1-.5 2.5 2.5 0 0 0 .6-1.7c.3-3.3-.7-6.6-1.9-9.8-3.3-9.5-7.8-18.7-10-28.6-.6-2.7-.9-7-2.9-9.1-.8-1-.6-.5-1.5 0a12.5 12.5 0 0 0-1.5.8 4.8 4.8 0 0 0-2.1 3.5z" fill="#464353"/><path d="M940.9 537.4l3.4 17.5 16-4.3c.2-1.6-.7-3.2-1.4-4.8-1.4-3.6-1.5-7.7-2.6-11.5-1-2.9-2.5-5.5-3.3-8.4l-1.3-5.2a39.2 39.2 0 0 0-1.9-4.9 31.2 31.2 0 0 0-3.5-6.5c-2 .8-4.2 1.7-5.4 3.5a7.5 7.5 0 0 0-1 3.5c-.3 3.6 1 7.2.6 10.8a32 32 0 0 0 .4 10.3z" fill="#b594b6"/><path d="M960.6 615c.9 3.4-.4 7-1.5 10.4a81 81 0 0 0-3.3 15.7 13 13 0 0 1-.8 4 37.4 37.4 0 0 1-2 3.2 16 16 0 0 0-1.1 9.6c.2 2.2.5 4.3 1 6.5.5 2.6 1.1 5.3.4 7.8 1.3-.3 2.1 1.4 2 2.7s-.4 2.7.2 3.8c1.6.6 1.6 2.8 1.5 4.4a37.2 37.2 0 0 0 1.1 8.7q3.6 17.2 7.6 34.3c5.8 1.8 12.6 3.6 18 1.2a3.5 3.5 0 0 0 2.4-2.3 4.1 4.1 0 0 0-.2-1.8l-2.7-9.5a17.5 17.5 0 0 1-.9-7c.3-1.8 1-3.7.2-5.3l-1.1-1.4c-1.4-2-.7-4.7-.6-7.1a5.6 5.6 0 0 0-.1-1.7 8.6 8.6 0 0 0-.8-1.8 27.3 27.3 0 0 1-3-13.6 3.3 3.3 0 0 0-.2-1.7 4 4 0 0 1-.5-.8 2 2 0 0 1 .2-1.3 11.4 11.4 0 0 1-2.1-2 3 3 0 0 0 .5-4.6 1.5 1.5 0 0 0 .7-2.6c-.3-.3-.8-.4-1-.7-.4-.5 0-1.2.2-1.8l1.6-2.9c1.2-2.1 1.5-4.8 2.8-6.8a51.6 51.6 0 0 0 4.2-9.7l4.6-12.7 3 2.7a9.7 9.7 0 0 1 2.6 3 12.3 12.3 0 0 1 .8 3.4c1.2 6.9 5.5 12.9 7.1 19.7a13.3 13.3 0 0 0 1.5 4.4 9.5 9.5 0 0 1 .8 1.3 6.6 6.6 0 0 1 .4 2 9.7 9.7 0 0 0 4.1 7c1.5 1 3.5 1.8 4.3 3.5a6.8 6.8 0 0 0 .7 1.4c.7 1 2.3 1 2.6 2.1.2.7-.1 1.4.2 2a1.8 1.8 0 0 0 .8.5l4.4 2.3c5 2.5 7.6 8.2 11.2 12.4a25.7 25.7 0 0 1 3.4 4.4c1.6 2.8 2.3 6.4 5 8.2a7.8 7.8 0 0 1 2 1.5c.8 1 .5 2.6.5 4s1.2 3.1 2.5 2.7a9.7 9.7 0 0 0 0 5.2 26 26 0 0 0 15.8-6.4c1.3-1.2 2.6-2.6 2.6-4.4a1.7 1.7 0 0 0-.2-.8 2.3 2.3 0 0 0-1-.8c-4.2-2.2-5.4-7.5-7.5-11.7-1.9-3.8-4.6-7-6.9-10.5-5-7.5-8.3-16.6-15.9-21.5-1.6-1.1-3.5-2.1-4.3-4a30.8 30.8 0 0 1-1-3.1 2.7 2.7 0 0 0-2.3-2 14.3 14.3 0 0 0 .6-5 6.2 6.2 0 0 0-.3-2.2 10.2 10.2 0 0 0-1-2 20.6 20.6 0 0 1-3-11c.1-2 .5-4-.1-6-.3-1-.8-1.8-1.2-2.7a17.2 17.2 0 0 1-.9-5.2l-.4-6.6a31.6 31.6 0 0 0-.8-6.5c-1.4-5.1-2.7-26.5-7.4-29s-12.8 14.1-18 14.5a24 24 0 0 0-7 1.3 33.3 33.3 0 0 0-9.3 6.2l-9.7 8.1a35.4 35.4 0 0 1-6 4.4z" fill="#464353"/><path d="M914 475.2a12.2 12.2 0 0 1 9.4-4.6 22 22 0 0 1 10.4 2.6 13.4 13.4 0 0 0 3 1.2c1.7.4 3.6 0 5.2.7 2 1.1 2.4 3.9 2.3 6.2s-.7 4.9.6 6.9a19 19 0 0 1 1.2 1.7 6 6 0 0 1-.1 3.9 30.6 30.6 0 0 1-2-2.6c-.8-.7-2-1.3-2.9-.7s-.9 1.7-.9 2.7-.3 2.1-1.2 2.4a2 2 0 0 1-2-.8c-1.6-1.9-1-5-2.5-6.9-.9-1.1-2.4-1.6-3.2-2.8-.6-.9-.8-2-1.3-3s-2-1.7-2.8-1a3.7 3.7 0 0 0-.7 1 4.2 4.2 0 0 1-5 1.5 8.8 8.8 0 0 0-2.2-1 2.7 2.7 0 0 0-2.5 1.4 5.3 5.3 0 0 0-.6 2.9c0 1.3.2 2.8-.6 4a4 4 0 0 1-1.1 1c-1.2.6-2.7 1.1-3.8.3a2.9 2.9 0 0 1-.9-2.7 21.9 21.9 0 0 1 .9-2.8c.5-2-.2-4.5.4-6.5a20.5 20.5 0 0 1 2.9-5z" fill="#464353"/><path d="M922.6 523.5a2.5 2.5 0 0 0 .2 1.5 2.4 2.4 0 0 0 .8.8 16.8 16.8 0 0 0 7.6 2.4 2.3 2.3 0 0 1 1 .3 1.9 1.9 0 0 1 .5 2.1 5.7 5.7 0 0 0-.5 2.3c.2 1.4 2 2 3.3 2.3a7.7 7.7 0 0 0 5.8-1.2 9 9 0 0 0 2.4-3.6c4-9 5.3-19 9.3-28a5.7 5.7 0 0 0 .6-1.8 1.9 1.9 0 0 0-.7-1.8c-.8-.4-2-.2-2.4-.9-.3-.3-.2-.8-.5-1.2-.4-.8-1.6-.7-2.4-1.2-.7-.3-1.1-1-1.8-1.2a2.3 2.3 0 0 0-2 .8c-2.3 2.2-3.5 5.3-4.8 8.2a97.3 97.3 0 0 1-7 13c.3-.5-1.5-4.2-2.2-4.3-1.2-.3-2.8 1.9-3.4 2.7a17.2 17.2 0 0 0-3.8 8.8z" fill="#b594b6"/><rect x="930.8" y="536.3" width="78" height="78" fill="#fff"/><path d="M1008.2 579.3a31.5 31.5 0 0 0-3.7 3.9 7.7 7.7 0 0 0-1.7 5 2.6 2.6 0 0 0 .5 1.4 1.3 1.3 0 0 0 1.4.4 2 2 0 0 0 .7-.6 32 32 0 0 1 2.3-2.5c.3-.3.7-.6 1-.5a1.1 1.1 0 0 1 .5.3 3.2 3.2 0 0 1 1 1.6 3.6 3.6 0 0 1-1 2.9 7.5 7.5 0 0 0-1.8 2.6 1.1 1.1 0 0 0 0 .9 1.4 1.4 0 0 0 .5.4 7.7 7.7 0 0 0 6.5.4c1.4-.5 2.6-1.5 4-2a9.6 9.6 0 0 0 1.8-.6 3.6 3.6 0 0 0 1.5-2.4 10 10 0 0 0 .1-2.8 33 33 0 0 0-2.4-11 1.3 1.3 0 0 0-.4-.5 1.4 1.4 0 0 0-.6-.2c-1.8-.2-4.7-1-6.3-.4a4.3 4.3 0 0 0-1.5 1.3c-.4.3-2.4 2-2.4 2.4z" fill="#a1616a"/><path d="M1007.6 577.7c0-1.7-2-5.7 1.2-6 0-1.8-2.5-2.9-2-4.8.1-.6.6-1.1.7-1.7.2-1.9-3-2.9-2.5-4.6.2-.7.9-1.1 1-1.8.4-1.6-2.4-2.3-2.4-3.9 0-.5.3-1 .2-1.6 0-.7-.6-1.2-.9-1.8-.8-1.5-.4-4-2-4.7 1 0 1.4-1.4 1-2.4s-1.3-1.7-1.3-2.8a4.4 4.4 0 0 0 0-1.1c-.3-1-2-1-2.2-2a10.7 10.7 0 0 1 0-1.2c-.1-.8-1-1.3-1.7-1.5a6.6 6.6 0 0 1-2.2-.8c-.5-.4-1-1-1.5-.6-.2 0-.3.3-.5.5-.6.7-1.8.4-2.5-.2-2.3-1.5-3.5-4.3-4-7s-.4-5.6-1-8.3a18.9 18.9 0 0 0-.8-2.4 12.7 12.7 0 0 1-1.1-2.5c-.1-1.6 3.1-.5 4.4-.3a19.4 19.4 0 0 1 3.5.6 37.6 37.6 0 0 1 3.6 1.6c5 2.2 11 2.5 15 6.2 1.3 1.2 2.4 2.8 4 3.3a21 21 0 0 1 2.3.6c2 .9 2.2 3.4 3.3 5.2a11.1 11.1 0 0 1 .8 1.5 6 6 0 0 1 .3 2l.1 4.7c.2 8 .5 15.9-.4 23.8-.2 2.6-.6 5.3.1 7.8l.7 2a13.6 13.6 0 0 1 .2 2.5l.2 3a1 1 0 0 1-.2.8 1 1 0 0 1-.8.2c-4.3-.4-8.6-2.8-12.7-1.4" fill="#464353"/><path d="M927.9 565.2a1.3 1.3 0 0 0-.5.4 3.4 3.4 0 0 0 0 4 1.4 1.4 0 0 1 .2.4 1.2 1.2 0 0 1 0 .7 2.3 2.3 0 0 0 .2 2.5c.3.3.8.4 1 .8.3.6-.2 1.3 0 2 0 .9 1 1.3 2 1.4a2.1 2.1 0 0 0 1.9-.5 1.6 1.6 0 0 0 0-1.8 4.7 4.7 0 0 0-1.4-1.3 2 2 0 0 0 2-1.8 2.8 2.8 0 0 0-1.2-2.5l-.5-.5.4-.8c1-1 1.8-3.5 0-4a4.6 4.6 0 0 0-2 0c-.5.2-.5.5-1 .7l-1.1.3z" fill="#a1616a"/><path d="M947.5 496.1a3.3 3.3 0 0 0-2.5 1.3 7.3 7.3 0 0 0-1 3.4 29.8 29.8 0 0 1-4 10.9" opacity=".1"/><path d="M951 498.9a3.9 3.9 0 0 0-3.3 2 11.1 11.1 0 0 0-.8 3.4 18.4 18.4 0 0 1-3.4 7" opacity=".1"/><path d="M305.9 562.6c.6 6.3-4.2 12.4-2.8 18.6.3 1.3.9 2.6 1 3.9.6 3.7-1.6 7.1-3.6 10.2l-18 26.4a17 17 0 0 1-2.5 3.1c-3.5 3-8.6 2.8-13.1 3.7a22.4 22.4 0 0 0-8.8 3.8.6.6 0 0 0-.1.8 7.5 7.5 0 0 0 6.5 3c.5.7 0 1.6-.6 2-1 .8-2.3 1-2.5 2.6a2.7 2.7 0 0 0 .3 1.6 5 5 0 0 0 3.1 2.2c6.3 1.9 13-1.4 17.6-6s8-10.3 12.6-15c2.5-2.5 5.4-4.7 8-7.1a92 92 0 0 0 13.1-17 18.9 18.9 0 0 0 2.8-5.8c.5-2 .3-4.3.9-6.3.7-2.7 2.6-4.8 4.3-7 3.1-4.4 5.3-9.7 4.8-15.1s-3.7-10.8-8.8-12.6a8 8 0 0 0-5-.3 12 12 0 0 0-5 4l-3.5 4a9 9 0 0 0-2 3 3.1 3.1 0 0 0 .7 3.3" fill="#fbbebe"/><path d="M305.9 562.6c.6 6.3-4.2 12.4-2.8 18.6.3 1.3.9 2.6 1 3.9.6 3.7-1.6 7.1-3.6 10.2l-18 26.4a17 17 0 0 1-2.5 3.1c-3.5 3-8.6 2.8-13.1 3.7a22.4 22.4 0 0 0-8.8 3.8.6.6 0 0 0-.1.8 7.5 7.5 0 0 0 6.5 3c.5.7 0 1.6-.6 2-1 .8-2.3 1-2.5 2.6a2.7 2.7 0 0 0 .3 1.6 5 5 0 0 0 3.1 2.2c6.3 1.9 13-1.4 17.6-6s8-10.3 12.6-15c2.5-2.5 5.4-4.7 8-7.1a92 92 0 0 0 13.1-17 18.9 18.9 0 0 0 2.8-5.8c.5-2 .3-4.3.9-6.3.7-2.7 2.6-4.8 4.3-7 3.1-4.4 5.3-9.7 4.8-15.1s-3.7-10.8-8.8-12.6a8 8 0 0 0-5-.3 12 12 0 0 0-5 4l-3.5 4a9 9 0 0 0-2 3 3.1 3.1 0 0 0 .7 3.3" opacity=".1"/><path d="M169.2 589.4c1 3.2 2 6.3 3.2 9.4a79.5 79.5 0 0 0 8.3 15.2 109.2 109.2 0 0 0 7 9c3 3.6 6.4 7.2 7.5 11.8.6 2.7.4 5.5.7 8.2s1.1 5.6 3.3 7.2a12.4 12.4 0 0 0 5.5 1.9c1.4.2 3.1.3 3.9-1a3.4 3.4 0 0 0 .3-1.5l.4-4c0-.9.4-2 1.2-2s1.3 1 2 1.6a2.2 2.2 0 0 0 3-1 5 5 0 0 0 0-3.5 16.6 16.6 0 0 0-8.4-10.6 25.6 25.6 0 0 1-4.2-2.2 14.2 14.2 0 0 1-3.3-4c-7.5-12.5-15.1-25-20.5-38.6a28.5 28.5 0 0 1-2-7.6 49 49 0 0 1 .3-8 45.8 45.8 0 0 0-1.4-14.3 11.2 11.2 0 0 0-1.3-3.4c-2.2-3.4-7.4-3.8-10.7-1.5a11 11 0 0 0-4.2 7.7c-.2 2.7 1.3 5.5 2.1 8l7.3 23.2z" fill="#a1616a"/><path d="M169.2 589.4c1 3.2 2 6.3 3.2 9.4a79.5 79.5 0 0 0 8.3 15.2 109.2 109.2 0 0 0 7 9c3 3.6 6.4 7.2 7.5 11.8.6 2.7.4 5.5.7 8.2s1.1 5.6 3.3 7.2a12.4 12.4 0 0 0 5.5 1.9c1.4.2 3.1.3 3.9-1a3.4 3.4 0 0 0 .3-1.5l.4-4c0-.9.4-2 1.2-2s1.3 1 2 1.6a2.2 2.2 0 0 0 3-1 5 5 0 0 0 0-3.5 16.6 16.6 0 0 0-8.4-10.6 25.6 25.6 0 0 1-4.2-2.2 14.2 14.2 0 0 1-3.3-4c-7.5-12.5-15.1-25-20.5-38.6a28.5 28.5 0 0 1-2-7.6 49 49 0 0 1 .3-8 45.8 45.8 0 0 0-1.4-14.3 11.2 11.2 0 0 0-1.3-3.4c-2.2-3.4-7.4-3.8-10.7-1.5a11 11 0 0 0-4.2 7.7c-.2 2.7 1.3 5.5 2.1 8l7.3 23.2z" opacity=".1"/><path d="M321 708.2a21 21 0 0 1-13.4 2c-.7-.1-1.6-.2-2 .4-.7.8 0 2 .9 2.7a19.9 19.9 0 0 0 9.2 3.8 62.6 62.6 0 0 0 9 .5c8.2.2 16.4.3 24.5-.9a3.3 3.3 0 0 0 1.4-.4 2.5 2.5 0 0 0 1-1.5 6.1 6.1 0 0 0-2.2-5.8 18 18 0 0 0-5.7-3.1l-7.1-2.8c-1.7-.6-4.4-2.4-6.2-2.2-3.4.2-6.6 5.6-9.4 7.3z" fill="#3f3d56"/><path d="M338.9 724.9a17.5 17.5 0 0 1-12 4.5c-1.1 0-2.7.2-2.7 1.3a1.8 1.8 0 0 0 .4 1 11 11 0 0 0 6.1 4.7 22 22 0 0 0 7.5.5l7.3-.4c1.4 0 2.8-.1 4.1-.3l4.3-.6a57.2 57.2 0 0 1 10.7-.5 3 3 0 0 0 2.6-.7c.6-.9.3-2 0-3-.4-2.1 0-4.4-.4-6.5-.7-3.7-3.9-6.6-7.4-8-3.3-1.2-9.1-2.6-12.2-.5-3.4 2.2-5.4 5.8-8.3 8.5z" fill="#3f3d56"/><path d="M324.5 630.4c-3 4-6 8.5-5.3 13.4.4 2.7 1.8 5 2.9 7.4a52 52 0 0 1 3 10.4 197 197 0 0 1 3 15.6 97.4 97.4 0 0 1 .6 17.9c-.1 1.4-.3 3-1.3 4-.4.4-1 .7-1 1.3a2.1 2.1 0 0 0 .2 1.5 16.6 16.6 0 0 0 8.9 8.1 34 34 0 0 0 12 2.3 3.4 3.4 0 0 0 1.7-.2 3.1 3.1 0 0 0 1.2-1.4c3-5.7 1.4-12.6 1.4-19 0-5.4 1.3-10.7 1-16.1-.1-4.3-1.3-8.5-1.7-12.8-.7-7 .6-14 1.9-21 1-5.4 2-10.7 3.3-16a30.4 30.4 0 0 1 3.4-9.2c1.4-2.2 3.3-4 4.9-6.1A27.9 27.9 0 0 0 370 590c-.1-.7-10.3 2.6-11.2 3a34.7 34.7 0 0 0-10 6.4c-2.4 2.2-4.2 5.2-6.3 7.8q-4.4 5.3-8.6 10.7l-9.5 12.4z" fill="#464353"/><path d="M324.5 630.4c-3 4-6 8.5-5.3 13.4.4 2.7 1.8 5 2.9 7.4a52 52 0 0 1 3 10.4 197 197 0 0 1 3 15.6 97.4 97.4 0 0 1 .6 17.9c-.1 1.4-.3 3-1.3 4-.4.4-1 .7-1 1.3a2.1 2.1 0 0 0 .2 1.5 16.6 16.6 0 0 0 8.9 8.1 34 34 0 0 0 12 2.3 3.4 3.4 0 0 0 1.7-.2 3.1 3.1 0 0 0 1.2-1.4c3-5.7 1.4-12.6 1.4-19 0-5.4 1.3-10.7 1-16.1-.1-4.3-1.3-8.5-1.7-12.8-.7-7 .6-14 1.9-21 1-5.4 2-10.7 3.3-16a30.4 30.4 0 0 1 3.4-9.2c1.4-2.2 3.3-4 4.9-6.1A27.9 27.9 0 0 0 370 590c-.1-.7-10.3 2.6-11.2 3a34.7 34.7 0 0 0-10 6.4c-2.4 2.2-4.2 5.2-6.3 7.8q-4.4 5.3-8.6 10.7l-9.5 12.4z" opacity=".1"/><path d="M346.1 600c.6 3.1 3.6 5.5 3.7 8.6 0 2.5-1.7 4.6-3 6.7a45.3 45.3 0 0 0-3 7 105.8 105.8 0 0 1-9 17.8c-1.8 2.8-3.7 5.7-3.3 8.9a13 13 0 0 0 1.6 4.2l5.1 10.2a29.3 29.3 0 0 1 2.6 6.5c.5 2 .5 4 .8 6 .8 6.2 3.7 12.5 2 18.5-.2.6-.7 1.2-1.1.8 1.7 3.2 3 6.4 2.9 10 0 2-.6 3.9 0 5.6a6.1 6.1 0 0 1 .8 2.2l-.3 1.5c-.1 1.4 1.2 2.6 2.6 3.1s2.9.4 4.3.8c2.6.8 4.5 3.1 6.8 4.7a14.4 14.4 0 0 0 8 2.6 2 2 0 0 0 1.1-.2 1.9 1.9 0 0 0 .7-1.4 7.8 7.8 0 0 0-2.9-6.8 3.1 3.1 0 0 1-1-1.1 2.7 2.7 0 0 1 0-1.3 91.2 91.2 0 0 0-.4-16.8 26 26 0 0 1-.2-5.4 22 22 0 0 0 .4-4.4 22.8 22.8 0 0 0-1.4-4.3c-.8-2.6-.6-5.3-.6-8a70.1 70.1 0 0 0-2.3-13.7 10.4 10.4 0 0 0-2.1-5c-1-1-2.8-2.1-2.4-3.6a4.2 4.2 0 0 1 1-1.5 5.9 5.9 0 0 0 1.2-4.5 2 2 0 0 0 2.3-1 36 36 0 0 0 18.1-20.6 6.7 6.7 0 0 1 .8-1.8c.8-1.1 2.1-1.6 3.3-2.2 3.8-1.9 6.3-5.4 8.7-8.8a20.6 20.6 0 0 0 3.4-6.5 21.2 21.2 0 0 0 .4-4.6l.2-8a4.6 4.6 0 0 0-.1-1.6 4 4 0 0 0-.9-1.3 15.5 15.5 0 0 0-8.5-4.5c-2.2-.4-4.4-.4-6.7-.5-4.3-.4-8.5-1.7-12.8-1.4-6.8.5-12.8 5.2-16 11.1-1.2 2.2-2.4 4-4.8 4z" fill="#464353"/><path d="M121.7 722.5a10.9 10.9 0 0 0 4.6.6c.1-1.3 1.8-1.6 3.1-1.5a3.5 3.5 0 0 1 1.8.4l.9.7a3.7 3.7 0 0 0 1.8.5l6.6.5c3 .3 6 .5 8.8-.6a2.9 2.9 0 0 0 1.4-1c.8-1 0-2.5-1-3.3s-2.4-1.1-3.4-2c-2.3-1.7-2.6-5-3.8-7.6a22 22 0 0 0-3.2-4.6 17.6 17.6 0 0 0-3.1-3.2c-2.7-1.9-5.7-1.9-8.8-2.1-2.2-.2-4.3-.4-5.9 1.6-2 2.4-1.2 7.3-1 10.2a73 73 0 0 0 1.2 11.4z" fill="#514e7f"/><path d="M121.7 722.5a10.9 10.9 0 0 0 4.6.6c.1-1.3 1.8-1.6 3.1-1.5a3.5 3.5 0 0 1 1.8.4l.9.7a3.7 3.7 0 0 0 1.8.5l6.6.5c3 .3 6 .5 8.8-.6a2.9 2.9 0 0 0 1.4-1c.8-1 0-2.5-1-3.3s-2.4-1.1-3.4-2c-2.3-1.7-2.6-5-3.8-7.6a22 22 0 0 0-3.2-4.6 17.6 17.6 0 0 0-3.1-3.2c-2.7-1.9-5.7-1.9-8.8-2.1-2.2-.2-4.3-.4-5.9 1.6-2 2.4-1.2 7.3-1 10.2a73 73 0 0 0 1.2 11.4z" opacity=".1"/><path d="M124.4 593.8c-2 .7-2.9 3.2-2.5 5.3s1.6 4 2.6 5.8c3 5.2 4.3 11.3 6.7 16.8 1.9 4 4.4 7.9 6.2 12s3 8.7 1.9 13.1c-.6 2.1-1.6 4-2.3 6.2a35 35 0 0 0-1.4 7 132.7 132.7 0 0 0-.4 24.1 7.3 7.3 0 0 0 .6 2.9c.4.8 1.1 1.6.7 2.5 0 .3-.4.5-.5.9-.5.9.4 1.8 1.2 2.5a2 2 0 0 1-1.3 1 3 3 0 0 1 1.3 3.4c-.7.1-.8 1.2-.3 1.7s1 1 1.4 1.5a2.1 2.1 0 0 1-1.2 2.7 5.5 5.5 0 0 1-3.2.2 34.6 34.6 0 0 1-5.3-1.1 4.8 4.8 0 0 1-1.6-.8 4.9 4.9 0 0 1-1.5-3.2 58.5 58.5 0 0 1-.4-10 792 792 0 0 0-.7-48.5 55.5 55.5 0 0 0-4.7-18.8 96.7 96.7 0 0 0-4.7-9c-3.6-6.7-6.8-14-6-21.6.1-.8.4-1.8 1.2-2a1.7 1.7 0 0 1 1 .2 42.5 42.5 0 0 1 4.8 2.7 18.4 18.4 0 0 0 8.4 2.5z" fill="#464353"/><path d="M124.4 593.8c-2 .7-2.9 3.2-2.5 5.3s1.6 4 2.6 5.8c3 5.2 4.3 11.3 6.7 16.8 1.9 4 4.4 7.9 6.2 12s3 8.7 1.9 13.1c-.6 2.1-1.6 4-2.3 6.2a35 35 0 0 0-1.4 7 132.7 132.7 0 0 0-.4 24.1 7.3 7.3 0 0 0 .6 2.9c.4.8 1.1 1.6.7 2.5 0 .3-.4.5-.5.9-.5.9.4 1.8 1.2 2.5a2 2 0 0 1-1.3 1 3 3 0 0 1 1.3 3.4c-.7.1-.8 1.2-.3 1.7s1 1 1.4 1.5a2.1 2.1 0 0 1-1.2 2.7 5.5 5.5 0 0 1-3.2.2 34.6 34.6 0 0 1-5.3-1.1 4.8 4.8 0 0 1-1.6-.8 4.9 4.9 0 0 1-1.5-3.2 58.5 58.5 0 0 1-.4-10 792 792 0 0 0-.7-48.5 55.5 55.5 0 0 0-4.7-18.8 96.7 96.7 0 0 0-4.7-9c-3.6-6.7-6.8-14-6-21.6.1-.8.4-1.8 1.2-2a1.7 1.7 0 0 1 1 .2 42.5 42.5 0 0 1 4.8 2.7 18.4 18.4 0 0 0 8.4 2.5z" opacity=".1"/><path d="M97 574.2a7.1 7.1 0 0 0-3.4-1.1 7.1 7.1 0 0 0-3.9 1.9 40.2 40.2 0 0 0-3.8 3.3 20.3 20.3 0 0 0-4.5 20.1c1.2 3.6 3.4 6.8 5.5 9.9l4.4 6.3c6.8 9.7 13.5 19.3 20.5 28.7a1 1 0 0 0 .8 1c.2 0 .5 0 .7.3a.8.8 0 0 1 0 .4 6.5 6.5 0 0 1-.3 2 1 1 0 0 0 0 .7c.1.5 1.1.2 1.4.7.2.3 0 .8-.3 1s-.6.6-.6 1 .8.8.7 1.3c0 .3-.2.5-.4.7a1.8 1.8 0 0 0 .2 2.3c.5 4.6-2 9-2.5 13.6-.8 7.2 2.5 14.3 2.9 21.5a5.8 5.8 0 0 0 .4 2.4c.7 1.3 2.5 2 2.4 3.4a13 13 0 0 1-.5 1.8 14 14 0 0 0 .3 2.4c0 .9-.7 1.9-1.5 1.5q.9 3 1.5 5.9l15.4 1.2a13.8 13.8 0 0 0-.1-4.1c-.3-1.5-1-3-1.3-4.4a5.1 5.1 0 0 1 .6-4.3 1.7 1.7 0 0 1-1.7-1.4 6.9 6.9 0 0 1 0-2.4c.4-4-1.3-8-1.3-12 0-3.2 1.2-6.3 1.8-9.4 1.2-6.7 0-14 2.9-20 1.8-3.7 4.3-7.7 2.3-11.3-1-1.8-2.8-3-4-4.6a18.8 18.8 0 0 1-2-5c-2.4-7.4-6.2-14.2-9.6-21.1a22.2 22.2 0 0 1-2-5.6 28.2 28.2 0 0 1-.3-5.1 78.5 78.5 0 0 0-.6-9.2 8.6 8.6 0 0 0-1.1-3.8 8.5 8.5 0 0 0-2.4-2.2c-5-3.4-11-5.4-16.5-8.3z" fill="#464353"/><path d="M115.5 728.2a10.9 10.9 0 0 0 4.6.5c.2-1.3 1.9-1.5 3.1-1.5a3.5 3.5 0 0 1 1.8.4l.9.7a3.7 3.7 0 0 0 1.8.5l6.6.6c3 .2 6 .4 8.8-.6a2.9 2.9 0 0 0 1.4-1c.7-1 0-2.6-1-3.4s-2.4-1-3.5-1.9c-2.2-1.7-2.6-5-3.8-7.6a22 22 0 0 0-3.1-4.6 17.5 17.5 0 0 0-3.2-3.2c-2.6-2-5.7-1.9-8.8-2.2-2.2-.2-4.3-.3-5.8 1.6-2 2.5-1.2 7.3-1 10.2a74.3 74.3 0 0 0 1.2 11.5z" fill="#514e7f"/><rect x="199" y="612.2" width="78" height="78" fill="#fff"/><circle cx="183.8" cy="532.3" r="15.3" fill="#a1616a"/><path d="M169.4 536.8c-2.2 1.9-5.3 2-8.2 2.3a51.2 51.2 0 0 0-17.6 5.1 6.3 6.3 0 0 0-2 1.4 5.8 5.8 0 0 0-1 2.2 14.4 14.4 0 0 0-.6 5.3 15.3 15.3 0 0 0 1.5 5 26.8 26.8 0 0 0 9.4 10.8 6.9 6.9 0 0 0 2.3 1c2 .5 4-.7 6-1.2a9.7 9.7 0 0 1 5.4.2c1.7.5 3.4 1.6 5 .9a5.2 5.2 0 0 0 2.3-2.6 87.9 87.9 0 0 0 4.2-9.1 34.5 34.5 0 0 1 1.5-3.6c1.7-3.3 4.8-6 6.3-9.4a2 2 0 0 0 .2-1.8 2.5 2.5 0 0 0-1.2-.9 26.7 26.7 0 0 1-6-4.7c-1-1-2.9-3.6-4.3-3.8-1.6-.2-2.1 2-3.2 2.9z" fill="#a1616a"/><path d="M169.8 567.8c-1.8.8-3.9.5-5.8 0-5-1-10-2-14.5-4.2a7.8 7.8 0 0 1-3.6-2.7 8.7 8.7 0 0 1-1-3.4l-.8-5.7c-.3-2 .2-3.8.2-5.8a1.7 1.7 0 0 0-.3-1.3 1.4 1.4 0 0 0-1-.3c-2.3 0-3.7 2.5-5.3 4a9.8 9.8 0 0 1-3.2 2.3c-1.5.6-3.3 1-3.9 2.4-.2.7-.2 1.4-.5 2-1 2.4-5.4 1.6-6.5 4-.3.6-.3 1.5-.8 2s-1.5.6-2.3.7c-3.2.5-4.7 4.2-7.4 6-2.3 1.4-5.3 1.4-7.7 2.5a29.5 29.5 0 0 1-4 2 18.9 18.9 0 0 1-4.7.2 1.3 1.3 0 0 0-1 .3 1.3 1.3 0 0 0 0 1 28 28 0 0 0 17.3 21.8 6.1 6.1 0 0 1 1.5.7c1.4 1 1.6 3.3 3.2 4a3.3 3.3 0 0 0 3.3-.7 29 29 0 0 0 2.4-2.7 9.6 9.6 0 0 1 5.4-2.8c1.9-.3 4-.1 5.5-1.3a17 17 0 0 0 1.8-1.8 11 11 0 0 1 4-2.4 40 40 0 0 1 12.5-2.6c4-.2 8.1.1 11.9-1.2a7 7 0 0 0 2.7-1.5 8 8 0 0 0 1.7-3 23.6 23.6 0 0 0 .8-12.5z" fill="#514e7f"/><path d="M150 545.3h3.5c1.3 0 2.6-.3 4-.3a9.9 9.9 0 0 1 9.3 7 1.8 1.8 0 0 1 0 1 .7.7 0 0 1-.7.6 16.9 16.9 0 0 0-1.7-3.4 9.7 9.7 0 0 0-5.2-3.6 13.3 13.3 0 0 0-6.3-.2l-2.5.6-4.2 1.1-2.2.7c-.6.2-1.5 1-2 1-.8 0-.2-.7.1-1a5.3 5.3 0 0 1 2.7-2 22.4 22.4 0 0 1 5.3-1.5z" fill="#514e7f"/><path d="M160.4 591.1c1 3.2 2 6.3 3.2 9.4a79.5 79.5 0 0 0 8.3 15.2 109.2 109.2 0 0 0 6.9 9c3 3.6 6.4 7.2 7.5 11.8.7 2.7.4 5.5.7 8.2s1.2 5.6 3.4 7.2a12.4 12.4 0 0 0 5.5 1.9c1.4.2 3 .3 3.8-1a3.4 3.4 0 0 0 .4-1.5l.3-4c.1-.9.4-2 1.3-2s1.3 1 2 1.6a2.2 2.2 0 0 0 3-1 5 5 0 0 0 0-3.5 16.6 16.6 0 0 0-8.5-10.6 25.6 25.6 0 0 1-4.1-2.1 14 14 0 0 1-3.3-4.2c-7.6-12.4-15.2-25-20.5-38.5a28.5 28.5 0 0 1-2.1-7.6 49 49 0 0 1 .3-8 45.8 45.8 0 0 0-1.3-14.3 11.2 11.2 0 0 0-1.3-3.4c-2.2-3.4-7.4-3.9-10.7-1.6a11 11 0 0 0-4.2 7.7c-.2 2.7 1.3 5.6 2.1 8l7.3 23.3z" fill="#a1616a"/><path d="M206 521.5c0-1.3-1-2.4-2.3-3.2a32.3 32.3 0 0 1-4-2.4c-1.1-1-1.8-2.3-3-3.3a13 13 0 0 0-4.3-2.2 33.4 33.4 0 0 0-10.5-2 18.5 18.5 0 0 0-10.1 2.7 6 6 0 0 0-1.7 1.6 7 7 0 0 0-.8 2.6 50 50 0 0 1-2.7 8 18.6 18.6 0 0 1-5 8c-2.8 2.4-7.2 3.8-9 6.7a2.1 2.1 0 0 0-.5 1.8c.3.7 1.2 1.2 2 1.7 4.6 2.6 8.6 6 10.6 10.2a11.8 11.8 0 0 1-1 12.8c-1 1.4-2.5 3-1.4 4.4 1.6 2.2 7 1 8.3 3.2a4.5 4.5 0 0 1 .2 2.3c0 2.4 2.3 4.5 5 5.6a28.3 28.3 0 0 0 9.2 1.5 7.9 7.9 0 0 0 .2-5.9 2.4 2.4 0 0 1-.2-1.3 3.2 3.2 0 0 1 1-1.3c3.3-3.2 2.6-7.8.6-11.6s-5.1-7.2-6.3-11.1c-.6-2-.6-4.2 1-5.8a20.2 20.2 0 0 1 2.9-2.1 11 11 0 0 0 4-5c1-2.6.8-5.7 3.5-7.5s6.3-1.1 9.2-2.2c2.3-1 4.9-4.3 5-6.2z" fill="#464353"/><circle cx="291.5" cy="526.9" r="16.6" fill="#fbbebe"/><path d="M306.4 526.2a21.6 21.6 0 0 0 13.8 9.6l-1.2 4.6c-2.2 7.8-4.6 16-10.6 21.5a10 10 0 0 0-1.7-7.8 29.5 29.5 0 0 0-5.7-5.9l-9.5-8.3a2.6 2.6 0 0 1-.8-.8 2.4 2.4 0 0 1 0-1.8c1.3-3.8 4.7-6.2 7.6-8.8a26.5 26.5 0 0 0 3.7-4.4c2-2.7 3.2 0 4.4 2z" fill="#fbbebe"/><path d="M308.6 547.7a9 9 0 0 1-.5 3.7 2.6 2.6 0 0 1-3 1.5c.3-.8-.6-1.7-1.5-1.6a2.7 2.7 0 0 0-1.9 1.6 6 6 0 0 0-.5 3.7c.3 1.6 1.2 3.1 1 4.7-.3 1.3-1.2 2.6-.7 3.9a6.2 6.2 0 0 0 1.2 1.4 4.2 4.2 0 0 1-.4 5.8l13 .3c-.5 2.1.5 4.3 1.6 6.3a39.7 39.7 0 0 0 29.6 19.3 2.6 2.6 0 0 0-.6 4c1 1 2.8.9 4.2.2a31.6 31.6 0 0 0 3.5-2.7 11 11 0 0 1 7.3-2c1.7.2 3.2.7 4.9.8 4.8.2 8.9-3.2 13.5-4.6 3.4-1 7.2-1 10-3.2 1.2-.9 2.2-2.3 1.9-3.8a6.3 6.3 0 0 0-1.4-2.3c-1.7-2.1-2.6-4.6-3.8-7a41.8 41.8 0 0 0-9.4-12.5 82.7 82.7 0 0 0-9.2-7 15.7 15.7 0 0 0-2.6-1.6 25.8 25.8 0 0 1-3.4-1.4c-1.5-1-2.4-2.6-3.6-4-2.5-3-6.5-4.4-9.7-6.7-2-1.6-4-3.7-6.5-4.4-1.2-.4-2.5-.4-3.8-.8-2.8-.9-4.8-3.4-7.6-4.4-2.1-.8-4.5-.5-6.8-.8a16 16 0 0 1-7.1-2.7 8.5 8.5 0 0 0-2.3-1.3c-3.4-1-3.7 5.4-4 7.6-.6 3.3-1.4 6.6-1.4 10z" fill="#3f3d56"/><path d="M312 569.4c.5 6.3-4.2 12.4-2.8 18.6.3 1.3.8 2.6 1 4 .6 3.6-1.6 7-3.7 10.1l-18 26.4a16 16 0 0 1-2.5 3.2c-3.5 3-8.6 2.7-13.1 3.6a22.4 22.4 0 0 0-8.8 3.9.6.6 0 0 0-.1.8 7.5 7.5 0 0 0 6.5 3c.5.6 0 1.6-.6 2-1 .7-2.3.9-2.5 2.5a2.8 2.8 0 0 0 .3 1.6 5.1 5.1 0 0 0 3.2 2.2c6.2 2 12.9-1.4 17.5-6s8-10.2 12.6-14.9c2.5-2.5 5.4-4.7 8-7.2 5.2-5 9.2-11 13.1-17a19 19 0 0 0 2.8-5.8c.5-2 .3-4.2.9-6.3.7-2.6 2.6-4.8 4.3-7 3.2-4.3 5.3-9.7 4.9-15.1s-3.8-10.7-8.9-12.6a8 8 0 0 0-5-.3c-2 .7-3.6 2.4-5 4l-3.5 4a9.4 9.4 0 0 0-2 3 3.1 3.1 0 0 0 .7 3.3" fill="#fbbebe"/><path d="M321 543.5c-2.3.1-5 .4-6.6 2a9.3 9.3 0 0 0-1.7 2.6 25.9 25.9 0 0 0-3.3 10.4c0 3 .8 5.8 1.2 8.7.4 2.4-.5 4.9-.7 7.3a50 50 0 0 0 9.4-3.6 31.6 31.6 0 0 1 5.5-2.9c2.9-1 7.6.7 10.3 2 .1-1.9-1.3-5.1-1.2-7a7.7 7.7 0 0 1 .5-2.3 13.9 13.9 0 0 1 1.4-2.3 9.2 9.2 0 0 0-.9-10.8c-2.3-2.6-6-3.6-9.6-4a42.2 42.2 0 0 0-6.7-.3" fill="#3f3d56"/><path d="M269.6 510.2l-.4-3.2c2.6.7 5.1-1.5 6.8-3.8s3.2-5 5.8-6c3-1.2 6.4.7 9.3 2.2A29.3 29.3 0 0 0 302 503a7.6 7.6 0 0 1 1.8.3c1.9.7 2.8 3 3 5.3s.3 4.5 1.2 6.5c.8 1.5 2 2.6 2.8 4 2 4 0 9.3 2.2 13.2l-5.3-5c-.5-.4-1.2-.8-1.8-.5s-.4 1-.6 1.5a2.8 2.8 0 0 1-3.8 1.4 10.4 10.4 0 0 1-3.4-3.1 20.7 20.7 0 0 0-8.4-6.4 10.8 10.8 0 0 0-9 .5c-2.5 1.4-4.3 4.7-7.3 4.8-4.2.2-6-7.6-7.9-10.7a3.8 3.8 0 0 0 1.1-4.7c.3-.1 3-.4 3 0z" fill="#464353"/><path d="M645.8 312.3a18.4 18.4 0 0 1-5.2 1.4 9.2 9.2 0 0 0 4-5 18.3 18.3 0 0 1-5.8 2.2 9 9 0 0 0-15.7 6.2 8.9 8.9 0 0 0 .2 2.1 25.8 25.8 0 0 1-18.8-9.5 9.1 9.1 0 0 0 2.9 12.1 8.9 8.9 0 0 1-4.2-1.1v.1a9.1 9.1 0 0 0 7.3 9 9.4 9.4 0 0 1-2.4.3 8.8 8.8 0 0 1-1.7-.2 9.1 9.1 0 0 0 8.5 6.3 18.2 18.2 0 0 1-11.3 4 19.6 19.6 0 0 1-2.2-.2 25.5 25.5 0 0 0 14 4 25.7 25.7 0 0 0 25.9-25.8V317a18.5 18.5 0 0 0 4.5-4.7z" fill="#b594b6"/><path d="M612.7 508l3 7.6 19.6 20.8 6.6-6.2 4.1 4.4 4.4-4.2.2-8.5 5.5-5.1.4-14.9-17.5-18.6zm39.5-4.1l-.2 8.5-6.6 6.2-.2 8.5-4.1-4.4-5.5 5.2-17.6-18.6 20.8-19.6z" fill="#b594b6"/><path d="M636.3 500.2l3.3-3.1 8.3 8.8-3.3 3zm-7.7 7.2l3.3-3.1 8.3 8.8-3.3 3.1z" fill="#b594b6"/><path d="M250.2 627h-32a2 2 0 0 0-2 2v32a2 2 0 0 0 2 2h16v-14.2h-4.4v-5.3h4.4v-3.9c0-4.6 3.3-7.2 7.4-7.2 2 0 4.2.2 4.6.3v4.8H243c-2.2 0-2.7 1-2.7 2.7v3.3h5.4l-.7 5.3h-4.7V663h10a2 2 0 0 0 2-2V629a2 2 0 0 0-2-2z" fill="#b594b6"/><path d="M530.7 398a7.5 7.5 0 0 1 7.5 7.5v15a7.5 7.5 0 0 1-7.5 7.5h-15a7.5 7.5 0 0 1-5.3-2.2 7.5 7.5 0 0 1-2.2-5.3v-15a7.5 7.5 0 0 1 7.5-7.5h15m0-3h-15a10.6 10.6 0 0 0-10.5 10.5v15a10.6 10.6 0 0 0 10.5 10.5h15a10.6 10.6 0 0 0 10.5-10.5v-15a10.6 10.6 0 0 0-10.5-10.5z" fill="#b594b6"/><path d="M533 405.5a2.3 2.3 0 1 1 2.2-2.2 2.2 2.2 0 0 1-2.2 2.2zm-9.8 1.5a6 6 0 1 1-6 6 6 6 0 0 1 6-6m0-3a9 9 0 1 0 9 9 9 9 0 0 0-9-9z" fill="#b594b6"/><path d="M995 564.9c0-4.3-3.2-7.7-7-7.7-5.3-.2-10.6-.3-16-.3h-1.7c-5.4 0-10.7 0-16 .3-3.8 0-6.9 3.4-6.9 7.7a134.3 134.3 0 0 0 0 20c0 4.2 3.1 7.6 7 7.6a367.7 367.7 0 0 0 33.5 0c3.9 0 7-3.4 7-7.6a146.4 146.4 0 0 0 0-20zM966.5 584v-18.4l13.6 9.2z" fill="#b594b6"/><path d="M498.2 211a21 21 0 0 0-8.4 40.3 18.7 18.7 0 0 1 .4-4.8l2.7-11.5a8 8 0 0 1-.7-3.3c0-3.2 1.8-5.5 4-5.5 2 0 2.9 1.5 2.9 3.2 0 1.9-1.3 4.8-1.9 7.4a3.3 3.3 0 0 0 3.3 4c4 0 6.7-5 6.7-11.1 0-4.6-3.1-8-8.7-8a10 10 0 0 0-10.4 10 6 6 0 0 0 1.4 4.2 1 1 0 0 1 .3 1.1l-.4 1.7a.7.7 0 0 1-1.1.5c-3-1.2-4.3-4.4-4.3-8 0-6 5-13.1 15-13.1 8 0 13.3 5.8 13.3 12 0 8.3-4.6 14.5-11.4 14.5a6 6 0 0 1-5-2.7l-1.6 5.8a17.3 17.3 0 0 1-2 4.5 21.3 21.3 0 0 0 6 .9 21 21 0 0 0 0-42.1z" fill="#b594b6"/><path d="M770.2 842.5c-.8-3.4-1.3-6.4-1.3-6.4a13.3 13.3 0 0 0-1.5-6.5v-7.9a22.8 22.8 0 0 1 1.8-3.6c1.2-2.2 0-10 0-10s-4.6-11.3-3.5-18.4-9.4-31.5-9.4-31.5a31.1 31.1 0 0 1 1-7 5 5 0 0 0 0-1.5 1 1 0 0 0 0-.2v.1c0-4.7-3.8-13.5-3.8-13.5l.5-16.7s2.4-9.8-1.5-23c-1.3-4.7-2.2-8.4-2.7-11.3l-.2-.9 14-2.2s-4.6-19.3-7.7-22.6-5.6-14-5.6-14-1.6-13.6 1-17.5 3-10.9 3-10.9 6-4.3 6.7-6.2a31.7 31.7 0 0 0 2-8.6c0-2.3-.7-4.3-.5-5.5s-1.7-5.8-.7-8a5.8 5.8 0 0 0 .4-2 .1.1 0 0 0 0-.1 29.7 29.7 0 0 0-.6-5.7 16 16 0 0 0-5.9-3.1l-.1-.5-.3-1.4a4.6 4.6 0 0 0-.6-.3V573l.9-4.4c1.8-7.7-8.4-8.8-8.4-8.8a5.4 5.4 0 0 0-2.9-2.5c-2-.7-.3 11.5.7 12.3.7.5 3 4.4 4 6.2l.1.4a4 4 0 0 0-.4.4l.4 2.7v.4a10.9 10.9 0 0 0-1.6 2.8s1.9 2 1.5 4.3a13.6 13.6 0 0 0 .6 5.3c-.1-.1-1.4-1.5-2.7-1.2l-5 1.4s-2.8.5-2.5 1.1-1.9 3.3-1.9 3.3l-7.3-7-.2-.7a16.8 16.8 0 0 1-.7-3 16.3 16.3 0 0 0 2.4-.7 5 5 0 0 0 2-1.3 8 8 0 0 0 1.1-3.2c.6-2.1 1.9-4 2.8-6A19.8 19.8 0 0 0 739 564a7.2 7.2 0 0 0-1.1-3.2c-1.2-1.6-3.4-2.3-5-3.6s-2.6-3.4-4.5-4.4a8.8 8.8 0 0 0-5.6-.4 29.8 29.8 0 0 0-10.4 3.8c-1 .6-2.2 1.3-3.5 1.1a4.7 4.7 0 0 1-2.5-1.8.5.5 0 0 1 0-.2 13.2 13.2 0 0 0-1.2 5.5v1.1a2.3 2.3 0 0 1 0 .3 1.8 1.8 0 0 1 0 .4 2.8 2.8 0 0 1-.7 1 4.4 4.4 0 0 0-.6.8v-.3a4.3 4.3 0 0 0-.7 2.3 2.3 2.3 0 0 0 .6 1.7 8 8 0 0 0 1.2 1 14 14 0 0 0-.3 2.4 14.2 14.2 0 0 0 7 12.1l.2.7a17.5 17.5 0 0 1 1.3 8v.6l-.3.3s-12.1 0-15-2.5-7.2 6.3-7.2 6.3-4.4.9-5.2 0-6-.1-6-.1a11 11 0 0 0-7.6-2.8 22.3 22.3 0 0 0-5.6-3l-.1-.1a6.2 6.2 0 0 0-2.8-.4s-6-4.9-7.7-7.5-10-12.5-10-12.6v-.4l-.1-1.5a5.6 5.6 0 0 1-.8.1c0-.1 0-.3-.2-.5a27 27 0 0 0-1.7-4s0-1.8.5-2.2-.2-7.1-.2-7.1-5.4-12.6-10.2-3.2c0 0-9.1 6-1.5 13.2 0 0 3 1.4 3.5 2.6l2 4.3.3.6V574.1c-1.4.8-2.4 1.7-2.1 2.3a13.2 13.2 0 0 1 .8 3.2s10.6 13.3 12 19c0 0 28.3 16.8 37.6 18L684 625a66.6 66.6 0 0 0-.3 6.8c0 1.8-1.2 10-1.2 10s-1.6 12-3 13.8-1 8.9-1 8.9a60 60 0 0 1-2 10.2c-1.3 4.6-.3 10.2-.3 10.2s-4.7 10.8 6.6 3.5l12-.6v3.3c0 6.2-.1 14.8.1 21.3.5 11.4 4 34 4 34v11.3a15.9 15.9 0 0 0-.3 3.3 21 21 0 0 0 3 11.3l1 7.6s2 5 2 8a4 4 0 0 1 0 .7 5.4 5.4 0 0 0-.2 1.2c0 3.4 2 11.7 2 11.7s.2 8.3 1.4 8.8c1 .4-1.4 4.8-2.1 6a2 2 0 0 1 0-.3l-.2.3a5.8 5.8 0 0 0-.4 2 3 3 0 0 0 1.3 3c2.4 1.4 3.7 2.6 1.7 3.1a19.9 19.9 0 0 0-2.2.5l-.1-.3a1.3 1.3 0 0 0-.8 1.4 6.2 6.2 0 0 0 .8 2.8 30 30 0 0 0 3.3 6.1h1a4.7 4.7 0 0 1-.6 1 3.9 3.9 0 0 1-1.3 1.2 4.5 4.5 0 0 1-1.7.6 4.7 4.7 0 0 0-3.6 1.7c-1.2 1.6-2 3.8.5 5.7l8.9 3s15.2 2 14.4-1.4-1.3-6.4-1.3-6.4a13.6 13.6 0 0 0-1.2-6.1 6 6 0 0 0-.6-1h.6s1.1-7.6 2.6-9c.3-.3.4-.6.3-.8.2-.4-.2-.6-.7-.7l-.1.3a7.5 7.5 0 0 0-1.5-.2s-.5-4 1.1-5.4a1.5 1.5 0 0 0 .3-1.2 6.8 6.8 0 0 0-.1-1.6 57.8 57.8 0 0 0-3.7-9.3s0-3.6 1-5-.2-19.6-.2-19.6.4-8.8-.8-12.9 1.4-9 1.4-9v-.2l-.1-1.4-1.1-8.4c-.5-2.8.1-16 .1-16l2.3-5.7 4 9.8 4.2 13a11 11 0 0 1 2.1 5.5v.4a6.5 6.5 0 0 0 0 .9 7.8 7.8 0 0 0 1.3 4.6s1.1 6.2 2.9 7.7 1.7 4.6 1.7 4.6 2.1 8.9 3.1 10.5c.9 1.3.9 4.9.9 6v.3s.3 3.2.3 5.8v1a9.3 9.3 0 0 1-.3 2.1v-.3a22.3 22.3 0 0 0-.6 5.6c0 3.2.4 7 2.3 9.2 3.4 3.8 5.5 3.3 5.5 3.3s-1.6 4.9-3.6 5.8a1.2 1.2 0 0 0-.2.2v-.3a2.4 2.4 0 0 0-.6 1.8 12.9 12.9 0 0 0 2.4 7.1 4 4 0 0 0 1.7 1l-.3.2a7 7 0 0 1-.7.3 3.3 3.3 0 0 1-1 .3 4.7 4.7 0 0 0-3.5 1.7c-1.3 1.6-2 3.8.4 5.7l8.9 3s15.1 2.1 14.3-1.4z" transform="translate(-51.8 -49)" fill="url(#a)"/><path d="M660 799.2l-8.5-3c-2.4-2-1.7-4.2-.5-5.8a4.5 4.5 0 0 1 3.4-1.7 4.2 4.2 0 0 0 1.7-.6 3.9 3.9 0 0 0 1.4-1.2 6.3 6.3 0 0 0 1-3.4s9.4-2.7 12 0a7 7 0 0 1 1.1 1.7 14 14 0 0 1 1.2 6.1s.5 3 1.3 6.4-14 1.5-14 1.5z" fill="#2d293d"/><path d="M702.2 795l-8.6-3c-2.4-2-1.6-4.2-.4-5.8a4.5 4.5 0 0 1 3.4-1.7 3.1 3.1 0 0 0 1-.3 5 5 0 0 0 .6-.3c2.4-1.3 2.4-4.6 2.4-4.6s9.4-2.7 12 0a6.7 6.7 0 0 1 .9 1.3 13.7 13.7 0 0 1 1.4 6.5s.5 3 1.3 6.4-14 1.5-14 1.5z" fill="#2d293d"/><path d="M670.5 783.5a7 7 0 0 1 1.1 1.7l-14.2 1.7a6.3 6.3 0 0 0 1-3.4s9.5-2.7 12 0z" opacity=".1"/><path d="M713.5 780.5v2.7c-2.2 3.6-12.9 2.8-16 1a5 5 0 0 0 .7-.4c2.4-1.3 2.3-4.5 2.3-4.5s9.5-2.8 12 0a6.7 6.7 0 0 1 1 1.2z" opacity=".1"/><path d="M715.2 769.1a23.6 23.6 0 0 0-1.7 3.6v9.5c-2.4 4-15 2.7-16.6.5s-3.5-7.8-1.6-8.8 3.5-5.8 3.5-5.8-2 .5-5.3-3.3-2.3-12.4-1.7-14.5 0-8.9 0-8.9.2-4.8-.8-6.3-3-10.5-3-10.5 0-3-1.7-4.6-2.8-7.7-2.8-7.7a7.9 7.9 0 0 1-1.2-5.2c.4-3-2-6.2-2-6.2l-4.1-13-3.9-9.8-2.1 5.7s-.6 13.2-.1 16 1.2 10 1.2 10-2.4 4.9-1.3 9 .7 12.9.7 12.9 1 18.1 0 19.6-.7 5-.7 5 4.9 10.6 3.3 12-1 5.4-1 5.4 3.3 0 1.9 1.4-2.6 9-2.6 9l-14.5 1.9a30.8 30.8 0 0 1-3.3-6.2c-2-4.4.4-4 2.3-4.4s.7-1.7-1.6-3.1-1-4.7-1-4.7 3.5-6 2.3-6.4-1.3-8.8-1.3-8.8-2.4-9.9-1.8-12.5-2-9-2-9l-.8-7.6a20.8 20.8 0 0 1-2.6-14.3v-11.7s-3.4-22.6-3.8-34c-.3-7.3-.3-17.3-.2-23.6 0-3.5.2-5.8.2-5.8l52-5.4a43 43 0 0 0 .9 7.7c.5 2.9 1.4 6.6 2.7 11.2 3.7 13.2 1.4 23 1.4 23l-.5 16.8s4.6 11.2 3.6 15a31.8 31.8 0 0 0-1 7s10.3 24.4 9.2 31.5 3.4 18.3 3.4 18.3 1.2 8 0 10.1z" fill="#464353"/><path d="M685.5 706.4l15.7-2s-8.9 9-15.8 2z" opacity=".1"/><path d="M699 688.9s.5 5.5-2.9 7.7c0 0 6.1-1 2.9-7.8z" opacity=".1"/><path d="M698 671s-13.2 11-18 10 18-10 18-10z" opacity=".1"/><path d="M665.8 711.5s-10 2.3-10.3 6.3 10.3-6.3 10.3-6.3z" opacity=".1"/><path d="M668 761.7s-14.2 2.6-10.1 4.5a68.8 68.8 0 0 0 10.6 3.2s4.6.2-.5-7.7z" opacity=".1"/><g opacity=".1"><path d="M655 769a2.8 2.8 0 0 1-1.3-2l-.1.2s-1.4 3.2 1 4.7l.7.5 1.3-.3c2-.4.7-1.6-1.6-3.1z"/><path d="M673.3 768c.4-.3.4-1.2.1-2.4a6.7 6.7 0 0 0-.8 3.5 2.7 2.7 0 0 1 .7-1z"/><path d="M671.1 708.2a16.6 16.6 0 0 0-1 4.4 17.5 17.5 0 0 1 1.1-3v-1.4z"/><path d="M703.6 701.9a5.7 5.7 0 0 0 .1-1.3l-.3 2.4.2-1.1z"/><path d="M670.8 751a7.6 7.6 0 0 0 .3-2.7 8.8 8.8 0 0 0-.7 3.4 3.2 3.2 0 0 1 .4-.7z"/><path d="M673.8 773.7a48.1 48.1 0 0 0-1.7 7.3l-14.6 1.7a30.1 30.1 0 0 1-3.2-6.1 10.7 10.7 0 0 1-.4-1c-.9.3-1.2 1.2 0 4a29.8 29.8 0 0 0 3.2 6l14.5-1.6s1.1-7.6 2.5-9c.8-.8.3-1.1-.4-1.3z"/><path d="M654.5 752s.1 8.4 1.3 8.8c.7-1.3 1-2.6.5-2.8-1.2-.5-1.3-8.8-1.3-8.8s-2.4-9.9-1.8-12.5-2-9-2-9l-.8-7.6a20.9 20.9 0 0 1-2.6-14.3V694s-3.4-22.7-3.9-34c-.3-7.4-.2-17.4 0-23.6v-3h-.5l-.1 5.8c-.1 6.2-.2 16.2.1 23.5.5 11.5 3.9 34 3.9 34v11.7A20.8 20.8 0 0 0 650 723l.8 7.6s2.5 6.3 2 9 1.7 12.5 1.7 12.5z"/><path d="M697.4 779.5a14 14 0 0 1-2.3-5.7c-1.5 1.3.2 6.5 1.8 8.6s14.2 3.5 16.6-.5v-2.3c-3.3 3.2-14.5 2-16.1-.1z"/><path d="M715.6 765.9a24 24 0 0 0-1.6 3.6v1.7l1.2-2.4a7.3 7.3 0 0 0 .5-3z"/><path d="M698.1 767.8a23.2 23.2 0 0 0 1.2-2.9s-2 .5-5.3-3.3c-2.4-2.8-2.5-8.1-2.2-11.6-.6 2-1.5 10.6 1.7 14.4 2.1 2.6 3.7 3.2 4.6 3.4z"/><path d="M691.8 741.1a66.1 66.1 0 0 1 .3 7.1l.2-1c.6-2 0-9 0-9s.1-4.8-.8-6.4-3-10.4-3-10.4 0-3-1.7-4.6-2.8-7.7-2.8-7.7a7.9 7.9 0 0 1-1.2-5.2c.4-3-2-6.2-2-6.2l-4-13-4-9.7-2.1 5.6-.1 1.9 1.7-4.6 3.9 9.7 4 13s2.5 3.3 2 6.3a8 8 0 0 0 1.3 5s1.1 6.2 2.8 7.8 1.7 4.6 1.7 4.6 2 8.9 3 10.4.8 6.4.8 6.4z"/></g><path d="M702 519.7l-1 4.4v3.5l-5 .5-.5-1c-1-1.9-3.2-5.7-3.9-6.3-1-.8-2.6-13-.6-12.3a5.2 5.2 0 0 1 2.8 2.6s10 1 8.1 8.6z" fill="#ffcdd3"/><path d="M701.1 527.5l-5 .5-.5-1a4.4 4.4 0 0 1 5.5-.9z" opacity=".1"/><path d="M702.4 529.9l-6.6 1.5-.2-1-.4-2.6a4.5 4.5 0 0 1 6.5-.9l.3 1.4z" fill="#dce6f2"/><path d="M595.1 520.2l-7 3.8-.7-1.3-2-4.3c-.4-1.2-3.3-2.7-3.3-2.7-7.4-7 1.4-13.1 1.4-13.1 4.7-9.4 9.9 3.2 9.9 3.2s.7 6.6.2 7-.5 2.3-.5 2.3a27.5 27.5 0 0 1 1.7 4l.3 1.1z" fill="#ffcdd3"/><path d="M595.1 520.2l-7 3.8-.7-1.3c1-.9 4.6-3.7 5.7-3.6a8.3 8.3 0 0 0 1.7 0l.3 1.1z" opacity=".1"/><path d="M595.9 522.4l-8 3.9-.1-1.7-.1-1.2s4.5-4 6-3.8a7.4 7.4 0 0 0 2 0l.1 1.4z" fill="#dce6f2"/><path d="M682.7 549s-34.6 3.8-28.2 1.7c4.5-1.5 6.3-4.3 6.7-7.5a18.3 18.3 0 0 0-1.3-8 34.8 34.8 0 0 0-3-6.3s26.4-14.5 21-1.3a20.8 20.8 0 0 0-1.4 6.3 17.7 17.7 0 0 0 .7 6.3 19 19 0 0 0 5.5 8.7z" fill="#ffcdd3"/><path d="M678 527.6a20.8 20.8 0 0 0-1.5 6.3c-2.5 2-5.2 2-8.7 2-2.7 0-5.7.7-7.9-.6a34.8 34.8 0 0 0-3-6.3s26.4-14.6 21-1.4z" opacity=".1"/><circle cx="667.3" cy="522.5" r="14.3" fill="#ffcdd3"/><path d="M682.7 549s-34.6 3.8-28.2 1.7c4.5-1.5 6.3-4.3 6.7-7.5 1.7-1.9 5.2-3.2 7.4-4a10.3 10.3 0 0 1 6.3 0 8.4 8.4 0 0 1 2.3 1 19 19 0 0 0 5.5 8.7z" opacity=".1"/><path d="M702.4 529.9l-6.6 1.5-.2-1a5.8 5.8 0 0 1 6.4-2.1z" opacity=".1"/><path d="M595.9 522.4l-8 3.9-.1-1.7a58.4 58.4 0 0 1 8-3.6z" opacity=".1"/><path d="M696.4 636.2c-13.4 2-32.5 4.8-35.5 4a88 88 0 0 0-17.6-.5c0-3.5.2-5.8.2-5.8l52-5.4a43 43 0 0 0 .9 7.7z" opacity=".1"/><path d="M709.8 633s-44.2 7.6-49 6.1-29 .1-29 .1c-11 7.4-6.4-3.5-6.4-3.5s-1-5.6.4-10.2a62.6 62.6 0 0 0 1.8-10.2s-.3-7.2 1-9 3-13.6 3-13.6 1.1-8.2 1-10 .4-6.9.4-6.9l1.6-8.4c-9-1.2-36.5-18-36.5-18-1.3-5.7-11.6-19-11.6-19a14 14 0 0 0-.8-3.2c-.7-2 10.1-5.8 10.1-5.8s8 9.9 9.7 12.5 7.5 7.6 7.5 7.6a5.8 5.8 0 0 1 2.7.4h.1a21.3 21.3 0 0 1 5.4 3 10.4 10.4 0 0 1 7.3 2.8s5-.7 5.8.2 5 0 5 0 4.2-9 7-6.4 14.5 2.5 14.5 2.5c1.6-2 5.4-3.6 7.8-4.3a10.3 10.3 0 0 1 6.2-.1 7.8 7.8 0 0 1 2.5 1.2l7.1 7s2-2.7 1.8-3.3 2.5-1 2.5-1l4.8-1.5c1.4-.4 2.5 1 2.6 1.2a14 14 0 0 1-.6-5.3 6 6 0 0 0-1.4-4.3c4.2-10.3 13.7-1.6 13.7-1.6s1.1 5.6.2 7.8 1 6.7.7 8 .5 3.2.5 5.5a32.9 32.9 0 0 1-2 8.5c-.7 2-6.5 6.3-6.5 6.3s-.3 6.8-2.9 10.8-1 17.6-1 17.6 2.4 10.6 5.5 14 7.5 22.5 7.5 22.5z" fill="#3f3d56"/><path d="M645.4 553.9s-1.3-4-2.5-4.4a28.5 28.5 0 0 1-3.5-1.6l.7-1.4s4.6 1.2 5.3 2.5 0 4.9 0 4.9z" opacity=".1"/><path d="M621.2 545c-.2 1.3-11 2.4-11 2.4l5.5-5.5h.1a21.3 21.3 0 0 1 5.4 3.2z" opacity=".1"/><circle cx="590.2" cy="528.5" r="1" fill="#575988"/><circle cx="591.4" cy="530.5" r="1" fill="#575988"/><circle cx="592.6" cy="532.3" r="1" fill="#575988"/><circle cx="593.9" cy="534.2" r="1" fill="#575988"/><circle cx="707.3" cy="534.1" r=".8" fill="#575988"/><circle cx="707.5" cy="535.9" r=".8" fill="#575988"/><circle cx="707.5" cy="537.6" r=".8" fill="#575988"/><path d="M645.4 586.5c0-.2 27 34 48.1 14.3 0 0-33.3 4.5-48-14.3z" opacity=".1"/><path d="M629.9 604.3s16.2.4 17.9 5v5a3.1 3.1 0 0 1-3 0c-1.6-1-11.5-6-15-3.5z" opacity=".1"/><path d="M630.2 604.3s15.5.4 17.1 4.8v4.7a3 3 0 0 1-2.9 0c-1.6-.9-11-5.6-14.2-3.3z" fill="#3f3d56"/><path d="M638.7 569a52.3 52.3 0 0 0 6.3 10.8 42.1 42.1 0 0 0 9.9 9.5s-16-18-16.2-20.3z" opacity=".1"/><path d="M633.4 550.2s2.7 11.6 9.7 15.6z" opacity=".1"/><path d="M629.2 551.3c0-.2-2.4 9.3 9 14.5 0 0-4.8-1.6-9-14.5z" opacity=".1"/><path d="M700.1 543.5c-.2 0 5.6 3.7 7.2 5.4 0 0-3.7-5.6-7.2-5.4z" opacity=".1"/><path d="M663.4 535.4a3 3 0 0 0 1.1 2 3.1 3.1 0 0 0 1.4.3c4.3.2 8.9.4 13-1.3a4.8 4.8 0 0 0 2-1.3 7.8 7.8 0 0 0 1-3.1c.6-2.2 1.8-4 2.7-6.1a20.4 20.4 0 0 0 1.4-11 7.3 7.3 0 0 0-1.1-3.1c-1.2-1.7-3.3-2.3-4.8-3.7s-2.5-3.3-4.3-4.3a8.4 8.4 0 0 0-5.4-.5 28.5 28.5 0 0 0-10 3.8c-1 .7-2.3 1.4-3.4 1.2a4.6 4.6 0 0 1-2.5-2 13.3 13.3 0 0 0-1.1 6.3 3 3 0 0 1 0 1 3 3 0 0 1-.7 1c-1 1.2-1.7 3.2-.7 4.4.5.6 1.2.9 1.7 1.5.8 1 .5 2.4.5 3.7a2 2 0 0 0 .3 1.3 1.9 1.9 0 0 0 1.8.4 4.8 4.8 0 0 1 1.9-.2 3.2 3.2 0 0 1 1.6 1.3c2 2.5 2.8 5.3 3.6 8.4z" fill="#2d293d"/><path d="M681.2 534a4.7 4.7 0 0 1-2 1.3c-4 1.7-8.6 1.5-13 1.2a3 3 0 0 1-1.3-.3 3 3 0 0 1-1-1.9c-1-3-1.7-5.9-3.7-8.4a3.1 3.1 0 0 0-1.7-1.3 4.8 4.8 0 0 0-1.9.2 1.9 1.9 0 0 1-1.7-.4 2 2 0 0 1-.3-1.3c0-1.3.3-2.8-.5-3.8-.5-.5-1.2-.8-1.7-1.4a2.8 2.8 0 0 1-.2-2.8c-.8 1.2-1.1 2.7-.3 3.8.5.5 1.2.8 1.7 1.4.8 1 .5 2.5.5 3.7a2 2 0 0 0 .3 1.3 1.9 1.9 0 0 0 1.8.4 4.8 4.8 0 0 1 1.9-.2 3.2 3.2 0 0 1 1.6 1.3c2 2.6 2.8 5.4 3.6 8.5a3 3 0 0 0 1.2 2 3.1 3.1 0 0 0 1.3.2c4.4.3 9 .5 13-1.2a5 5 0 0 0 2-1.3 3.8 3.8 0 0 0 .6-1.2c0 .1 0 .2-.2.2z" opacity=".1"/><path d="M660.9 544.1s17.8 2.4 19.5-.3" opacity=".1"/><path d="M695.6 536.7s10 0 12.1 3.7" opacity=".1"/></svg>